<?xml version="1.0" encoding="utf-8" standalone="no"?>
<!DOCTYPE svg PUBLIC "-//W3C//DTD SVG 1.1//EN"
  "http://www.w3.org/Graphics/SVG/1.1/DTD/svg11.dtd">
<!-- Created with matplotlib (http://matplotlib.org/) -->
<svg height="345pt" version="1.1" viewBox="0 0 460 345" width="460pt" xmlns="http://www.w3.org/2000/svg" xmlns:xlink="http://www.w3.org/1999/xlink">
 <defs>
  <style type="text/css">
*{stroke-linecap:butt;stroke-linejoin:round;}
  </style>
 </defs>
 <g id="figure_1">
  <g id="patch_1">
   <path d="M 0 345.6 
L 460.8 345.6 
L 460.8 0 
L 0 0 
z
" style="fill:#ffffff;"/>
  </g>
  <g id="axes_1">
   <g id="patch_2">
    <path d="M 57.6 307.584 
L 414.72 307.584 
L 414.72 41.472 
L 57.6 41.472 
z
" style="fill:#ffffff;"/>
   </g>
   <g id="matplotlib.axis_1">
    <g id="xtick_1">
     <g id="line2d_1">
      <defs>
       <path d="M 0 0 
L 0 3.5 
" id="mf2f66259ca" style="stroke:#000000;stroke-width:0.8;"/>
      </defs>
      <g>
       <use style="stroke:#000000;stroke-width:0.8;" x="57.6" xlink:href="#mf2f66259ca" y="307.584"/>
      </g>
     </g>
     <g id="text_1">
      <!-- 2018-10-17 -->
      <defs>
       <path d="M 39.359375 52.6875 
Q 39.359375 59.125 35.546875 62.78125 
Q 31.734375 66.453125 25.4375 66.453125 
Q 20.953125 66.453125 16.453125 64.125 
Q 11.96875 61.8125 8.34375 57.765625 
L 8.34375 66.15625 
Q 15.328125 73.046875 26.421875 73.046875 
Q 35.640625 73.046875 41.28125 67.71875 
Q 46.921875 62.40625 46.921875 53.375 
Q 46.921875 45.609375 43.3125 39.765625 
Q 39.703125 33.9375 31 27.734375 
Q 22.796875 21.96875 19.59375 18.984375 
Q 16.40625 16.015625 15.109375 13.34375 
Q 13.8125 10.6875 13.8125 7.03125 
L 48.6875 7.03125 
L 48.6875 0 
L 5.5625 0 
L 5.5625 3.515625 
Q 5.5625 9.421875 7.203125 13.59375 
Q 8.84375 17.78125 12.671875 21.75 
Q 16.5 25.734375 24.953125 31.59375 
Q 32.671875 36.921875 36.015625 41.71875 
Q 39.359375 46.53125 39.359375 52.6875 
" id="MalgunGothic-32"/>
       <path d="M 4.34375 34.46875 
Q 4.34375 53.515625 10.546875 63.28125 
Q 16.75 73.046875 28.421875 73.046875 
Q 50.828125 73.046875 50.828125 36.234375 
Q 50.828125 18.0625 44.59375 8.421875 
Q 38.375 -1.21875 26.8125 -1.21875 
Q 15.875 -1.21875 10.109375 8.125 
Q 4.34375 17.484375 4.34375 34.46875 
M 12.25 34.859375 
Q 12.25 5.375 27.640625 5.375 
Q 42.921875 5.375 42.921875 35.296875 
Q 42.921875 66.40625 28.03125 66.40625 
Q 12.25 66.40625 12.25 34.859375 
" id="MalgunGothic-30"/>
       <path d="M 34.859375 0 
L 27.09375 0 
L 27.09375 62.0625 
Q 24.859375 59.8125 19.78125 57.203125 
Q 14.703125 54.59375 10.5 53.5625 
L 10.5 61.859375 
Q 15.875 63.375 22.015625 66.796875 
Q 28.171875 70.21875 31.734375 73.4375 
L 34.859375 73.4375 
z
" id="MalgunGothic-31"/>
       <path d="M 4.734375 20.015625 
Q 4.734375 26.078125 8.421875 31.421875 
Q 12.109375 36.765625 18.015625 38.96875 
Q 13.375 41.359375 10.546875 45.546875 
Q 7.71875 49.75 7.71875 54.6875 
Q 7.71875 59.8125 10.296875 64.03125 
Q 12.890625 68.265625 17.53125 70.65625 
Q 22.171875 73.046875 27.78125 73.046875 
Q 36.46875 73.046875 42.1875 67.84375 
Q 47.90625 62.640625 47.90625 54.6875 
Q 47.90625 49.703125 45.015625 45.53125 
Q 42.140625 41.359375 37.703125 38.96875 
Q 43.5625 36.71875 47.21875 31.390625 
Q 50.875 26.078125 50.875 20.015625 
Q 50.875 10.5 44.421875 4.640625 
Q 37.984375 -1.21875 27.78125 -1.21875 
Q 17.671875 -1.21875 11.203125 4.703125 
Q 4.734375 10.640625 4.734375 20.015625 
M 12.640625 20.75 
Q 12.640625 13.71875 16.890625 9.546875 
Q 21.140625 5.375 27.828125 5.375 
Q 34.46875 5.375 38.78125 9.671875 
Q 43.109375 13.96875 43.109375 20.75 
Q 43.109375 27.046875 38.78125 31.421875 
Q 34.46875 35.796875 27.828125 35.796875 
Q 21.4375 35.796875 17.03125 31.5625 
Q 12.640625 27.34375 12.640625 20.75 
M 15.671875 54.046875 
Q 15.671875 48.828125 19.28125 45.3125 
Q 22.90625 41.796875 27.828125 41.796875 
Q 32.765625 41.796875 36.40625 45.3125 
Q 40.046875 48.828125 40.046875 54.046875 
Q 40.046875 59.421875 36.578125 62.90625 
Q 33.109375 66.40625 27.828125 66.40625 
Q 22.65625 66.40625 19.15625 62.953125 
Q 15.671875 59.515625 15.671875 54.046875 
" id="MalgunGothic-38"/>
       <path d="M 34.578125 25.53125 
L 7.234375 25.53125 
L 7.234375 31.734375 
L 34.578125 31.734375 
z
" id="MalgunGothic-2d"/>
       <path d="M 50.203125 67.140625 
Q 38.71875 46.96875 32.25 29.96875 
Q 25.78125 12.984375 24.21875 0 
L 15.765625 0 
Q 16.9375 8.296875 20.15625 18.375 
Q 23.390625 28.46875 28.359375 39.640625 
Q 33.34375 50.828125 41.109375 64.796875 
L 4.546875 64.796875 
L 4.546875 71.875 
L 50.203125 71.875 
z
" id="MalgunGothic-37"/>
      </defs>
      <g transform="translate(31.467188 322.176187)scale(0.1 -0.1)">
       <use xlink:href="#MalgunGothic-32"/>
       <use x="55.078125" xlink:href="#MalgunGothic-30"/>
       <use x="110.15625" xlink:href="#MalgunGothic-31"/>
       <use x="165.234375" xlink:href="#MalgunGothic-38"/>
       <use x="220.3125" xlink:href="#MalgunGothic-2d"/>
       <use x="261.328125" xlink:href="#MalgunGothic-31"/>
       <use x="316.40625" xlink:href="#MalgunGothic-30"/>
       <use x="371.484375" xlink:href="#MalgunGothic-2d"/>
       <use x="412.5" xlink:href="#MalgunGothic-31"/>
       <use x="467.578125" xlink:href="#MalgunGothic-37"/>
      </g>
     </g>
    </g>
    <g id="xtick_2">
     <g id="line2d_2">
      <g>
       <use style="stroke:#000000;stroke-width:0.8;" x="100.114286" xlink:href="#mf2f66259ca" y="307.584"/>
      </g>
     </g>
    </g>
    <g id="xtick_3">
     <g id="line2d_3">
      <g>
       <use style="stroke:#000000;stroke-width:0.8;" x="142.628571" xlink:href="#mf2f66259ca" y="307.584"/>
      </g>
     </g>
     <g id="text_2">
      <!-- 2018-10-24 -->
      <defs>
       <path d="M 42.234375 71.875 
L 42.234375 24.421875 
L 51.703125 24.421875 
L 51.703125 17.390625 
L 42.234375 17.390625 
L 42.234375 0 
L 34.578125 0 
L 34.578125 17.390625 
L 0.78125 17.390625 
L 0.78125 23.96875 
Q 11.375 35.890625 20.234375 48.578125 
Q 29.109375 61.28125 33.9375 71.875 
z
M 9.765625 24.421875 
L 34.578125 24.421875 
L 34.578125 59.859375 
Q 25.203125 43.5625 14.984375 30.953125 
z
" id="MalgunGothic-34"/>
      </defs>
      <g transform="translate(116.495759 322.176187)scale(0.1 -0.1)">
       <use xlink:href="#MalgunGothic-32"/>
       <use x="55.078125" xlink:href="#MalgunGothic-30"/>
       <use x="110.15625" xlink:href="#MalgunGothic-31"/>
       <use x="165.234375" xlink:href="#MalgunGothic-38"/>
       <use x="220.3125" xlink:href="#MalgunGothic-2d"/>
       <use x="261.328125" xlink:href="#MalgunGothic-31"/>
       <use x="316.40625" xlink:href="#MalgunGothic-30"/>
       <use x="371.484375" xlink:href="#MalgunGothic-2d"/>
       <use x="412.5" xlink:href="#MalgunGothic-32"/>
       <use x="467.578125" xlink:href="#MalgunGothic-34"/>
      </g>
     </g>
    </g>
    <g id="xtick_4">
     <g id="line2d_4">
      <g>
       <use style="stroke:#000000;stroke-width:0.8;" x="185.142857" xlink:href="#mf2f66259ca" y="307.584"/>
      </g>
     </g>
    </g>
    <g id="xtick_5">
     <g id="line2d_5">
      <g>
       <use style="stroke:#000000;stroke-width:0.8;" x="227.657143" xlink:href="#mf2f66259ca" y="307.584"/>
      </g>
     </g>
     <g id="text_3">
      <!-- 2018-10-31 -->
      <defs>
       <path d="M 6.5 11.234375 
Q 13.921875 5.375 23.09375 5.375 
Q 30.609375 5.375 35.21875 9.171875 
Q 39.84375 12.984375 39.84375 19.484375 
Q 39.84375 33.890625 19.578125 33.890625 
L 13.625 33.890625 
L 13.625 40.484375 
L 19.28125 40.484375 
Q 37.3125 40.484375 37.3125 53.953125 
Q 37.3125 66.40625 23.578125 66.40625 
Q 15.96875 66.40625 9.28125 61.1875 
L 9.28125 68.953125 
Q 16.109375 73.046875 25.53125 73.046875 
Q 34.125 73.046875 39.671875 68.3125 
Q 45.21875 63.578125 45.21875 55.953125 
Q 45.21875 41.84375 30.8125 37.640625 
L 30.8125 37.5 
Q 38.578125 36.8125 43.1875 32.078125 
Q 47.796875 27.34375 47.796875 20.3125 
Q 47.796875 10.5 40.6875 4.640625 
Q 33.59375 -1.21875 22.65625 -1.21875 
Q 12.59375 -1.21875 6.5 2.640625 
z
" id="MalgunGothic-33"/>
      </defs>
      <g transform="translate(201.52433 322.176187)scale(0.1 -0.1)">
       <use xlink:href="#MalgunGothic-32"/>
       <use x="55.078125" xlink:href="#MalgunGothic-30"/>
       <use x="110.15625" xlink:href="#MalgunGothic-31"/>
       <use x="165.234375" xlink:href="#MalgunGothic-38"/>
       <use x="220.3125" xlink:href="#MalgunGothic-2d"/>
       <use x="261.328125" xlink:href="#MalgunGothic-31"/>
       <use x="316.40625" xlink:href="#MalgunGothic-30"/>
       <use x="371.484375" xlink:href="#MalgunGothic-2d"/>
       <use x="412.5" xlink:href="#MalgunGothic-33"/>
       <use x="467.578125" xlink:href="#MalgunGothic-31"/>
      </g>
     </g>
    </g>
    <g id="xtick_6">
     <g id="line2d_6">
      <g>
       <use style="stroke:#000000;stroke-width:0.8;" x="270.171429" xlink:href="#mf2f66259ca" y="307.584"/>
      </g>
     </g>
    </g>
    <g id="xtick_7">
     <g id="line2d_7">
      <g>
       <use style="stroke:#000000;stroke-width:0.8;" x="312.685714" xlink:href="#mf2f66259ca" y="307.584"/>
      </g>
     </g>
     <g id="text_4">
      <!-- 2018-11-07 -->
      <g transform="translate(286.552902 322.176187)scale(0.1 -0.1)">
       <use xlink:href="#MalgunGothic-32"/>
       <use x="55.078125" xlink:href="#MalgunGothic-30"/>
       <use x="110.15625" xlink:href="#MalgunGothic-31"/>
       <use x="165.234375" xlink:href="#MalgunGothic-38"/>
       <use x="220.3125" xlink:href="#MalgunGothic-2d"/>
       <use x="261.328125" xlink:href="#MalgunGothic-31"/>
       <use x="316.40625" xlink:href="#MalgunGothic-31"/>
       <use x="371.484375" xlink:href="#MalgunGothic-2d"/>
       <use x="412.5" xlink:href="#MalgunGothic-30"/>
       <use x="467.578125" xlink:href="#MalgunGothic-37"/>
      </g>
     </g>
    </g>
    <g id="xtick_8">
     <g id="line2d_8">
      <g>
       <use style="stroke:#000000;stroke-width:0.8;" x="355.2" xlink:href="#mf2f66259ca" y="307.584"/>
      </g>
     </g>
    </g>
    <g id="xtick_9">
     <g id="line2d_9">
      <g>
       <use style="stroke:#000000;stroke-width:0.8;" x="397.714286" xlink:href="#mf2f66259ca" y="307.584"/>
      </g>
     </g>
     <g id="text_5">
      <!-- 2018-11-14 -->
      <g transform="translate(371.581473 322.176187)scale(0.1 -0.1)">
       <use xlink:href="#MalgunGothic-32"/>
       <use x="55.078125" xlink:href="#MalgunGothic-30"/>
       <use x="110.15625" xlink:href="#MalgunGothic-31"/>
       <use x="165.234375" xlink:href="#MalgunGothic-38"/>
       <use x="220.3125" xlink:href="#MalgunGothic-2d"/>
       <use x="261.328125" xlink:href="#MalgunGothic-31"/>
       <use x="316.40625" xlink:href="#MalgunGothic-31"/>
       <use x="371.484375" xlink:href="#MalgunGothic-2d"/>
       <use x="412.5" xlink:href="#MalgunGothic-31"/>
       <use x="467.578125" xlink:href="#MalgunGothic-34"/>
      </g>
     </g>
    </g>
    <g id="text_6">
     <!-- date -->
     <defs>
      <path d="M 51.765625 0 
L 44.09375 0 
L 44.09375 8.84375 
L 43.890625 8.84375 
Q 38.1875 -1.21875 26.171875 -1.21875 
Q 16.5 -1.21875 10.71875 5.6875 
Q 4.9375 12.59375 4.9375 24.46875 
Q 4.9375 37.109375 11.375 44.796875 
Q 17.828125 52.484375 28.375 52.484375 
Q 38.96875 52.484375 43.890625 44.09375 
L 44.09375 44.09375 
L 44.09375 75.921875 
L 51.765625 75.921875 
z
M 44.09375 30.90625 
Q 44.09375 37.15625 39.84375 41.546875 
Q 35.59375 45.953125 29.25 45.953125 
Q 21.625 45.953125 17.203125 40.265625 
Q 12.796875 34.578125 12.796875 24.859375 
Q 12.796875 16.015625 16.96875 10.6875 
Q 21.140625 5.375 28.328125 5.375 
Q 35.15625 5.375 39.625 10.40625 
Q 44.09375 15.4375 44.09375 23.09375 
z
" id="MalgunGothic-64"/>
      <path d="M 9.625 47.65625 
Q 17.140625 52.484375 26.90625 52.484375 
Q 44.78125 52.484375 44.78125 33.546875 
L 44.78125 0 
L 37.015625 0 
L 37.015625 8.0625 
L 36.71875 8.0625 
Q 31.390625 -1.21875 20.953125 -1.21875 
Q 13.421875 -1.21875 9 2.8125 
Q 4.59375 6.84375 4.59375 13.578125 
Q 4.59375 27.875 21.484375 30.21875 
L 36.96875 32.46875 
Q 36.96875 45.84375 26.3125 45.84375 
Q 16.9375 45.84375 9.625 39.453125 
z
M 24.421875 24.359375 
Q 18.40625 23.578125 15.515625 21.421875 
Q 12.640625 19.28125 12.640625 14.109375 
Q 12.640625 10.203125 15.40625 7.8125 
Q 18.171875 5.421875 22.65625 5.421875 
Q 28.859375 5.421875 32.90625 9.8125 
Q 36.96875 14.203125 36.96875 20.84375 
L 36.96875 26.03125 
z
" id="MalgunGothic-61"/>
      <path d="M 31.734375 0.484375 
Q 28.8125 -1.125 24.265625 -1.125 
Q 11.03125 -1.125 11.03125 13.765625 
L 11.03125 44.625 
L 2.15625 44.625 
L 2.15625 51.3125 
L 11.03125 51.3125 
L 11.03125 63.921875 
L 18.75 66.40625 
L 18.75 51.3125 
L 31.734375 51.3125 
L 31.734375 44.625 
L 18.75 44.625 
L 18.75 15.1875 
Q 18.75 9.765625 20.546875 7.609375 
Q 22.359375 5.46875 26.421875 5.46875 
Q 29.5 5.46875 31.734375 7.171875 
z
" id="MalgunGothic-74"/>
      <path d="M 49.3125 23.734375 
L 12.9375 23.734375 
Q 13.1875 14.84375 17.703125 10.125 
Q 22.21875 5.421875 29.828125 5.421875 
Q 38.625 5.421875 45.84375 11.234375 
L 45.84375 3.8125 
Q 38.96875 -1.21875 28.03125 -1.21875 
Q 17.1875 -1.21875 11.0625 5.875 
Q 4.9375 12.984375 4.9375 25.53125 
Q 4.9375 37.203125 11.671875 44.84375 
Q 18.40625 52.484375 28.375 52.484375 
Q 38.328125 52.484375 43.8125 45.96875 
Q 49.3125 39.453125 49.3125 27.9375 
z
M 41.3125 30.5625 
Q 41.3125 37.75 37.859375 41.796875 
Q 34.421875 45.84375 28.265625 45.84375 
Q 22.46875 45.84375 18.265625 41.671875 
Q 14.0625 37.5 13.03125 30.5625 
z
" id="MalgunGothic-65"/>
     </defs>
     <g transform="translate(226.150625 336.132437)scale(0.1 -0.1)">
      <use xlink:href="#MalgunGothic-64"/>
      <use x="60.205078" xlink:href="#MalgunGothic-61"/>
      <use x="112.207031" xlink:href="#MalgunGothic-74"/>
      <use x="146.679688" xlink:href="#MalgunGothic-65"/>
     </g>
    </g>
   </g>
   <g id="matplotlib.axis_2">
    <g id="ytick_1">
     <g id="line2d_10">
      <defs>
       <path d="M 0 0 
L -3.5 0 
" id="md255b5028e" style="stroke:#000000;stroke-width:0.8;"/>
      </defs>
      <g>
       <use style="stroke:#000000;stroke-width:0.8;" x="57.6" xlink:href="#md255b5028e" y="252.227012"/>
      </g>
     </g>
     <g id="text_7">
      <!-- 100000 -->
      <g transform="translate(17.553125 256.023106)scale(0.1 -0.1)">
       <use xlink:href="#MalgunGothic-31"/>
       <use x="55.078125" xlink:href="#MalgunGothic-30"/>
       <use x="110.15625" xlink:href="#MalgunGothic-30"/>
       <use x="165.234375" xlink:href="#MalgunGothic-30"/>
       <use x="220.3125" xlink:href="#MalgunGothic-30"/>
       <use x="275.390625" xlink:href="#MalgunGothic-30"/>
      </g>
     </g>
    </g>
    <g id="ytick_2">
     <g id="line2d_11">
      <g>
       <use style="stroke:#000000;stroke-width:0.8;" x="57.6" xlink:href="#md255b5028e" y="195.304659"/>
      </g>
     </g>
     <g id="text_8">
      <!-- 150000 -->
      <defs>
       <path d="M 48 21.921875 
Q 48 11.28125 41.1875 5.03125 
Q 34.375 -1.21875 22.953125 -1.21875 
Q 12.9375 -1.21875 8.0625 1.765625 
L 8.0625 10.15625 
Q 15.53125 5.375 23.046875 5.375 
Q 30.765625 5.375 35.46875 9.84375 
Q 40.1875 14.3125 40.1875 21.4375 
Q 40.1875 28.71875 35.390625 32.6875 
Q 30.609375 36.671875 21.578125 36.671875 
Q 15.53125 36.671875 9.421875 35.9375 
L 11.859375 71.875 
L 44.828125 71.875 
L 44.828125 64.796875 
L 18.84375 64.796875 
L 17.28125 43.171875 
Q 21.046875 43.5 24.171875 43.5 
Q 35.359375 43.5 41.671875 37.71875 
Q 48 31.9375 48 21.921875 
" id="MalgunGothic-35"/>
      </defs>
      <g transform="translate(17.553125 199.100753)scale(0.1 -0.1)">
       <use xlink:href="#MalgunGothic-31"/>
       <use x="55.078125" xlink:href="#MalgunGothic-35"/>
       <use x="110.15625" xlink:href="#MalgunGothic-30"/>
       <use x="165.234375" xlink:href="#MalgunGothic-30"/>
       <use x="220.3125" xlink:href="#MalgunGothic-30"/>
       <use x="275.390625" xlink:href="#MalgunGothic-30"/>
      </g>
     </g>
    </g>
    <g id="ytick_3">
     <g id="line2d_12">
      <g>
       <use style="stroke:#000000;stroke-width:0.8;" x="57.6" xlink:href="#md255b5028e" y="138.382306"/>
      </g>
     </g>
     <g id="text_9">
      <!-- 200000 -->
      <g transform="translate(17.553125 142.1784)scale(0.1 -0.1)">
       <use xlink:href="#MalgunGothic-32"/>
       <use x="55.078125" xlink:href="#MalgunGothic-30"/>
       <use x="110.15625" xlink:href="#MalgunGothic-30"/>
       <use x="165.234375" xlink:href="#MalgunGothic-30"/>
       <use x="220.3125" xlink:href="#MalgunGothic-30"/>
       <use x="275.390625" xlink:href="#MalgunGothic-30"/>
      </g>
     </g>
    </g>
    <g id="ytick_4">
     <g id="line2d_13">
      <g>
       <use style="stroke:#000000;stroke-width:0.8;" x="57.6" xlink:href="#md255b5028e" y="81.459953"/>
      </g>
     </g>
     <g id="text_10">
      <!-- 250000 -->
      <g transform="translate(17.553125 85.256047)scale(0.1 -0.1)">
       <use xlink:href="#MalgunGothic-32"/>
       <use x="55.078125" xlink:href="#MalgunGothic-35"/>
       <use x="110.15625" xlink:href="#MalgunGothic-30"/>
       <use x="165.234375" xlink:href="#MalgunGothic-30"/>
       <use x="220.3125" xlink:href="#MalgunGothic-30"/>
       <use x="275.390625" xlink:href="#MalgunGothic-30"/>
      </g>
     </g>
    </g>
   </g>
   <g id="line2d_14">
    <path clip-path="url(#p9225d87ce5)" d="M 57.6 291.161901 
L 74.605714 291.61728 
L 91.611429 292.300348 
L 108.617143 292.300348 
L 125.622857 293.894174 
L 142.628571 292.755727 
L 159.634286 292.755727 
L 176.64 295.488 
L 193.645714 294.577242 
L 210.651429 293.894174 
L 227.657143 290.592678 
L 244.662857 291.844969 
L 261.668571 289.795765 
L 278.674286 290.706522 
L 295.68 290.023454 
L 312.685714 289.909609 
L 329.691429 289.454231 
L 346.697143 288.771162 
L 363.702857 287.518871 
L 380.708571 288.543473 
L 397.714286 287.632715 
L 414.72 287.632715 
" style="fill:none;stroke:#1f77b4;stroke-linecap:square;stroke-width:1.5;"/>
   </g>
   <g id="line2d_15">
    <path clip-path="url(#p9225d87ce5)" d="M 57.6 56.983341 
L 74.605714 59.829459 
L 91.611429 59.260235 
L 108.617143 60.967906 
L 125.622857 70.644706 
L 142.628571 66.090918 
L 159.634286 65.521694 
L 176.64 70.644706 
L 193.645714 71.783153 
L 210.651429 74.060047 
L 227.657143 68.367812 
L 244.662857 75.198494 
L 261.668571 67.798588 
L 278.674286 74.629271 
L 295.68 71.783153 
L 312.685714 63.2448 
L 329.691429 64.383247 
L 346.697143 67.798588 
L 363.702857 54.706447 
L 380.708571 56.983341 
L 397.714286 59.260235 
L 414.72 53.568 
" style="fill:none;stroke:#ff7f0e;stroke-linecap:square;stroke-width:1.5;"/>
   </g>
   <g id="patch_3">
    <path d="M 57.6 307.584 
L 57.6 41.472 
" style="fill:none;stroke:#000000;stroke-linecap:square;stroke-linejoin:miter;stroke-width:0.8;"/>
   </g>
   <g id="patch_4">
    <path d="M 414.72 307.584 
L 414.72 41.472 
" style="fill:none;stroke:#000000;stroke-linecap:square;stroke-linejoin:miter;stroke-width:0.8;"/>
   </g>
   <g id="patch_5">
    <path d="M 57.6 307.584 
L 414.72 307.584 
" style="fill:none;stroke:#000000;stroke-linecap:square;stroke-linejoin:miter;stroke-width:0.8;"/>
   </g>
   <g id="patch_6">
    <path d="M 57.6 41.472 
L 414.72 41.472 
" style="fill:none;stroke:#000000;stroke-linecap:square;stroke-linejoin:miter;stroke-width:0.8;"/>
   </g>
   <g id="legend_1">
    <g id="patch_7">
     <path d="M 363.9075 190.98425 
L 407.72 190.98425 
Q 409.72 190.98425 409.72 188.98425 
L 409.72 160.07175 
Q 409.72 158.07175 407.72 158.07175 
L 363.9075 158.07175 
Q 361.9075 158.07175 361.9075 160.07175 
L 361.9075 188.98425 
Q 361.9075 190.98425 363.9075 190.98425 
z
" style="fill:#ffffff;opacity:0.8;stroke:#cccccc;stroke-linejoin:miter;"/>
    </g>
    <g id="line2d_16">
     <path d="M 365.9075 166.163937 
L 385.9075 166.163937 
" style="fill:none;stroke:#1f77b4;stroke-linecap:square;stroke-width:1.5;"/>
    </g>
    <g id="line2d_17"/>
    <g id="text_11">
     <!-- LG -->
     <defs>
      <path d="M 46.4375 0 
L 9.515625 0 
L 9.515625 71.875 
L 17.390625 71.875 
L 17.390625 7.234375 
L 46.4375 7.234375 
z
" id="MalgunGothic-4c"/>
      <path d="M 62.84375 4.9375 
Q 52.09375 -1.21875 38.921875 -1.21875 
Q 23.828125 -1.21875 14.296875 8.71875 
Q 4.78125 18.65625 4.78125 34.96875 
Q 4.78125 51.609375 15.296875 62.328125 
Q 25.828125 73.046875 41.890625 73.046875 
Q 53.953125 73.046875 61.53125 69.1875 
L 61.53125 60.25 
Q 52.828125 65.765625 40.921875 65.765625 
Q 28.71875 65.765625 20.90625 57.359375 
Q 13.09375 48.96875 13.09375 35.59375 
Q 13.09375 21.734375 20.3125 13.859375 
Q 27.546875 6 40.046875 6 
Q 48.875 6 54.9375 9.46875 
L 54.9375 30.03125 
L 39.109375 30.03125 
L 39.109375 37.25 
L 62.84375 37.25 
z
" id="MalgunGothic-47"/>
     </defs>
     <g transform="translate(393.9075 169.663937)scale(0.1 -0.1)">
      <use xlink:href="#MalgunGothic-4c"/>
      <use x="47.951172" xlink:href="#MalgunGothic-47"/>
     </g>
    </g>
    <g id="line2d_18">
     <path d="M 365.9075 181.120187 
L 385.9075 181.120187 
" style="fill:none;stroke:#ff7f0e;stroke-linecap:square;stroke-width:1.5;"/>
    </g>
    <g id="line2d_19"/>
    <g id="text_12">
     <!-- SK -->
     <defs>
      <path d="M 6.15625 12.453125 
Q 9.46875 9.578125 15.0625 7.8125 
Q 20.65625 6.0625 25.390625 6.0625 
Q 41.0625 6.0625 41.0625 17.4375 
Q 41.0625 20.703125 39.421875 23.1875 
Q 37.796875 25.6875 35.15625 27.4375 
Q 32.515625 29.203125 24.171875 33.5 
Q 14.109375 38.671875 10.171875 43.03125 
Q 6.25 47.40625 6.25 54 
Q 6.25 62.796875 13.40625 67.921875 
Q 20.5625 73.046875 31.0625 73.046875 
Q 41.703125 73.046875 46.296875 70.515625 
L 46.296875 61.375 
Q 40.046875 65.71875 30.03125 65.71875 
Q 23.1875 65.71875 18.859375 62.78125 
Q 14.546875 59.859375 14.546875 54.6875 
Q 14.546875 50 17.59375 47.046875 
Q 20.65625 44.09375 30.28125 39.40625 
Q 41.5 33.796875 45.40625 28.8125 
Q 49.3125 23.828125 49.3125 18.015625 
Q 49.3125 8.6875 42.578125 3.734375 
Q 35.84375 -1.21875 23.921875 -1.21875 
Q 20.171875 -1.21875 14.484375 -0.015625 
Q 8.796875 1.171875 6.15625 2.9375 
z
" id="MalgunGothic-53"/>
      <path d="M 58.890625 0 
L 47.703125 0 
L 19.53125 32.953125 
Q 17.96875 34.765625 17.625 35.359375 
L 17.390625 35.359375 
L 17.390625 0 
L 9.515625 0 
L 9.515625 71.875 
L 17.390625 71.875 
L 17.390625 38.09375 
L 17.625 38.09375 
Q 18.359375 39.203125 19.53125 40.4375 
L 46.875 71.875 
L 56.6875 71.875 
L 25.53125 37.40625 
z
" id="MalgunGothic-4b"/>
     </defs>
     <g transform="translate(393.9075 184.620187)scale(0.1 -0.1)">
      <use xlink:href="#MalgunGothic-53"/>
      <use x="54.296875" xlink:href="#MalgunGothic-4b"/>
     </g>
    </g>
   </g>
  </g>
 </g>
 <defs>
  <clipPath id="p9225d87ce5">
   <rect height="266.112" width="357.12" x="57.6" y="41.472"/>
  </clipPath>
 </defs>
</svg>
