<?xml version="1.0" encoding="utf-8" standalone="no"?>
<!DOCTYPE svg PUBLIC "-//W3C//DTD SVG 1.1//EN"
  "http://www.w3.org/Graphics/SVG/1.1/DTD/svg11.dtd">
<!-- Created with matplotlib (https://matplotlib.org/) -->
<svg height="345.6pt" version="1.1" viewBox="0 0 460.8 345.6" width="460.8pt" xmlns="http://www.w3.org/2000/svg" xmlns:xlink="http://www.w3.org/1999/xlink">
 <metadata>
  <rdf:RDF xmlns:cc="http://creativecommons.org/ns#" xmlns:dc="http://purl.org/dc/elements/1.1/" xmlns:rdf="http://www.w3.org/1999/02/22-rdf-syntax-ns#">
   <cc:Work>
    <dc:type rdf:resource="http://purl.org/dc/dcmitype/StillImage"/>
    <dc:date>2020-12-22T21:14:11.608140</dc:date>
    <dc:format>image/svg+xml</dc:format>
    <dc:creator>
     <cc:Agent>
      <dc:title>Matplotlib v3.3.1, https://matplotlib.org/</dc:title>
     </cc:Agent>
    </dc:creator>
   </cc:Work>
  </rdf:RDF>
 </metadata>
 <defs>
  <style type="text/css">*{stroke-linecap:butt;stroke-linejoin:round;}</style>
 </defs>
 <g id="figure_1">
  <g id="patch_1">
   <path d="M 0 345.6 
L 460.8 345.6 
L 460.8 0 
L 0 0 
z
" style="fill:#ffffff;"/>
  </g>
  <g id="axes_1">
   <g id="patch_2">
    <path d="M 57.6 307.584 
L 414.72 307.584 
L 414.72 41.472 
L 57.6 41.472 
z
" style="fill:#ffffff;"/>
   </g>
   <g id="matplotlib.axis_1">
    <g id="xtick_1">
     <g id="line2d_1">
      <defs>
       <path d="M 0 0 
L 0 3.5 
" id="m1345058b86" style="stroke:#000000;stroke-width:0.8;"/>
      </defs>
      <g>
       <use style="stroke:#000000;stroke-width:0.8;" x="57.6" xlink:href="#m1345058b86" y="307.584"/>
      </g>
     </g>
    </g>
    <g id="xtick_2">
     <g id="line2d_2">
      <g>
       <use style="stroke:#000000;stroke-width:0.8;" x="203.694545" xlink:href="#m1345058b86" y="307.584"/>
      </g>
     </g>
     <g id="text_1">
      <!--  -->
      <g transform="translate(203.694545 322.176187)scale(0.1 -0.1)"/>
      <!--  -->
      <g transform="translate(203.694545 333.650875)scale(0.1 -0.1)"/>
      <!-- Nov -->
      <g transform="translate(194.436733 345.125563)scale(0.1 -0.1)">
       <defs>
        <path d="M 67 0 
L 57.078125 0 
L 19.578125 58.015625 
Q 18.40625 59.8125 17.328125 62.5 
L 17.09375 62.5 
Q 17.4375 59.71875 17.4375 52.6875 
L 17.4375 0 
L 9.515625 0 
L 9.515625 71.875 
L 19.96875 71.875 
L 56.453125 14.65625 
Q 58.984375 10.6875 59.328125 9.90625 
L 59.515625 9.90625 
Q 58.984375 13.484375 58.984375 20.5625 
L 58.984375 71.875 
L 67 71.875 
z
" id="MalgunGothic-78"/>
        <path d="M 4.9375 25 
Q 4.9375 37.796875 11.890625 45.140625 
Q 18.84375 52.484375 30.90625 52.484375 
Q 42.140625 52.484375 48.609375 45.421875 
Q 55.078125 38.375 55.078125 25.78125 
Q 55.078125 13.578125 48.09375 6.171875 
Q 41.109375 -1.21875 29.6875 -1.21875 
Q 18.5 -1.21875 11.71875 6 
Q 4.9375 13.234375 4.9375 25 
z
M 12.796875 25.34375 
Q 12.796875 16.265625 17.546875 10.8125 
Q 22.3125 5.375 30.21875 5.375 
Q 38.421875 5.375 42.796875 10.625 
Q 47.171875 15.875 47.171875 25.53125 
Q 47.171875 35.25 42.765625 40.59375 
Q 38.375 45.953125 30.21875 45.953125 
Q 22.265625 45.953125 17.53125 40.421875 
Q 12.796875 34.90625 12.796875 25.34375 
z
" id="MalgunGothic-111"/>
        <path d="M 48.1875 51.3125 
L 27.640625 0 
L 20.21875 0 
L 0.734375 51.3125 
L 9.28125 51.3125 
L 22.515625 13.625 
Q 23.921875 9.515625 24.3125 6.640625 
L 24.5625 6.640625 
Q 25.046875 10.453125 26.125 13.484375 
L 40.046875 51.3125 
z
" id="MalgunGothic-118"/>
       </defs>
       <use xlink:href="#MalgunGothic-78"/>
       <use x="76.513672" xlink:href="#MalgunGothic-111"/>
       <use x="136.425781" xlink:href="#MalgunGothic-118"/>
      </g>
      <!-- 2020 -->
      <g transform="translate(192.67892 356.60025)scale(0.1 -0.1)">
       <defs>
        <path d="M 39.359375 52.6875 
Q 39.359375 59.125 35.546875 62.78125 
Q 31.734375 66.453125 25.4375 66.453125 
Q 20.953125 66.453125 16.453125 64.125 
Q 11.96875 61.8125 8.34375 57.765625 
L 8.34375 66.15625 
Q 15.328125 73.046875 26.421875 73.046875 
Q 35.640625 73.046875 41.28125 67.71875 
Q 46.921875 62.40625 46.921875 53.375 
Q 46.921875 45.609375 43.3125 39.765625 
Q 39.703125 33.9375 31 27.734375 
Q 22.796875 21.96875 19.59375 18.984375 
Q 16.40625 16.015625 15.109375 13.34375 
Q 13.8125 10.6875 13.8125 7.03125 
L 48.6875 7.03125 
L 48.6875 0 
L 5.5625 0 
L 5.5625 3.515625 
Q 5.5625 9.421875 7.203125 13.59375 
Q 8.84375 17.78125 12.671875 21.75 
Q 16.5 25.734375 24.953125 31.59375 
Q 32.671875 36.921875 36.015625 41.71875 
Q 39.359375 46.53125 39.359375 52.6875 
z
" id="MalgunGothic-50"/>
        <path d="M 4.34375 34.46875 
Q 4.34375 53.515625 10.546875 63.28125 
Q 16.75 73.046875 28.421875 73.046875 
Q 50.828125 73.046875 50.828125 36.234375 
Q 50.828125 18.0625 44.59375 8.421875 
Q 38.375 -1.21875 26.8125 -1.21875 
Q 15.875 -1.21875 10.109375 8.125 
Q 4.34375 17.484375 4.34375 34.46875 
z
M 12.25 34.859375 
Q 12.25 5.375 27.640625 5.375 
Q 42.921875 5.375 42.921875 35.296875 
Q 42.921875 66.40625 28.03125 66.40625 
Q 12.25 66.40625 12.25 34.859375 
z
" id="MalgunGothic-48"/>
       </defs>
       <use xlink:href="#MalgunGothic-50"/>
       <use x="55.078125" xlink:href="#MalgunGothic-48"/>
       <use x="110.15625" xlink:href="#MalgunGothic-50"/>
       <use x="165.234375" xlink:href="#MalgunGothic-48"/>
      </g>
     </g>
    </g>
    <g id="xtick_3">
     <g id="line2d_3">
      <g>
       <use style="stroke:#000000;stroke-width:0.8;" x="414.72" xlink:href="#m1345058b86" y="307.584"/>
      </g>
     </g>
    </g>
    <g id="xtick_4">
     <g id="line2d_4">
      <defs>
       <path d="M 0 0 
L 0 2 
" id="m67d929c3bc" style="stroke:#000000;stroke-width:0.6;"/>
      </defs>
      <g>
       <use style="stroke:#000000;stroke-width:0.6;" x="73.832727" xlink:href="#m67d929c3bc" y="307.584"/>
      </g>
     </g>
    </g>
    <g id="xtick_5">
     <g id="line2d_5">
      <g>
       <use style="stroke:#000000;stroke-width:0.6;" x="90.065455" xlink:href="#m67d929c3bc" y="307.584"/>
      </g>
     </g>
    </g>
    <g id="xtick_6">
     <g id="line2d_6">
      <g>
       <use style="stroke:#000000;stroke-width:0.6;" x="106.298182" xlink:href="#m67d929c3bc" y="307.584"/>
      </g>
     </g>
    </g>
    <g id="xtick_7">
     <g id="line2d_7">
      <g>
       <use style="stroke:#000000;stroke-width:0.6;" x="122.530909" xlink:href="#m67d929c3bc" y="307.584"/>
      </g>
     </g>
     <g id="text_2">
      <!-- 26 -->
      <g transform="translate(117.023097 320.576187)scale(0.1 -0.1)">
       <defs>
        <path d="M 46.578125 63.578125 
Q 40.921875 66.40625 34.8125 66.40625 
Q 24.859375 66.40625 19.1875 57.640625 
Q 13.53125 48.875 13.578125 34.578125 
L 13.8125 34.578125 
Q 18.796875 44.875 30.28125 44.875 
Q 39.796875 44.875 45.359375 38.71875 
Q 50.921875 32.5625 50.921875 22.65625 
Q 50.921875 12.453125 44.640625 5.609375 
Q 38.375 -1.21875 28.515625 -1.21875 
Q 17.4375 -1.21875 11.5 7.46875 
Q 5.5625 16.15625 5.5625 31.546875 
Q 5.5625 49.703125 13.234375 61.375 
Q 20.90625 73.046875 34.71875 73.046875 
Q 42.1875 73.046875 46.578125 71 
z
M 14.15625 23.53125 
Q 14.15625 15.96875 18.203125 10.671875 
Q 22.265625 5.375 28.8125 5.375 
Q 35.109375 5.375 39.03125 10.078125 
Q 42.96875 14.796875 42.96875 21.6875 
Q 42.96875 29.5 39.203125 33.859375 
Q 35.453125 38.234375 28.71875 38.234375 
Q 22.5625 38.234375 18.359375 33.953125 
Q 14.15625 29.6875 14.15625 23.53125 
z
" id="MalgunGothic-54"/>
       </defs>
       <use xlink:href="#MalgunGothic-50"/>
       <use x="55.078125" xlink:href="#MalgunGothic-54"/>
      </g>
     </g>
    </g>
    <g id="xtick_8">
     <g id="line2d_8">
      <g>
       <use style="stroke:#000000;stroke-width:0.6;" x="138.763636" xlink:href="#m67d929c3bc" y="307.584"/>
      </g>
     </g>
    </g>
    <g id="xtick_9">
     <g id="line2d_9">
      <g>
       <use style="stroke:#000000;stroke-width:0.6;" x="154.996364" xlink:href="#m67d929c3bc" y="307.584"/>
      </g>
     </g>
    </g>
    <g id="xtick_10">
     <g id="line2d_10">
      <g>
       <use style="stroke:#000000;stroke-width:0.6;" x="171.229091" xlink:href="#m67d929c3bc" y="307.584"/>
      </g>
     </g>
    </g>
    <g id="xtick_11">
     <g id="line2d_11">
      <g>
       <use style="stroke:#000000;stroke-width:0.6;" x="187.461818" xlink:href="#m67d929c3bc" y="307.584"/>
      </g>
     </g>
    </g>
    <g id="xtick_12">
     <g id="line2d_12">
      <g>
       <use style="stroke:#000000;stroke-width:0.6;" x="219.927273" xlink:href="#m67d929c3bc" y="307.584"/>
      </g>
     </g>
    </g>
    <g id="xtick_13">
     <g id="line2d_13">
      <g>
       <use style="stroke:#000000;stroke-width:0.6;" x="236.16" xlink:href="#m67d929c3bc" y="307.584"/>
      </g>
     </g>
    </g>
    <g id="xtick_14">
     <g id="line2d_14">
      <g>
       <use style="stroke:#000000;stroke-width:0.6;" x="252.392727" xlink:href="#m67d929c3bc" y="307.584"/>
      </g>
     </g>
    </g>
    <g id="xtick_15">
     <g id="line2d_15">
      <g>
       <use style="stroke:#000000;stroke-width:0.6;" x="268.625455" xlink:href="#m67d929c3bc" y="307.584"/>
      </g>
     </g>
    </g>
    <g id="xtick_16">
     <g id="line2d_16">
      <g>
       <use style="stroke:#000000;stroke-width:0.6;" x="284.858182" xlink:href="#m67d929c3bc" y="307.584"/>
      </g>
     </g>
     <g id="text_3">
      <!-- 09 -->
      <g transform="translate(279.350369 320.576187)scale(0.1 -0.1)">
       <defs>
        <path d="M 8.6875 8.796875 
Q 14.703125 5.375 21.34375 5.375 
Q 31.15625 5.375 36.671875 13.359375 
Q 42.1875 21.34375 42.1875 36.140625 
Q 42.09375 36.03125 42 36.140625 
Q 37.3125 26.765625 25.828125 26.765625 
Q 16.546875 26.765625 10.65625 33.125 
Q 4.78125 39.5 4.78125 49.125 
Q 4.78125 59.46875 11.109375 66.25 
Q 17.4375 73.046875 27.6875 73.046875 
Q 38.53125 73.046875 44.265625 64.546875 
Q 50 56.0625 50 40.28125 
Q 50 20.609375 42.453125 9.6875 
Q 34.90625 -1.21875 21 -1.21875 
Q 13.765625 -1.21875 8.6875 1.21875 
z
M 12.703125 50.296875 
Q 12.703125 42.828125 16.609375 38.28125 
Q 20.515625 33.734375 27.484375 33.734375 
Q 33.546875 33.734375 37.59375 37.765625 
Q 41.65625 41.796875 41.65625 47.609375 
Q 41.65625 55.5625 37.671875 60.984375 
Q 33.6875 66.40625 26.953125 66.40625 
Q 20.65625 66.40625 16.671875 61.6875 
Q 12.703125 56.984375 12.703125 50.296875 
z
" id="MalgunGothic-57"/>
       </defs>
       <use xlink:href="#MalgunGothic-48"/>
       <use x="55.078125" xlink:href="#MalgunGothic-57"/>
      </g>
     </g>
    </g>
    <g id="xtick_17">
     <g id="line2d_17">
      <g>
       <use style="stroke:#000000;stroke-width:0.6;" x="301.090909" xlink:href="#m67d929c3bc" y="307.584"/>
      </g>
     </g>
    </g>
    <g id="xtick_18">
     <g id="line2d_18">
      <g>
       <use style="stroke:#000000;stroke-width:0.6;" x="317.323636" xlink:href="#m67d929c3bc" y="307.584"/>
      </g>
     </g>
    </g>
    <g id="xtick_19">
     <g id="line2d_19">
      <g>
       <use style="stroke:#000000;stroke-width:0.6;" x="333.556364" xlink:href="#m67d929c3bc" y="307.584"/>
      </g>
     </g>
    </g>
    <g id="xtick_20">
     <g id="line2d_20">
      <g>
       <use style="stroke:#000000;stroke-width:0.6;" x="349.789091" xlink:href="#m67d929c3bc" y="307.584"/>
      </g>
     </g>
    </g>
    <g id="xtick_21">
     <g id="line2d_21">
      <g>
       <use style="stroke:#000000;stroke-width:0.6;" x="366.021818" xlink:href="#m67d929c3bc" y="307.584"/>
      </g>
     </g>
     <g id="text_4">
      <!-- 16 -->
      <g transform="translate(360.514006 320.576187)scale(0.1 -0.1)">
       <defs>
        <path d="M 34.859375 0 
L 27.09375 0 
L 27.09375 62.0625 
Q 24.859375 59.8125 19.78125 57.203125 
Q 14.703125 54.59375 10.5 53.5625 
L 10.5 61.859375 
Q 15.875 63.375 22.015625 66.796875 
Q 28.171875 70.21875 31.734375 73.4375 
L 34.859375 73.4375 
z
" id="MalgunGothic-49"/>
       </defs>
       <use xlink:href="#MalgunGothic-49"/>
       <use x="55.078125" xlink:href="#MalgunGothic-54"/>
      </g>
     </g>
    </g>
    <g id="xtick_22">
     <g id="line2d_22">
      <g>
       <use style="stroke:#000000;stroke-width:0.6;" x="382.254545" xlink:href="#m67d929c3bc" y="307.584"/>
      </g>
     </g>
    </g>
    <g id="xtick_23">
     <g id="line2d_23">
      <g>
       <use style="stroke:#000000;stroke-width:0.6;" x="398.487273" xlink:href="#m67d929c3bc" y="307.584"/>
      </g>
     </g>
    </g>
   </g>
   <g id="matplotlib.axis_2">
    <g id="ytick_1">
     <g id="line2d_24">
      <defs>
       <path d="M 0 0 
L -3.5 0 
" id="mf719f26251" style="stroke:#000000;stroke-width:0.8;"/>
      </defs>
      <g>
       <use style="stroke:#000000;stroke-width:0.8;" x="57.6" xlink:href="#mf719f26251" y="274.604576"/>
      </g>
     </g>
     <g id="text_5">
      <!-- 100000 -->
      <g transform="translate(17.553125 278.40067)scale(0.1 -0.1)">
       <use xlink:href="#MalgunGothic-49"/>
       <use x="55.078125" xlink:href="#MalgunGothic-48"/>
       <use x="110.15625" xlink:href="#MalgunGothic-48"/>
       <use x="165.234375" xlink:href="#MalgunGothic-48"/>
       <use x="220.3125" xlink:href="#MalgunGothic-48"/>
       <use x="275.390625" xlink:href="#MalgunGothic-48"/>
      </g>
     </g>
    </g>
    <g id="ytick_2">
     <g id="line2d_25">
      <g>
       <use style="stroke:#000000;stroke-width:0.8;" x="57.6" xlink:href="#mf719f26251" y="239.740763"/>
      </g>
     </g>
     <g id="text_6">
      <!-- 200000 -->
      <g transform="translate(17.553125 243.536856)scale(0.1 -0.1)">
       <use xlink:href="#MalgunGothic-50"/>
       <use x="55.078125" xlink:href="#MalgunGothic-48"/>
       <use x="110.15625" xlink:href="#MalgunGothic-48"/>
       <use x="165.234375" xlink:href="#MalgunGothic-48"/>
       <use x="220.3125" xlink:href="#MalgunGothic-48"/>
       <use x="275.390625" xlink:href="#MalgunGothic-48"/>
      </g>
     </g>
    </g>
    <g id="ytick_3">
     <g id="line2d_26">
      <g>
       <use style="stroke:#000000;stroke-width:0.8;" x="57.6" xlink:href="#mf719f26251" y="204.876949"/>
      </g>
     </g>
     <g id="text_7">
      <!-- 300000 -->
      <g transform="translate(17.553125 208.673043)scale(0.1 -0.1)">
       <defs>
        <path d="M 6.5 11.234375 
Q 13.921875 5.375 23.09375 5.375 
Q 30.609375 5.375 35.21875 9.171875 
Q 39.84375 12.984375 39.84375 19.484375 
Q 39.84375 33.890625 19.578125 33.890625 
L 13.625 33.890625 
L 13.625 40.484375 
L 19.28125 40.484375 
Q 37.3125 40.484375 37.3125 53.953125 
Q 37.3125 66.40625 23.578125 66.40625 
Q 15.96875 66.40625 9.28125 61.1875 
L 9.28125 68.953125 
Q 16.109375 73.046875 25.53125 73.046875 
Q 34.125 73.046875 39.671875 68.3125 
Q 45.21875 63.578125 45.21875 55.953125 
Q 45.21875 41.84375 30.8125 37.640625 
L 30.8125 37.5 
Q 38.578125 36.8125 43.1875 32.078125 
Q 47.796875 27.34375 47.796875 20.3125 
Q 47.796875 10.5 40.6875 4.640625 
Q 33.59375 -1.21875 22.65625 -1.21875 
Q 12.59375 -1.21875 6.5 2.640625 
z
" id="MalgunGothic-51"/>
       </defs>
       <use xlink:href="#MalgunGothic-51"/>
       <use x="55.078125" xlink:href="#MalgunGothic-48"/>
       <use x="110.15625" xlink:href="#MalgunGothic-48"/>
       <use x="165.234375" xlink:href="#MalgunGothic-48"/>
       <use x="220.3125" xlink:href="#MalgunGothic-48"/>
       <use x="275.390625" xlink:href="#MalgunGothic-48"/>
      </g>
     </g>
    </g>
    <g id="ytick_4">
     <g id="line2d_27">
      <g>
       <use style="stroke:#000000;stroke-width:0.8;" x="57.6" xlink:href="#mf719f26251" y="170.013136"/>
      </g>
     </g>
     <g id="text_8">
      <!-- 400000 -->
      <g transform="translate(17.553125 173.80923)scale(0.1 -0.1)">
       <defs>
        <path d="M 42.234375 71.875 
L 42.234375 24.421875 
L 51.703125 24.421875 
L 51.703125 17.390625 
L 42.234375 17.390625 
L 42.234375 0 
L 34.578125 0 
L 34.578125 17.390625 
L 0.78125 17.390625 
L 0.78125 23.96875 
Q 11.375 35.890625 20.234375 48.578125 
Q 29.109375 61.28125 33.9375 71.875 
z
M 9.765625 24.421875 
L 34.578125 24.421875 
L 34.578125 59.859375 
Q 25.203125 43.5625 14.984375 30.953125 
z
" id="MalgunGothic-52"/>
       </defs>
       <use xlink:href="#MalgunGothic-52"/>
       <use x="55.078125" xlink:href="#MalgunGothic-48"/>
       <use x="110.15625" xlink:href="#MalgunGothic-48"/>
       <use x="165.234375" xlink:href="#MalgunGothic-48"/>
       <use x="220.3125" xlink:href="#MalgunGothic-48"/>
       <use x="275.390625" xlink:href="#MalgunGothic-48"/>
      </g>
     </g>
    </g>
    <g id="ytick_5">
     <g id="line2d_28">
      <g>
       <use style="stroke:#000000;stroke-width:0.8;" x="57.6" xlink:href="#mf719f26251" y="135.149323"/>
      </g>
     </g>
     <g id="text_9">
      <!-- 500000 -->
      <g transform="translate(17.553125 138.945417)scale(0.1 -0.1)">
       <defs>
        <path d="M 48 21.921875 
Q 48 11.28125 41.1875 5.03125 
Q 34.375 -1.21875 22.953125 -1.21875 
Q 12.9375 -1.21875 8.0625 1.765625 
L 8.0625 10.15625 
Q 15.53125 5.375 23.046875 5.375 
Q 30.765625 5.375 35.46875 9.84375 
Q 40.1875 14.3125 40.1875 21.4375 
Q 40.1875 28.71875 35.390625 32.6875 
Q 30.609375 36.671875 21.578125 36.671875 
Q 15.53125 36.671875 9.421875 35.9375 
L 11.859375 71.875 
L 44.828125 71.875 
L 44.828125 64.796875 
L 18.84375 64.796875 
L 17.28125 43.171875 
Q 21.046875 43.5 24.171875 43.5 
Q 35.359375 43.5 41.671875 37.71875 
Q 48 31.9375 48 21.921875 
z
" id="MalgunGothic-53"/>
       </defs>
       <use xlink:href="#MalgunGothic-53"/>
       <use x="55.078125" xlink:href="#MalgunGothic-48"/>
       <use x="110.15625" xlink:href="#MalgunGothic-48"/>
       <use x="165.234375" xlink:href="#MalgunGothic-48"/>
       <use x="220.3125" xlink:href="#MalgunGothic-48"/>
       <use x="275.390625" xlink:href="#MalgunGothic-48"/>
      </g>
     </g>
    </g>
    <g id="ytick_6">
     <g id="line2d_29">
      <g>
       <use style="stroke:#000000;stroke-width:0.8;" x="57.6" xlink:href="#mf719f26251" y="100.28551"/>
      </g>
     </g>
     <g id="text_10">
      <!-- 600000 -->
      <g transform="translate(17.553125 104.081603)scale(0.1 -0.1)">
       <use xlink:href="#MalgunGothic-54"/>
       <use x="55.078125" xlink:href="#MalgunGothic-48"/>
       <use x="110.15625" xlink:href="#MalgunGothic-48"/>
       <use x="165.234375" xlink:href="#MalgunGothic-48"/>
       <use x="220.3125" xlink:href="#MalgunGothic-48"/>
       <use x="275.390625" xlink:href="#MalgunGothic-48"/>
      </g>
     </g>
    </g>
    <g id="ytick_7">
     <g id="line2d_30">
      <g>
       <use style="stroke:#000000;stroke-width:0.8;" x="57.6" xlink:href="#mf719f26251" y="65.421696"/>
      </g>
     </g>
     <g id="text_11">
      <!-- 700000 -->
      <g transform="translate(17.553125 69.21779)scale(0.1 -0.1)">
       <defs>
        <path d="M 50.203125 67.140625 
Q 38.71875 46.96875 32.25 29.96875 
Q 25.78125 12.984375 24.21875 0 
L 15.765625 0 
Q 16.9375 8.296875 20.15625 18.375 
Q 23.390625 28.46875 28.359375 39.640625 
Q 33.34375 50.828125 41.109375 64.796875 
L 4.546875 64.796875 
L 4.546875 71.875 
L 50.203125 71.875 
z
" id="MalgunGothic-55"/>
       </defs>
       <use xlink:href="#MalgunGothic-55"/>
       <use x="55.078125" xlink:href="#MalgunGothic-48"/>
       <use x="110.15625" xlink:href="#MalgunGothic-48"/>
       <use x="165.234375" xlink:href="#MalgunGothic-48"/>
       <use x="220.3125" xlink:href="#MalgunGothic-48"/>
       <use x="275.390625" xlink:href="#MalgunGothic-48"/>
      </g>
     </g>
    </g>
   </g>
   <g id="line2d_31">
    <path clip-path="url(#p6637f62adf)" d="M 57.6 295.261385 
L 73.832727 295.017339 
L 90.065455 294.860451 
L 106.298182 294.738428 
L 122.530909 294.686132 
L 138.763636 294.912747 
L 154.996364 294.808156 
L 171.229091 295.174226 
L 187.461818 295.488 
L 203.694545 294.825588 
L 219.927273 294.598973 
L 236.16 294.982475 
L 252.392727 294.511813 
L 268.625455 294.598973 
L 284.858182 294.494381 
L 301.090909 293.884265 
L 317.323636 292.995237 
L 333.556364 293.309012 
L 349.789091 293.797105 
L 366.021818 293.535626 
L 382.254545 293.239284 
L 398.487273 293.134693 
L 414.72 293.256716 
" style="fill:none;stroke:#1f77b4;stroke-linecap:square;stroke-width:1.5;"/>
   </g>
   <g id="line2d_32">
    <path clip-path="url(#p6637f62adf)" d="M 57.6 92.964109 
L 73.832727 94.358661 
L 90.065455 86.688623 
L 106.298182 82.853603 
L 122.530909 84.248156 
L 138.763636 89.129089 
L 154.996364 85.642708 
L 171.229091 82.504965 
L 187.461818 96.45049 
L 203.694545 92.266833 
L 219.927273 80.761774 
L 236.16 82.853603 
L 252.392727 73.440374 
L 268.625455 58.448934 
L 284.858182 53.568 
L 301.090909 64.72442 
L 317.323636 68.210802 
L 333.556364 68.210802 
L 349.789091 63.678506 
L 366.021818 73.440374 
L 382.254545 70.30263 
L 398.487273 62.283953 
L 414.72 58.100296 
" style="fill:none;stroke:#ff7f0e;stroke-linecap:square;stroke-width:1.5;"/>
   </g>
   <g id="line2d_33">
    <path clip-path="url(#p6637f62adf)" d="M 57.6 228.235704 
L 73.832727 226.492514 
L 90.065455 226.318195 
L 106.298182 226.318195 
L 122.530909 227.887066 
L 138.763636 228.410023 
L 154.996364 229.455938 
L 171.229091 231.896405 
L 187.461818 234.859829 
L 203.694545 234.511191 
L 219.927273 233.116638 
L 236.16 233.290957 
L 252.392727 231.722086 
L 268.625455 230.327533 
L 284.858182 230.85049 
L 301.090909 230.327533 
L 317.323636 229.1073 
L 333.556364 229.281619 
L 349.789091 229.455938 
L 366.021818 228.584342 
L 382.254545 228.410023 
L 398.487273 228.932981 
L 414.72 229.455938 
" style="fill:none;stroke:#2ca02c;stroke-linecap:square;stroke-width:1.5;"/>
   </g>
   <g id="patch_3">
    <path d="M 57.6 307.584 
L 57.6 41.472 
" style="fill:none;stroke:#000000;stroke-linecap:square;stroke-linejoin:miter;stroke-width:0.8;"/>
   </g>
   <g id="patch_4">
    <path d="M 414.72 307.584 
L 414.72 41.472 
" style="fill:none;stroke:#000000;stroke-linecap:square;stroke-linejoin:miter;stroke-width:0.8;"/>
   </g>
   <g id="patch_5">
    <path d="M 57.6 307.584 
L 414.72 307.584 
" style="fill:none;stroke:#000000;stroke-linecap:square;stroke-linejoin:miter;stroke-width:0.8;"/>
   </g>
   <g id="patch_6">
    <path d="M 57.6 41.472 
L 414.72 41.472 
" style="fill:none;stroke:#000000;stroke-linecap:square;stroke-linejoin:miter;stroke-width:0.8;"/>
   </g>
   <g id="legend_1">
    <g id="patch_7">
     <path d="M 334.387188 198.462375 
L 407.72 198.462375 
Q 409.72 198.462375 409.72 196.462375 
L 409.72 152.593625 
Q 409.72 150.593625 407.72 150.593625 
L 334.387188 150.593625 
Q 332.387188 150.593625 332.387188 152.593625 
L 332.387188 196.462375 
Q 332.387188 198.462375 334.387188 198.462375 
z
" style="fill:#ffffff;opacity:0.8;stroke:#cccccc;stroke-linejoin:miter;"/>
    </g>
    <g id="line2d_34">
     <path d="M 336.387188 158.685812 
L 356.387188 158.685812 
" style="fill:none;stroke:#1f77b4;stroke-linecap:square;stroke-width:1.5;"/>
    </g>
    <g id="line2d_35"/>
    <g id="text_12">
     <!-- KB금융 -->
     <g transform="translate(364.387188 162.185812)scale(0.1 -0.1)">
      <defs>
       <path d="M 58.890625 0 
L 47.703125 0 
L 19.53125 32.953125 
Q 17.96875 34.765625 17.625 35.359375 
L 17.390625 35.359375 
L 17.390625 0 
L 9.515625 0 
L 9.515625 71.875 
L 17.390625 71.875 
L 17.390625 38.09375 
L 17.625 38.09375 
Q 18.359375 39.203125 19.53125 40.4375 
L 46.875 71.875 
L 56.6875 71.875 
L 25.53125 37.40625 
z
" id="MalgunGothic-75"/>
       <path d="M 9.515625 0 
L 9.515625 71.875 
L 29.59375 71.875 
Q 38.53125 71.875 44.015625 67.359375 
Q 49.515625 62.84375 49.515625 55.421875 
Q 49.515625 49.46875 46.265625 44.84375 
Q 43.015625 40.234375 37.15625 38.328125 
L 37.15625 38.140625 
Q 44.4375 37.359375 48.78125 32.640625 
Q 53.125 27.9375 53.125 20.609375 
Q 53.125 11.421875 46.53125 5.703125 
Q 39.9375 0 29.984375 0 
z
M 17.390625 64.5 
L 17.390625 40.921875 
L 26.125 40.921875 
Q 33.34375 40.921875 37.296875 44.359375 
Q 41.265625 47.796875 41.265625 53.859375 
Q 41.265625 64.5 27.34375 64.5 
z
M 17.390625 33.640625 
L 17.390625 7.328125 
L 29.046875 7.328125 
Q 36.46875 7.328125 40.671875 10.90625 
Q 44.875 14.5 44.875 20.703125 
Q 44.875 33.640625 27.15625 33.640625 
z
" id="MalgunGothic-66"/>
       <path d="M 6.296875 41.609375 
L 6.296875 48.1875 
L 71.296875 48.1875 
Q 72.40625 59.421875 72.40625 75.296875 
L 20.90625 75.296875 
L 20.90625 81.78125 
L 79.6875 81.78125 
Q 79.6875 63.765625 78.421875 48.1875 
L 93.703125 48.1875 
L 93.703125 41.609375 
z
M 21.09375 -6.5 
L 21.09375 29 
L 79.296875 29 
L 79.296875 -6.5 
z
M 72.125 22.609375 
L 28.328125 22.609375 
L 28.328125 0 
L 72.125 0 
z
" id="MalgunGothic-44552"/>
       <path d="M 50 50 
Q 35.359375 50 27.78125 54.6875 
Q 20.21875 59.375 20.21875 67.578125 
Q 20.21875 75.78125 27.75 80.484375 
Q 35.296875 85.203125 50 85.203125 
Q 64.703125 85.203125 72.234375 80.484375 
Q 79.78125 75.78125 79.78125 67.578125 
Q 79.78125 59.375 72.21875 54.6875 
Q 64.65625 50 50 50 
z
M 50 79 
Q 39.0625 79 33.421875 75.921875 
Q 27.78125 72.859375 27.78125 67.578125 
Q 27.78125 62.359375 33.4375 59.28125 
Q 39.109375 56.203125 50 56.203125 
Q 60.890625 56.203125 66.546875 59.28125 
Q 72.21875 62.359375 72.21875 67.578125 
Q 72.21875 72.859375 66.578125 75.921875 
Q 60.9375 79 50 79 
z
M 71.578125 35.796875 
L 71.578125 22.515625 
Q 80.328125 17.671875 80.328125 9.078125 
Q 80.328125 0.921875 72.484375 -3.734375 
Q 64.65625 -8.40625 50 -8.40625 
Q 35.359375 -8.40625 27.515625 -3.734375 
Q 19.671875 0.921875 19.671875 9.078125 
Q 19.671875 17.71875 28.421875 22.40625 
L 28.421875 35.796875 
L 6.296875 35.796875 
L 6.296875 42.390625 
L 93.703125 42.390625 
L 93.703125 35.796875 
z
M 64.40625 35.796875 
L 35.59375 35.796875 
L 35.59375 25.09375 
Q 41.5 26.609375 50 26.609375 
Q 58.5 26.609375 64.40625 25.09375 
z
M 50 20.40625 
Q 38.8125 20.40625 33.09375 17.375 
Q 27.390625 14.359375 27.390625 9.078125 
Q 27.390625 3.765625 33.15625 0.78125 
Q 38.921875 -2.203125 50 -2.203125 
Q 61.03125 -2.203125 66.8125 0.78125 
Q 72.609375 3.765625 72.609375 9.078125 
Q 72.609375 14.40625 66.875 17.40625 
Q 61.140625 20.40625 50 20.40625 
z
" id="MalgunGothic-50997"/>
      </defs>
      <use xlink:href="#MalgunGothic-75"/>
      <use x="59.033203" xlink:href="#MalgunGothic-66"/>
      <use x="117.382812" xlink:href="#MalgunGothic-44552"/>
      <use x="217.382812" xlink:href="#MalgunGothic-50997"/>
     </g>
    </g>
    <g id="line2d_36">
     <path d="M 336.387188 173.642063 
L 356.387188 173.642063 
" style="fill:none;stroke:#ff7f0e;stroke-linecap:square;stroke-width:1.5;"/>
    </g>
    <g id="line2d_37"/>
    <g id="text_13">
     <!-- LG화학 -->
     <g transform="translate(364.387188 177.142063)scale(0.1 -0.1)">
      <defs>
       <path d="M 46.4375 0 
L 9.515625 0 
L 9.515625 71.875 
L 17.390625 71.875 
L 17.390625 7.234375 
L 46.4375 7.234375 
z
" id="MalgunGothic-76"/>
       <path d="M 62.84375 4.9375 
Q 52.09375 -1.21875 38.921875 -1.21875 
Q 23.828125 -1.21875 14.296875 8.71875 
Q 4.78125 18.65625 4.78125 34.96875 
Q 4.78125 51.609375 15.296875 62.328125 
Q 25.828125 73.046875 41.890625 73.046875 
Q 53.953125 73.046875 61.53125 69.1875 
L 61.53125 60.25 
Q 52.828125 65.765625 40.921875 65.765625 
Q 28.71875 65.765625 20.90625 57.359375 
Q 13.09375 48.96875 13.09375 35.59375 
Q 13.09375 21.734375 20.3125 13.859375 
Q 27.546875 6 40.046875 6 
Q 48.875 6 54.9375 9.46875 
L 54.9375 30.03125 
L 39.109375 30.03125 
L 39.109375 37.25 
L 62.84375 37.25 
z
" id="MalgunGothic-71"/>
       <path d="M 81.6875 36.921875 
L 81.6875 -8.796875 
L 74.421875 -8.796875 
L 74.421875 85.40625 
L 81.6875 85.40625 
L 81.6875 43.40625 
L 96.1875 43.40625 
L 96.1875 36.921875 
z
M 33.296875 85.015625 
L 40.484375 85.015625 
L 40.484375 72.703125 
L 64.984375 72.703125 
L 64.984375 66.21875 
L 8.6875 66.21875 
L 8.6875 72.703125 
L 33.296875 72.703125 
z
M 40.484375 27.203125 
L 40.484375 13.8125 
Q 57.625 14.0625 68.890625 14.796875 
L 69.390625 8.5 
Q 43.609375 6.984375 5.609375 6.984375 
L 4.890625 13.375 
Q 17.828125 13.375 33.203125 13.71875 
L 33.203125 27.09375 
Q 23.53125 27.984375 18.359375 32.6875 
Q 13.1875 37.40625 13.1875 44.1875 
Q 13.1875 51.8125 19.53125 56.671875 
Q 25.875 61.53125 36.921875 61.53125 
Q 47.796875 61.53125 54.140625 56.765625 
Q 60.5 52 60.5 44.671875 
Q 60.5 37.5 55.25 32.78125 
Q 50 28.078125 40.484375 27.203125 
z
M 36.921875 55.328125 
Q 29.296875 55.328125 24.90625 52.21875 
Q 20.515625 49.125 20.515625 44.1875 
Q 20.515625 39.265625 24.875 36.234375 
Q 29.25 33.203125 36.921875 33.203125 
Q 44.484375 33.203125 48.84375 36.25 
Q 53.21875 39.3125 53.21875 44.1875 
Q 53.21875 49.125 48.828125 52.21875 
Q 44.4375 55.328125 36.921875 55.328125 
z
" id="MalgunGothic-54868"/>
       <path d="M 6.984375 67.921875 
L 6.984375 74.421875 
L 31.296875 74.421875 
L 31.296875 85.890625 
L 38.71875 85.890625 
L 38.71875 74.421875 
L 62.796875 74.421875 
L 62.796875 67.921875 
z
M 80.078125 49.21875 
L 80.078125 28.125 
L 72.796875 28.125 
L 72.796875 85.40625 
L 80.078125 85.40625 
L 80.078125 55.71875 
L 94.28125 55.71875 
L 94.28125 49.21875 
z
M 35.015625 30.328125 
Q 24.171875 30.328125 17.984375 34.90625 
Q 11.8125 39.5 11.8125 46.6875 
Q 11.8125 53.8125 17.984375 58.390625 
Q 24.171875 62.984375 35.109375 62.984375 
Q 46.046875 62.984375 52.21875 58.390625 
Q 58.40625 53.8125 58.40625 46.6875 
Q 58.40625 39.59375 52.125 34.953125 
Q 45.84375 30.328125 35.015625 30.328125 
z
M 35.109375 56.78125 
Q 27.640625 56.78125 23.3125 54 
Q 19 51.21875 19 46.6875 
Q 19 42.234375 23.265625 39.375 
Q 27.546875 36.53125 35.109375 36.53125 
Q 42.671875 36.53125 46.9375 39.375 
Q 51.21875 42.234375 51.21875 46.6875 
Q 51.21875 51.21875 46.890625 54 
Q 42.578125 56.78125 35.109375 56.78125 
z
M 72.796875 -8.796875 
L 72.796875 16.609375 
L 18.609375 16.609375 
L 18.609375 23 
L 79.984375 23 
L 79.984375 -8.796875 
z
" id="MalgunGothic-54617"/>
      </defs>
      <use xlink:href="#MalgunGothic-76"/>
      <use x="44.498047" xlink:href="#MalgunGothic-71"/>
      <use x="114.664062" xlink:href="#MalgunGothic-54868"/>
      <use x="214.664062" xlink:href="#MalgunGothic-54617"/>
     </g>
    </g>
    <g id="line2d_38">
     <path d="M 336.387188 188.598312 
L 356.387188 188.598312 
" style="fill:none;stroke:#2ca02c;stroke-linecap:square;stroke-width:1.5;"/>
    </g>
    <g id="line2d_39"/>
    <g id="text_14">
     <!-- SK텔레콤 -->
     <g transform="translate(364.387188 192.098312)scale(0.1 -0.1)">
      <defs>
       <path d="M 6.15625 12.453125 
Q 9.46875 9.578125 15.0625 7.8125 
Q 20.65625 6.0625 25.390625 6.0625 
Q 41.0625 6.0625 41.0625 17.4375 
Q 41.0625 20.703125 39.421875 23.1875 
Q 37.796875 25.6875 35.15625 27.4375 
Q 32.515625 29.203125 24.171875 33.5 
Q 14.109375 38.671875 10.171875 43.03125 
Q 6.25 47.40625 6.25 54 
Q 6.25 62.796875 13.40625 67.921875 
Q 20.5625 73.046875 31.0625 73.046875 
Q 41.703125 73.046875 46.296875 70.515625 
L 46.296875 61.375 
Q 40.046875 65.71875 30.03125 65.71875 
Q 23.1875 65.71875 18.859375 62.78125 
Q 14.546875 59.859375 14.546875 54.6875 
Q 14.546875 50 17.59375 47.046875 
Q 20.65625 44.09375 30.28125 39.40625 
Q 41.5 33.796875 45.40625 28.8125 
Q 49.3125 23.828125 49.3125 18.015625 
Q 49.3125 8.6875 42.578125 3.734375 
Q 35.84375 -1.21875 23.921875 -1.21875 
Q 20.171875 -1.21875 14.484375 -0.015625 
Q 8.796875 1.171875 6.15625 2.9375 
z
" id="MalgunGothic-83"/>
       <path d="M 79 35.984375 
L 79 85.40625 
L 86.28125 85.40625 
L 86.28125 35.984375 
z
M 62.109375 35.984375 
L 62.109375 58.296875 
L 47.703125 58.296875 
L 47.703125 64.59375 
L 62.109375 64.59375 
L 62.109375 83.5 
L 69.28125 83.5 
L 69.28125 35.984375 
z
M 21.390625 57.078125 
L 21.390625 45.609375 
Q 43.015625 45.609375 52.09375 46.484375 
L 52.59375 40.09375 
Q 39.109375 39.3125 14.203125 39.3125 
L 14.203125 81.5 
L 50.203125 81.5 
L 50.203125 75.09375 
L 21.390625 75.09375 
L 21.390625 63.484375 
L 41.40625 63.484375 
L 41.40625 57.078125 
z
M 27.296875 -6.59375 
L 27.296875 15.71875 
L 79.109375 15.71875 
L 79.109375 24.421875 
L 27.296875 24.421875 
L 27.296875 30.8125 
L 86.28125 30.8125 
L 86.28125 9.421875 
L 34.515625 9.421875 
L 34.515625 -0.09375 
L 88.8125 -0.09375 
L 88.8125 -6.59375 
z
" id="MalgunGothic-53588"/>
       <path d="M 79.5 -8.796875 
L 79.5 85.40625 
L 86.921875 85.40625 
L 86.921875 -8.796875 
z
M 62.5 -6.296875 
L 62.5 39.203125 
L 49.125 39.203125 
L 49.125 45.703125 
L 62.5 45.703125 
L 62.5 83.5 
L 69.671875 83.5 
L 69.671875 -6.296875 
z
M 12.015625 11.28125 
L 12.015625 49.125 
L 38.09375 49.125 
L 38.09375 70.40625 
L 12.015625 70.40625 
L 12.015625 76.90625 
L 45.40625 76.90625 
L 45.40625 42.828125 
L 19.28125 42.828125 
L 19.28125 17.828125 
Q 44.09375 17.828125 51.3125 19.09375 
L 52.09375 12.890625 
Q 42.625 11.28125 12.015625 11.28125 
z
" id="MalgunGothic-47112"/>
       <path d="M 18.40625 58.015625 
L 16.890625 64.796875 
L 74.03125 66.796875 
L 74.125 76.3125 
L 21 76.3125 
L 21 82.71875 
L 81.390625 82.71875 
Q 81.390625 58.15625 80.171875 47.3125 
L 73.1875 47.703125 
Q 73.53125 50.734375 73.78125 60.796875 
z
M 6.296875 35.40625 
L 6.296875 42 
L 43.40625 42 
L 43.40625 55.8125 
L 50.59375 55.8125 
L 50.59375 42 
L 93.703125 42 
L 93.703125 35.40625 
z
M 20.703125 -6 
L 20.703125 26.125 
L 79.296875 26.125 
L 79.296875 -6 
z
M 72.125 19.671875 
L 27.875 19.671875 
L 27.875 0.390625 
L 72.125 0.390625 
z
" id="MalgunGothic-53092"/>
      </defs>
      <use xlink:href="#MalgunGothic-83"/>
      <use x="54.296875" xlink:href="#MalgunGothic-75"/>
      <use x="113.330078" xlink:href="#MalgunGothic-53588"/>
      <use x="213.330078" xlink:href="#MalgunGothic-47112"/>
      <use x="313.330078" xlink:href="#MalgunGothic-53092"/>
     </g>
    </g>
   </g>
  </g>
 </g>
 <defs>
  <clipPath id="p6637f62adf">
   <rect height="266.112" width="357.12" x="57.6" y="41.472"/>
  </clipPath>
 </defs>
</svg>
