<?xml version="1.0" encoding="utf-8" standalone="no"?>
<!DOCTYPE svg PUBLIC "-//W3C//DTD SVG 1.1//EN"
  "http://www.w3.org/Graphics/SVG/1.1/DTD/svg11.dtd">
<!-- Created with matplotlib (http://matplotlib.org/) -->
<svg height="345.6pt" version="1.1" viewBox="0 0 460.8 345.6" width="460.8pt" xmlns="http://www.w3.org/2000/svg" xmlns:xlink="http://www.w3.org/1999/xlink">
 <defs>
  <style type="text/css">
*{stroke-linecap:butt;stroke-linejoin:round;}
  </style>
 </defs>
 <g id="figure_1">
  <g id="patch_1">
   <path d="M 0 345.6 
L 460.8 345.6 
L 460.8 0 
L 0 0 
z
" style="fill:#ffffff;"/>
  </g>
  <g id="axes_1">
   <g id="patch_2">
    <path d="M 57.6 307.584 
L 414.72 307.584 
L 414.72 41.472 
L 57.6 41.472 
z
" style="fill:#ffffff;"/>
   </g>
   <g id="matplotlib.axis_1">
    <g id="xtick_1">
     <g id="line2d_1">
      <defs>
       <path d="M 0 0 
L 0 3.5 
" id="mb63279eb7b" style="stroke:#000000;stroke-width:0.8;"/>
      </defs>
      <g>
       <use style="stroke:#000000;stroke-width:0.8;" x="182.050909" xlink:href="#mb63279eb7b" y="307.584"/>
      </g>
     </g>
     <g id="text_1">
      <!--  -->
      <g transform="translate(182.050909 322.176187)scale(0.1 -0.1)"/>
      <!--  -->
      <g transform="translate(182.050909 333.650875)scale(0.1 -0.1)"/>
      <!-- Nov -->
      <defs>
       <path d="M 67 0 
L 57.078125 0 
L 19.578125 58.015625 
Q 18.40625 59.8125 17.328125 62.5 
L 17.09375 62.5 
Q 17.4375 59.71875 17.4375 52.6875 
L 17.4375 0 
L 9.515625 0 
L 9.515625 71.875 
L 19.96875 71.875 
L 56.453125 14.65625 
Q 58.984375 10.6875 59.328125 9.90625 
L 59.515625 9.90625 
Q 58.984375 13.484375 58.984375 20.5625 
L 58.984375 71.875 
L 67 71.875 
z
" id="MalgunGothic-4e"/>
       <path d="M 4.9375 25 
Q 4.9375 37.796875 11.890625 45.140625 
Q 18.84375 52.484375 30.90625 52.484375 
Q 42.140625 52.484375 48.609375 45.421875 
Q 55.078125 38.375 55.078125 25.78125 
Q 55.078125 13.578125 48.09375 6.171875 
Q 41.109375 -1.21875 29.6875 -1.21875 
Q 18.5 -1.21875 11.71875 6 
Q 4.9375 13.234375 4.9375 25 
z
M 12.796875 25.34375 
Q 12.796875 16.265625 17.546875 10.8125 
Q 22.3125 5.375 30.21875 5.375 
Q 38.421875 5.375 42.796875 10.625 
Q 47.171875 15.875 47.171875 25.53125 
Q 47.171875 35.25 42.765625 40.59375 
Q 38.375 45.953125 30.21875 45.953125 
Q 22.265625 45.953125 17.53125 40.421875 
Q 12.796875 34.90625 12.796875 25.34375 
z
" id="MalgunGothic-6f"/>
       <path d="M 48.1875 51.3125 
L 27.640625 0 
L 20.21875 0 
L 0.734375 51.3125 
L 9.28125 51.3125 
L 22.515625 13.625 
Q 23.921875 9.515625 24.3125 6.640625 
L 24.5625 6.640625 
Q 25.046875 10.453125 26.125 13.484375 
L 40.046875 51.3125 
z
" id="MalgunGothic-76"/>
      </defs>
      <g transform="translate(172.793097 345.125563)scale(0.1 -0.1)">
       <use xlink:href="#MalgunGothic-4e"/>
       <use x="76.513672" xlink:href="#MalgunGothic-6f"/>
       <use x="136.425781" xlink:href="#MalgunGothic-76"/>
      </g>
      <!-- 2019 -->
      <defs>
       <path d="M 39.359375 52.6875 
Q 39.359375 59.125 35.546875 62.78125 
Q 31.734375 66.453125 25.4375 66.453125 
Q 20.953125 66.453125 16.453125 64.125 
Q 11.96875 61.8125 8.34375 57.765625 
L 8.34375 66.15625 
Q 15.328125 73.046875 26.421875 73.046875 
Q 35.640625 73.046875 41.28125 67.71875 
Q 46.921875 62.40625 46.921875 53.375 
Q 46.921875 45.609375 43.3125 39.765625 
Q 39.703125 33.9375 31 27.734375 
Q 22.796875 21.96875 19.59375 18.984375 
Q 16.40625 16.015625 15.109375 13.34375 
Q 13.8125 10.6875 13.8125 7.03125 
L 48.6875 7.03125 
L 48.6875 0 
L 5.5625 0 
L 5.5625 3.515625 
Q 5.5625 9.421875 7.203125 13.59375 
Q 8.84375 17.78125 12.671875 21.75 
Q 16.5 25.734375 24.953125 31.59375 
Q 32.671875 36.921875 36.015625 41.71875 
Q 39.359375 46.53125 39.359375 52.6875 
z
" id="MalgunGothic-32"/>
       <path d="M 4.34375 34.46875 
Q 4.34375 53.515625 10.546875 63.28125 
Q 16.75 73.046875 28.421875 73.046875 
Q 50.828125 73.046875 50.828125 36.234375 
Q 50.828125 18.0625 44.59375 8.421875 
Q 38.375 -1.21875 26.8125 -1.21875 
Q 15.875 -1.21875 10.109375 8.125 
Q 4.34375 17.484375 4.34375 34.46875 
z
M 12.25 34.859375 
Q 12.25 5.375 27.640625 5.375 
Q 42.921875 5.375 42.921875 35.296875 
Q 42.921875 66.40625 28.03125 66.40625 
Q 12.25 66.40625 12.25 34.859375 
z
" id="MalgunGothic-30"/>
       <path d="M 34.859375 0 
L 27.09375 0 
L 27.09375 62.0625 
Q 24.859375 59.8125 19.78125 57.203125 
Q 14.703125 54.59375 10.5 53.5625 
L 10.5 61.859375 
Q 15.875 63.375 22.015625 66.796875 
Q 28.171875 70.21875 31.734375 73.4375 
L 34.859375 73.4375 
z
" id="MalgunGothic-31"/>
       <path d="M 8.6875 8.796875 
Q 14.703125 5.375 21.34375 5.375 
Q 31.15625 5.375 36.671875 13.359375 
Q 42.1875 21.34375 42.1875 36.140625 
Q 42.09375 36.03125 42 36.140625 
Q 37.3125 26.765625 25.828125 26.765625 
Q 16.546875 26.765625 10.65625 33.125 
Q 4.78125 39.5 4.78125 49.125 
Q 4.78125 59.46875 11.109375 66.25 
Q 17.4375 73.046875 27.6875 73.046875 
Q 38.53125 73.046875 44.265625 64.546875 
Q 50 56.0625 50 40.28125 
Q 50 20.609375 42.453125 9.6875 
Q 34.90625 -1.21875 21 -1.21875 
Q 13.765625 -1.21875 8.6875 1.21875 
z
M 12.703125 50.296875 
Q 12.703125 42.828125 16.609375 38.28125 
Q 20.515625 33.734375 27.484375 33.734375 
Q 33.546875 33.734375 37.59375 37.765625 
Q 41.65625 41.796875 41.65625 47.609375 
Q 41.65625 55.5625 37.671875 60.984375 
Q 33.6875 66.40625 26.953125 66.40625 
Q 20.65625 66.40625 16.671875 61.6875 
Q 12.703125 56.984375 12.703125 50.296875 
z
" id="MalgunGothic-39"/>
      </defs>
      <g transform="translate(171.035284 356.60025)scale(0.1 -0.1)">
       <use xlink:href="#MalgunGothic-32"/>
       <use x="55.078125" xlink:href="#MalgunGothic-30"/>
       <use x="110.15625" xlink:href="#MalgunGothic-31"/>
       <use x="165.234375" xlink:href="#MalgunGothic-39"/>
      </g>
     </g>
    </g>
    <g id="xtick_2">
     <g id="line2d_2">
      <g>
       <use style="stroke:#000000;stroke-width:0.8;" x="413.947013" xlink:href="#mb63279eb7b" y="307.584"/>
      </g>
     </g>
    </g>
    <g id="xtick_3">
     <g id="line2d_3">
      <defs>
       <path d="M 0 0 
L 0 2 
" id="m990bc48a81" style="stroke:#000000;stroke-width:0.6;"/>
      </defs>
      <g>
       <use style="stroke:#000000;stroke-width:0.6;" x="58.372987" xlink:href="#m990bc48a81" y="307.584"/>
      </g>
     </g>
    </g>
    <g id="xtick_4">
     <g id="line2d_4">
      <g>
       <use style="stroke:#000000;stroke-width:0.6;" x="73.832727" xlink:href="#m990bc48a81" y="307.584"/>
      </g>
     </g>
    </g>
    <g id="xtick_5">
     <g id="line2d_5">
      <g>
       <use style="stroke:#000000;stroke-width:0.6;" x="89.292468" xlink:href="#m990bc48a81" y="307.584"/>
      </g>
     </g>
    </g>
    <g id="xtick_6">
     <g id="line2d_6">
      <g>
       <use style="stroke:#000000;stroke-width:0.6;" x="104.752208" xlink:href="#m990bc48a81" y="307.584"/>
      </g>
     </g>
    </g>
    <g id="xtick_7">
     <g id="line2d_7">
      <g>
       <use style="stroke:#000000;stroke-width:0.6;" x="120.211948" xlink:href="#m990bc48a81" y="307.584"/>
      </g>
     </g>
     <g id="text_2">
      <!-- 28 -->
      <defs>
       <path d="M 4.734375 20.015625 
Q 4.734375 26.078125 8.421875 31.421875 
Q 12.109375 36.765625 18.015625 38.96875 
Q 13.375 41.359375 10.546875 45.546875 
Q 7.71875 49.75 7.71875 54.6875 
Q 7.71875 59.8125 10.296875 64.03125 
Q 12.890625 68.265625 17.53125 70.65625 
Q 22.171875 73.046875 27.78125 73.046875 
Q 36.46875 73.046875 42.1875 67.84375 
Q 47.90625 62.640625 47.90625 54.6875 
Q 47.90625 49.703125 45.015625 45.53125 
Q 42.140625 41.359375 37.703125 38.96875 
Q 43.5625 36.71875 47.21875 31.390625 
Q 50.875 26.078125 50.875 20.015625 
Q 50.875 10.5 44.421875 4.640625 
Q 37.984375 -1.21875 27.78125 -1.21875 
Q 17.671875 -1.21875 11.203125 4.703125 
Q 4.734375 10.640625 4.734375 20.015625 
z
M 12.640625 20.75 
Q 12.640625 13.71875 16.890625 9.546875 
Q 21.140625 5.375 27.828125 5.375 
Q 34.46875 5.375 38.78125 9.671875 
Q 43.109375 13.96875 43.109375 20.75 
Q 43.109375 27.046875 38.78125 31.421875 
Q 34.46875 35.796875 27.828125 35.796875 
Q 21.4375 35.796875 17.03125 31.5625 
Q 12.640625 27.34375 12.640625 20.75 
z
M 15.671875 54.046875 
Q 15.671875 48.828125 19.28125 45.3125 
Q 22.90625 41.796875 27.828125 41.796875 
Q 32.765625 41.796875 36.40625 45.3125 
Q 40.046875 48.828125 40.046875 54.046875 
Q 40.046875 59.421875 36.578125 62.90625 
Q 33.109375 66.40625 27.828125 66.40625 
Q 22.65625 66.40625 19.15625 62.953125 
Q 15.671875 59.515625 15.671875 54.046875 
z
" id="MalgunGothic-38"/>
      </defs>
      <g transform="translate(114.704136 320.576187)scale(0.1 -0.1)">
       <use xlink:href="#MalgunGothic-32"/>
       <use x="55.078125" xlink:href="#MalgunGothic-38"/>
      </g>
     </g>
    </g>
    <g id="xtick_8">
     <g id="line2d_8">
      <g>
       <use style="stroke:#000000;stroke-width:0.6;" x="135.671688" xlink:href="#m990bc48a81" y="307.584"/>
      </g>
     </g>
    </g>
    <g id="xtick_9">
     <g id="line2d_9">
      <g>
       <use style="stroke:#000000;stroke-width:0.6;" x="151.131429" xlink:href="#m990bc48a81" y="307.584"/>
      </g>
     </g>
    </g>
    <g id="xtick_10">
     <g id="line2d_10">
      <g>
       <use style="stroke:#000000;stroke-width:0.6;" x="166.591169" xlink:href="#m990bc48a81" y="307.584"/>
      </g>
     </g>
    </g>
    <g id="xtick_11">
     <g id="line2d_11">
      <g>
       <use style="stroke:#000000;stroke-width:0.6;" x="182.050909" xlink:href="#m990bc48a81" y="307.584"/>
      </g>
     </g>
    </g>
    <g id="xtick_12">
     <g id="line2d_12">
      <g>
       <use style="stroke:#000000;stroke-width:0.6;" x="197.510649" xlink:href="#m990bc48a81" y="307.584"/>
      </g>
     </g>
     <g id="text_3">
      <!-- 04 -->
      <defs>
       <path d="M 42.234375 71.875 
L 42.234375 24.421875 
L 51.703125 24.421875 
L 51.703125 17.390625 
L 42.234375 17.390625 
L 42.234375 0 
L 34.578125 0 
L 34.578125 17.390625 
L 0.78125 17.390625 
L 0.78125 23.96875 
Q 11.375 35.890625 20.234375 48.578125 
Q 29.109375 61.28125 33.9375 71.875 
z
M 9.765625 24.421875 
L 34.578125 24.421875 
L 34.578125 59.859375 
Q 25.203125 43.5625 14.984375 30.953125 
z
" id="MalgunGothic-34"/>
      </defs>
      <g transform="translate(192.002837 320.576187)scale(0.1 -0.1)">
       <use xlink:href="#MalgunGothic-30"/>
       <use x="55.078125" xlink:href="#MalgunGothic-34"/>
      </g>
     </g>
    </g>
    <g id="xtick_13">
     <g id="line2d_13">
      <g>
       <use style="stroke:#000000;stroke-width:0.6;" x="212.97039" xlink:href="#m990bc48a81" y="307.584"/>
      </g>
     </g>
    </g>
    <g id="xtick_14">
     <g id="line2d_14">
      <g>
       <use style="stroke:#000000;stroke-width:0.6;" x="228.43013" xlink:href="#m990bc48a81" y="307.584"/>
      </g>
     </g>
    </g>
    <g id="xtick_15">
     <g id="line2d_15">
      <g>
       <use style="stroke:#000000;stroke-width:0.6;" x="243.88987" xlink:href="#m990bc48a81" y="307.584"/>
      </g>
     </g>
    </g>
    <g id="xtick_16">
     <g id="line2d_16">
      <g>
       <use style="stroke:#000000;stroke-width:0.6;" x="259.34961" xlink:href="#m990bc48a81" y="307.584"/>
      </g>
     </g>
    </g>
    <g id="xtick_17">
     <g id="line2d_17">
      <g>
       <use style="stroke:#000000;stroke-width:0.6;" x="274.809351" xlink:href="#m990bc48a81" y="307.584"/>
      </g>
     </g>
     <g id="text_4">
      <!-- 11 -->
      <g transform="translate(269.301538 320.576187)scale(0.1 -0.1)">
       <use xlink:href="#MalgunGothic-31"/>
       <use x="55.078125" xlink:href="#MalgunGothic-31"/>
      </g>
     </g>
    </g>
    <g id="xtick_18">
     <g id="line2d_18">
      <g>
       <use style="stroke:#000000;stroke-width:0.6;" x="290.269091" xlink:href="#m990bc48a81" y="307.584"/>
      </g>
     </g>
    </g>
    <g id="xtick_19">
     <g id="line2d_19">
      <g>
       <use style="stroke:#000000;stroke-width:0.6;" x="305.728831" xlink:href="#m990bc48a81" y="307.584"/>
      </g>
     </g>
    </g>
    <g id="xtick_20">
     <g id="line2d_20">
      <g>
       <use style="stroke:#000000;stroke-width:0.6;" x="321.188571" xlink:href="#m990bc48a81" y="307.584"/>
      </g>
     </g>
    </g>
    <g id="xtick_21">
     <g id="line2d_21">
      <g>
       <use style="stroke:#000000;stroke-width:0.6;" x="336.648312" xlink:href="#m990bc48a81" y="307.584"/>
      </g>
     </g>
    </g>
    <g id="xtick_22">
     <g id="line2d_22">
      <g>
       <use style="stroke:#000000;stroke-width:0.6;" x="352.108052" xlink:href="#m990bc48a81" y="307.584"/>
      </g>
     </g>
     <g id="text_5">
      <!-- 18 -->
      <g transform="translate(346.600239 320.576187)scale(0.1 -0.1)">
       <use xlink:href="#MalgunGothic-31"/>
       <use x="55.078125" xlink:href="#MalgunGothic-38"/>
      </g>
     </g>
    </g>
    <g id="xtick_23">
     <g id="line2d_23">
      <g>
       <use style="stroke:#000000;stroke-width:0.6;" x="367.567792" xlink:href="#m990bc48a81" y="307.584"/>
      </g>
     </g>
    </g>
    <g id="xtick_24">
     <g id="line2d_24">
      <g>
       <use style="stroke:#000000;stroke-width:0.6;" x="383.027532" xlink:href="#m990bc48a81" y="307.584"/>
      </g>
     </g>
    </g>
    <g id="xtick_25">
     <g id="line2d_25">
      <g>
       <use style="stroke:#000000;stroke-width:0.6;" x="398.487273" xlink:href="#m990bc48a81" y="307.584"/>
      </g>
     </g>
    </g>
    <g id="xtick_26">
     <g id="line2d_26">
      <g>
       <use style="stroke:#000000;stroke-width:0.6;" x="413.947013" xlink:href="#m990bc48a81" y="307.584"/>
      </g>
     </g>
    </g>
   </g>
   <g id="matplotlib.axis_2">
    <g id="ytick_1">
     <g id="line2d_27">
      <defs>
       <path d="M 0 0 
L -3.5 0 
" id="m83bb8ebe40" style="stroke:#000000;stroke-width:0.8;"/>
      </defs>
      <g>
       <use style="stroke:#000000;stroke-width:0.8;" x="57.6" xlink:href="#m83bb8ebe40" y="267.060402"/>
      </g>
     </g>
     <g id="text_6">
      <!-- 50000 -->
      <defs>
       <path d="M 48 21.921875 
Q 48 11.28125 41.1875 5.03125 
Q 34.375 -1.21875 22.953125 -1.21875 
Q 12.9375 -1.21875 8.0625 1.765625 
L 8.0625 10.15625 
Q 15.53125 5.375 23.046875 5.375 
Q 30.765625 5.375 35.46875 9.84375 
Q 40.1875 14.3125 40.1875 21.4375 
Q 40.1875 28.71875 35.390625 32.6875 
Q 30.609375 36.671875 21.578125 36.671875 
Q 15.53125 36.671875 9.421875 35.9375 
L 11.859375 71.875 
L 44.828125 71.875 
L 44.828125 64.796875 
L 18.84375 64.796875 
L 17.28125 43.171875 
Q 21.046875 43.5 24.171875 43.5 
Q 35.359375 43.5 41.671875 37.71875 
Q 48 31.9375 48 21.921875 
z
" id="MalgunGothic-35"/>
      </defs>
      <g transform="translate(23.060938 270.856496)scale(0.1 -0.1)">
       <use xlink:href="#MalgunGothic-35"/>
       <use x="55.078125" xlink:href="#MalgunGothic-30"/>
       <use x="110.15625" xlink:href="#MalgunGothic-30"/>
       <use x="165.234375" xlink:href="#MalgunGothic-30"/>
       <use x="220.3125" xlink:href="#MalgunGothic-30"/>
      </g>
     </g>
    </g>
    <g id="ytick_2">
     <g id="line2d_28">
      <g>
       <use style="stroke:#000000;stroke-width:0.8;" x="57.6" xlink:href="#m83bb8ebe40" y="209.976872"/>
      </g>
     </g>
     <g id="text_7">
      <!-- 100000 -->
      <g transform="translate(17.553125 213.772966)scale(0.1 -0.1)">
       <use xlink:href="#MalgunGothic-31"/>
       <use x="55.078125" xlink:href="#MalgunGothic-30"/>
       <use x="110.15625" xlink:href="#MalgunGothic-30"/>
       <use x="165.234375" xlink:href="#MalgunGothic-30"/>
       <use x="220.3125" xlink:href="#MalgunGothic-30"/>
       <use x="275.390625" xlink:href="#MalgunGothic-30"/>
      </g>
     </g>
    </g>
    <g id="ytick_3">
     <g id="line2d_29">
      <g>
       <use style="stroke:#000000;stroke-width:0.8;" x="57.6" xlink:href="#m83bb8ebe40" y="152.893342"/>
      </g>
     </g>
     <g id="text_8">
      <!-- 150000 -->
      <g transform="translate(17.553125 156.689436)scale(0.1 -0.1)">
       <use xlink:href="#MalgunGothic-31"/>
       <use x="55.078125" xlink:href="#MalgunGothic-35"/>
       <use x="110.15625" xlink:href="#MalgunGothic-30"/>
       <use x="165.234375" xlink:href="#MalgunGothic-30"/>
       <use x="220.3125" xlink:href="#MalgunGothic-30"/>
       <use x="275.390625" xlink:href="#MalgunGothic-30"/>
      </g>
     </g>
    </g>
    <g id="ytick_4">
     <g id="line2d_30">
      <g>
       <use style="stroke:#000000;stroke-width:0.8;" x="57.6" xlink:href="#m83bb8ebe40" y="95.809812"/>
      </g>
     </g>
     <g id="text_9">
      <!-- 200000 -->
      <g transform="translate(17.553125 99.605906)scale(0.1 -0.1)">
       <use xlink:href="#MalgunGothic-32"/>
       <use x="55.078125" xlink:href="#MalgunGothic-30"/>
       <use x="110.15625" xlink:href="#MalgunGothic-30"/>
       <use x="165.234375" xlink:href="#MalgunGothic-30"/>
       <use x="220.3125" xlink:href="#MalgunGothic-30"/>
       <use x="275.390625" xlink:href="#MalgunGothic-30"/>
      </g>
     </g>
    </g>
   </g>
   <g id="line2d_31">
    <path clip-path="url(#p0953a0c704)" d="M 73.832727 164.310048 
L 89.292468 164.880883 
L 104.752208 164.310048 
L 120.211948 164.310048 
L 135.671688 164.880883 
L 151.131429 166.593389 
L 166.591169 162.597542 
L 182.050909 158.03086 
L 197.510649 156.889189 
L 212.97039 154.605848 
L 228.43013 151.751672 
L 243.88987 151.751672 
L 259.34961 150.610001 
L 274.809351 148.32666 
L 290.269091 148.897495 
L 305.728831 148.897495 
L 321.188571 147.755824 
L 336.648312 146.614154 
L 352.108052 144.330813 
L 367.567792 145.472483 
L 383.027532 145.472483 
L 398.487273 148.32666 
" style="fill:none;stroke:#1f77b4;stroke-linecap:square;stroke-width:1.5;"/>
   </g>
   <g id="line2d_32">
    <path clip-path="url(#p0953a0c704)" d="M 73.832727 265.690397 
L 89.292468 266.261233 
L 104.752208 266.032899 
L 120.211948 265.57623 
L 135.671688 265.804564 
L 151.131429 266.603734 
L 166.591169 266.603734 
L 182.050909 265.690397 
L 197.510649 264.43456 
L 212.97039 263.977891 
L 228.43013 263.292889 
L 243.88987 263.749557 
L 259.34961 264.662894 
L 274.809351 265.233729 
L 290.269091 264.092059 
L 305.728831 264.206226 
L 321.188571 263.863724 
L 336.648312 262.836221 
L 352.108052 263.064555 
L 367.567792 263.064555 
L 383.027532 264.777061 
L 398.487273 265.918731 
" style="fill:none;stroke:#ff7f0e;stroke-linecap:square;stroke-width:1.5;"/>
   </g>
   <g id="line2d_33">
    <path clip-path="url(#p0953a0c704)" d="M 73.832727 295.031332 
L 89.292468 295.145499 
L 104.752208 294.974248 
L 120.211948 295.316749 
L 135.671688 295.488 
L 151.131429 294.631747 
L 166.591169 295.088415 
L 182.050909 295.202582 
L 197.510649 295.259666 
L 212.97039 295.316749 
L 228.43013 293.54716 
L 243.88987 293.375909 
L 259.34961 293.318826 
L 274.809351 292.976325 
L 290.269091 292.862158 
L 305.728831 293.033408 
L 321.188571 292.005905 
L 336.648312 292.120072 
L 352.108052 292.348406 
L 367.567792 292.062988 
L 383.027532 292.005905 
L 398.487273 292.291322 
" style="fill:none;stroke:#2ca02c;stroke-linecap:square;stroke-width:1.5;"/>
   </g>
   <g id="line2d_34">
    <path clip-path="url(#p0953a0c704)" d="M 73.832727 67.268047 
L 89.292468 65.555541 
L 104.752208 70.122224 
L 120.211948 71.83473 
L 135.671688 71.83473 
L 151.131429 75.259741 
L 166.591169 76.972247 
L 182.050909 74.118071 
L 197.510649 67.838882 
L 212.97039 64.413871 
L 228.43013 67.268047 
L 243.88987 62.701365 
L 259.34961 55.280506 
L 274.809351 54.709671 
L 290.269091 55.851341 
L 305.728831 64.413871 
L 321.188571 67.838882 
L 336.648312 56.993012 
L 352.108052 58.134682 
L 367.567792 57.563847 
L 383.027532 53.568 
L 398.487273 56.993012 
" style="fill:none;stroke:#d62728;stroke-linecap:square;stroke-width:1.5;"/>
   </g>
   <g id="patch_3">
    <path d="M 57.6 307.584 
L 57.6 41.472 
" style="fill:none;stroke:#000000;stroke-linecap:square;stroke-linejoin:miter;stroke-width:0.8;"/>
   </g>
   <g id="patch_4">
    <path d="M 414.72 307.584 
L 414.72 41.472 
" style="fill:none;stroke:#000000;stroke-linecap:square;stroke-linejoin:miter;stroke-width:0.8;"/>
   </g>
   <g id="patch_5">
    <path d="M 57.6 307.584 
L 414.72 307.584 
" style="fill:none;stroke:#000000;stroke-linecap:square;stroke-linejoin:miter;stroke-width:0.8;"/>
   </g>
   <g id="patch_6">
    <path d="M 57.6 41.472 
L 414.72 41.472 
" style="fill:none;stroke:#000000;stroke-linecap:square;stroke-linejoin:miter;stroke-width:0.8;"/>
   </g>
   <g id="legend_1">
    <g id="patch_7">
     <path d="M 200.16 109.297 
L 272.16 109.297 
Q 274.16 109.297 274.16 107.297 
L 274.16 48.472 
Q 274.16 46.472 272.16 46.472 
L 200.16 46.472 
Q 198.16 46.472 198.16 48.472 
L 198.16 107.297 
Q 198.16 109.297 200.16 109.297 
z
" style="fill:#ffffff;opacity:0.8;stroke:#cccccc;stroke-linejoin:miter;"/>
    </g>
    <g id="line2d_35">
     <path d="M 202.16 54.564188 
L 222.16 54.564188 
" style="fill:none;stroke:#1f77b4;stroke-linecap:square;stroke-width:1.5;"/>
    </g>
    <g id="line2d_36"/>
    <g id="text_10">
     <!-- 카카오 -->
     <defs>
      <path d="M 79.546875 40.09375 
L 79.546875 -8.796875 
L 72.265625 -8.796875 
L 72.265625 85.40625 
L 79.546875 85.40625 
L 79.546875 46.578125 
L 96.4375 46.578125 
L 96.4375 40.09375 
z
M 56.34375 77 
Q 55.515625 37.109375 13.96875 13.375 
L 8.25 19.28125 
Q 18.265625 23.390625 27.46875 31.515625 
Q 36.671875 39.65625 41.84375 49.3125 
L 10.75 46.1875 
L 8.15625 53.125 
L 44.78125 55.421875 
Q 47.65625 62.796875 48.53125 70.515625 
L 12.359375 70.515625 
L 12.359375 77 
z
" id="MalgunGothic-ce74"/>
      <path d="M 6.296875 6.109375 
L 6.296875 12.5 
L 46.296875 12.5 
L 46.296875 31.5 
Q 32.859375 32.515625 25.53125 38.734375 
Q 18.21875 44.96875 18.21875 55.078125 
Q 18.21875 66.0625 26.984375 72.328125 
Q 35.75 78.609375 50 78.609375 
Q 64.265625 78.609375 72.96875 72.375 
Q 81.6875 66.15625 81.6875 55.078125 
Q 81.6875 44.96875 74.359375 38.734375 
Q 67.046875 32.515625 53.71875 31.5 
L 53.71875 12.5 
L 93.703125 12.5 
L 93.703125 6.109375 
z
M 25.78125 55.078125 
Q 25.78125 47.125 32.484375 42.5 
Q 39.203125 37.890625 50 37.890625 
Q 60.796875 37.890625 67.453125 42.53125 
Q 74.125 47.171875 74.125 55.078125 
Q 74.125 62.9375 67.453125 67.578125 
Q 60.796875 72.21875 50 72.21875 
Q 39.15625 72.21875 32.46875 67.578125 
Q 25.78125 62.9375 25.78125 55.078125 
z
" id="MalgunGothic-c624"/>
     </defs>
     <g transform="translate(230.16 58.064188)scale(0.1 -0.1)">
      <use xlink:href="#MalgunGothic-ce74"/>
      <use x="100" xlink:href="#MalgunGothic-ce74"/>
      <use x="200" xlink:href="#MalgunGothic-c624"/>
     </g>
    </g>
    <g id="line2d_37">
     <path d="M 202.16 69.520438 
L 222.16 69.520438 
" style="fill:none;stroke:#ff7f0e;stroke-linecap:square;stroke-width:1.5;"/>
    </g>
    <g id="line2d_38"/>
    <g id="text_11">
     <!-- 삼성전자 -->
     <defs>
      <path d="M 80.078125 53.71875 
L 80.078125 33.40625 
L 72.796875 33.40625 
L 72.796875 85.40625 
L 80.078125 85.40625 
L 80.078125 60.296875 
L 94.28125 60.296875 
L 94.28125 53.71875 
z
M 56.296875 36.71875 
Q 50.203125 39.984375 43.484375 46.28125 
Q 36.765625 52.59375 34.1875 58.015625 
Q 31.59375 51.90625 25.140625 45.046875 
Q 18.703125 38.1875 11.71875 34.28125 
L 6.390625 39.3125 
Q 16.796875 44.34375 23.65625 53.609375 
Q 30.515625 62.890625 30.515625 72.796875 
L 30.515625 82.71875 
L 37.5 82.71875 
L 37.5 72.796875 
Q 37.5 63.375 44.453125 54.734375 
Q 51.421875 46.09375 61.078125 42 
z
M 22.609375 -6.203125 
L 22.609375 28.21875 
L 80.078125 28.21875 
L 80.078125 -6.203125 
z
M 72.90625 21.78125 
L 29.78125 21.78125 
L 29.78125 0.203125 
L 72.90625 0.203125 
z
" id="MalgunGothic-c0bc"/>
      <path d="M 77.296875 31 
L 77.296875 59.078125 
L 55.328125 59.078125 
L 55.328125 65.625 
L 77.296875 65.625 
L 77.296875 85.40625 
L 84.625 85.40625 
L 84.625 31 
z
M 57.078125 36.375 
Q 50.6875 39.84375 44.234375 46.09375 
Q 37.796875 52.34375 35.203125 57.8125 
Q 32.421875 51.609375 25.921875 44.65625 
Q 19.4375 37.703125 12.796875 33.984375 
L 7.625 39.015625 
Q 17.71875 43.84375 24.546875 53.015625 
Q 31.390625 62.203125 31.390625 72.3125 
L 31.390625 82.328125 
L 38.484375 82.328125 
L 38.484375 72.3125 
Q 38.484375 62.890625 45.5625 54.25 
Q 52.640625 45.609375 62.015625 41.703125 
z
M 55.71875 -7.421875 
Q 40.96875 -7.421875 32.9375 -2.3125 
Q 24.90625 2.78125 24.90625 10.890625 
Q 24.90625 19 32.90625 24.046875 
Q 40.921875 29.109375 55.71875 29.109375 
Q 70.515625 29.109375 78.515625 24.046875 
Q 86.53125 19 86.53125 10.890625 
Q 86.53125 2.78125 78.484375 -2.3125 
Q 70.453125 -7.421875 55.71875 -7.421875 
z
M 55.71875 22.90625 
Q 44.53125 22.90625 38.625 19.5 
Q 32.71875 16.109375 32.71875 10.890625 
Q 32.71875 5.609375 38.640625 2.234375 
Q 44.578125 -1.125 55.71875 -1.125 
Q 66.796875 -1.125 72.75 2.21875 
Q 78.71875 5.5625 78.71875 10.890625 
Q 78.71875 16.15625 72.796875 19.53125 
Q 66.890625 22.90625 55.71875 22.90625 
z
" id="MalgunGothic-c131"/>
      <path d="M 76.21875 18.40625 
L 76.21875 55.078125 
L 54.203125 55.078125 
L 54.203125 61.625 
L 76.21875 61.625 
L 76.21875 85.40625 
L 83.5 85.40625 
L 83.5 18.40625 
z
M 57.421875 32.328125 
Q 50.4375 36.625 44.203125 43.375 
Q 37.984375 50.140625 35.40625 55.71875 
Q 32.671875 49.21875 25.96875 41.375 
Q 19.28125 33.546875 12.796875 29.890625 
L 7.515625 34.90625 
Q 17.578125 39.984375 24.578125 49.96875 
Q 31.59375 59.96875 31.59375 70.21875 
L 31.59375 73.6875 
L 10.6875 73.6875 
L 10.6875 80.328125 
L 59.1875 80.328125 
L 59.1875 73.6875 
L 38.71875 73.6875 
L 38.71875 70.21875 
Q 38.71875 60.84375 45.984375 51.34375 
Q 53.265625 41.84375 62.3125 37.59375 
z
M 25.484375 -5.71875 
L 25.484375 25.09375 
L 32.8125 25.09375 
L 32.8125 0.6875 
L 85.984375 0.6875 
L 85.984375 -5.71875 
z
" id="MalgunGothic-c804"/>
      <path d="M 79.59375 40.625 
L 79.59375 -8.796875 
L 72.3125 -8.796875 
L 72.3125 85.40625 
L 79.59375 85.40625 
L 79.59375 47.125 
L 95.90625 47.125 
L 95.90625 40.625 
z
M 57.421875 14.203125 
Q 50.4375 19.53125 43.875 28.3125 
Q 37.3125 37.109375 35.109375 44.09375 
Q 33.203125 37.40625 26.75 28.265625 
Q 20.3125 19.140625 12.5 12.890625 
L 6.890625 17.71875 
Q 17.1875 24.515625 24.234375 36.9375 
Q 31.296875 49.359375 31.296875 60.796875 
L 31.296875 70.703125 
L 10.40625 70.703125 
L 10.40625 77.203125 
L 58.984375 77.203125 
L 58.984375 70.703125 
L 38.484375 70.703125 
L 38.484375 61.28125 
Q 38.484375 49.8125 45.5625 38.03125 
Q 52.640625 26.265625 62.5 19.671875 
z
" id="MalgunGothic-c790"/>
     </defs>
     <g transform="translate(230.16 73.020438)scale(0.1 -0.1)">
      <use xlink:href="#MalgunGothic-c0bc"/>
      <use x="100" xlink:href="#MalgunGothic-c131"/>
      <use x="200" xlink:href="#MalgunGothic-c804"/>
      <use x="300" xlink:href="#MalgunGothic-c790"/>
     </g>
    </g>
    <g id="line2d_39">
     <path d="M 202.16 84.476688 
L 222.16 84.476688 
" style="fill:none;stroke:#2ca02c;stroke-linecap:square;stroke-width:1.5;"/>
    </g>
    <g id="line2d_40"/>
    <g id="text_12">
     <!-- 한국전력 -->
     <defs>
      <path d="M 80.078125 42.390625 
L 80.078125 15.28125 
L 72.796875 15.28125 
L 72.796875 85.40625 
L 80.078125 85.40625 
L 80.078125 49.03125 
L 94.28125 49.03125 
L 94.28125 42.390625 
z
M 6.984375 66.3125 
L 6.984375 72.796875 
L 31.296875 72.796875 
L 31.296875 85.015625 
L 38.71875 85.015625 
L 38.71875 72.796875 
L 62.984375 72.796875 
L 62.984375 66.3125 
z
M 35.015625 25.78125 
Q 24.359375 25.78125 18.140625 30.921875 
Q 11.921875 36.078125 11.921875 43.609375 
Q 11.921875 51.03125 18.140625 56.15625 
Q 24.359375 61.28125 35.109375 61.28125 
Q 45.796875 61.28125 52.046875 56.171875 
Q 58.296875 51.078125 58.296875 43.609375 
Q 58.296875 36.1875 52.015625 30.984375 
Q 45.75 25.78125 35.015625 25.78125 
z
M 35.109375 55.078125 
Q 27.6875 55.078125 23.390625 51.859375 
Q 19.09375 48.640625 19.09375 43.609375 
Q 19.09375 38.53125 23.40625 35.25 
Q 27.734375 31.984375 35.109375 31.984375 
Q 42.484375 31.984375 46.796875 35.25 
Q 51.125 38.53125 51.125 43.609375 
Q 51.125 48.640625 46.828125 51.859375 
Q 42.53125 55.078125 35.109375 55.078125 
z
M 22.796875 -7.078125 
L 22.796875 19 
L 29.984375 19 
L 29.984375 -0.59375 
L 83.015625 -0.59375 
L 83.015625 -7.078125 
z
" id="MalgunGothic-d55c"/>
      <path d="M 71.921875 -8.796875 
L 71.921875 19.671875 
L 19.390625 19.671875 
L 19.390625 26.21875 
L 45.515625 26.21875 
L 45.515625 43.796875 
L 6.296875 43.796875 
L 6.296875 50.296875 
L 71.578125 50.296875 
Q 72.40625 58.25 72.40625 75.78125 
L 20.90625 75.78125 
L 20.90625 82.328125 
L 79.6875 82.328125 
Q 79.6875 66.015625 78.609375 50.296875 
L 93.703125 50.296875 
L 93.703125 43.796875 
L 52.78125 43.796875 
L 52.78125 26.21875 
L 79.203125 26.21875 
L 79.203125 -8.796875 
z
" id="MalgunGothic-ad6d"/>
      <path d="M 59.90625 46.78125 
L 59.90625 53.125 
L 77.296875 53.125 
L 77.296875 64.5 
L 60.109375 64.5 
L 60.109375 70.796875 
L 77.296875 70.796875 
L 77.296875 85.40625 
L 84.625 85.40625 
L 84.625 29.78125 
L 77.296875 29.78125 
L 77.296875 46.78125 
z
M 59.8125 35.890625 
Q 52.296875 34.671875 45.09375 34.375 
Q 37.890625 34.078125 15.484375 34.078125 
L 15.484375 61.71875 
L 47.015625 61.71875 
L 47.015625 74.90625 
L 15.484375 74.90625 
L 15.484375 81.296875 
L 54.296875 81.296875 
L 54.296875 55.515625 
L 22.796875 55.515625 
L 22.796875 40.484375 
L 34.078125 40.484375 
Q 50.09375 40.484375 58.796875 42.09375 
z
M 77.296875 -8.796875 
L 77.296875 18.109375 
L 23.296875 18.109375 
L 23.296875 24.609375 
L 84.625 24.609375 
L 84.625 -8.796875 
z
" id="MalgunGothic-b825"/>
     </defs>
     <g transform="translate(230.16 87.976688)scale(0.1 -0.1)">
      <use xlink:href="#MalgunGothic-d55c"/>
      <use x="100" xlink:href="#MalgunGothic-ad6d"/>
      <use x="200" xlink:href="#MalgunGothic-c804"/>
      <use x="300" xlink:href="#MalgunGothic-b825"/>
     </g>
    </g>
    <g id="line2d_41">
     <path d="M 202.16 99.432938 
L 222.16 99.432938 
" style="fill:none;stroke:#d62728;stroke-linecap:square;stroke-width:1.5;"/>
    </g>
    <g id="line2d_42"/>
    <g id="text_13">
     <!-- 삼성화재 -->
     <defs>
      <path d="M 81.6875 36.921875 
L 81.6875 -8.796875 
L 74.421875 -8.796875 
L 74.421875 85.40625 
L 81.6875 85.40625 
L 81.6875 43.40625 
L 96.1875 43.40625 
L 96.1875 36.921875 
z
M 33.296875 85.015625 
L 40.484375 85.015625 
L 40.484375 72.703125 
L 64.984375 72.703125 
L 64.984375 66.21875 
L 8.6875 66.21875 
L 8.6875 72.703125 
L 33.296875 72.703125 
z
M 40.484375 27.203125 
L 40.484375 13.8125 
Q 57.625 14.0625 68.890625 14.796875 
L 69.390625 8.5 
Q 43.609375 6.984375 5.609375 6.984375 
L 4.890625 13.375 
Q 17.828125 13.375 33.203125 13.71875 
L 33.203125 27.09375 
Q 23.53125 27.984375 18.359375 32.6875 
Q 13.1875 37.40625 13.1875 44.1875 
Q 13.1875 51.8125 19.53125 56.671875 
Q 25.875 61.53125 36.921875 61.53125 
Q 47.796875 61.53125 54.140625 56.765625 
Q 60.5 52 60.5 44.671875 
Q 60.5 37.5 55.25 32.78125 
Q 50 28.078125 40.484375 27.203125 
z
M 36.921875 55.328125 
Q 29.296875 55.328125 24.90625 52.21875 
Q 20.515625 49.125 20.515625 44.1875 
Q 20.515625 39.265625 24.875 36.234375 
Q 29.25 33.203125 36.921875 33.203125 
Q 44.484375 33.203125 48.84375 36.25 
Q 53.21875 39.3125 53.21875 44.1875 
Q 53.21875 49.125 48.828125 52.21875 
Q 44.4375 55.328125 36.921875 55.328125 
z
" id="MalgunGothic-d654"/>
      <path d="M 79.203125 -8.796875 
L 79.203125 37.109375 
L 68.015625 37.109375 
L 68.015625 -5.90625 
L 60.796875 -5.90625 
L 60.796875 83.5 
L 68.015625 83.5 
L 68.015625 43.609375 
L 79.203125 43.609375 
L 79.203125 85.40625 
L 86.53125 85.40625 
L 86.53125 -8.796875 
z
M 49.703125 13.8125 
Q 43.609375 19.78125 38.453125 27.828125 
Q 33.296875 35.890625 31.890625 41.890625 
Q 30.609375 35.359375 25.09375 26.90625 
Q 19.578125 18.453125 13.09375 12.5 
L 7.421875 17 
Q 15.875 23.09375 22.1875 34.890625 
Q 28.515625 46.6875 28.515625 58.59375 
L 28.515625 70.703125 
L 10.796875 70.703125 
L 10.796875 77.203125 
L 53.515625 77.203125 
L 53.515625 70.703125 
L 35.6875 70.703125 
L 35.6875 58.6875 
Q 35.6875 46.96875 41.375 35.640625 
Q 47.078125 24.3125 55.171875 18.5 
z
" id="MalgunGothic-c7ac"/>
     </defs>
     <g transform="translate(230.16 102.932938)scale(0.1 -0.1)">
      <use xlink:href="#MalgunGothic-c0bc"/>
      <use x="100" xlink:href="#MalgunGothic-c131"/>
      <use x="200" xlink:href="#MalgunGothic-d654"/>
      <use x="300" xlink:href="#MalgunGothic-c7ac"/>
     </g>
    </g>
   </g>
  </g>
 </g>
 <defs>
  <clipPath id="p0953a0c704">
   <rect height="266.112" width="357.12" x="57.6" y="41.472"/>
  </clipPath>
 </defs>
</svg>
