<?xml version="1.0" encoding="utf-8" standalone="no"?>
<!DOCTYPE svg PUBLIC "-//W3C//DTD SVG 1.1//EN"
  "http://www.w3.org/Graphics/SVG/1.1/DTD/svg11.dtd">
<!-- Created with matplotlib (https://matplotlib.org/) -->
<svg height="345.6pt" version="1.1" viewBox="0 0 460.8 345.6" width="460.8pt" xmlns="http://www.w3.org/2000/svg" xmlns:xlink="http://www.w3.org/1999/xlink">
 <defs>
  <style type="text/css">
*{stroke-linecap:butt;stroke-linejoin:round;}
  </style>
 </defs>
 <g id="figure_1">
  <g id="patch_1">
   <path d="M 0 345.6 
L 460.8 345.6 
L 460.8 0 
L 0 0 
z
" style="fill:#ffffff;"/>
  </g>
  <g id="axes_1">
   <g id="patch_2">
    <path d="M 57.6 276.48 
L 414.72 276.48 
L 414.72 41.472 
L 57.6 41.472 
z
" style="fill:#ffffff;"/>
   </g>
   <g id="matplotlib.axis_1">
    <g id="xtick_1">
     <g id="line2d_1">
      <defs>
       <path d="M 0 0 
L 0 3.5 
" id="m3002a310a8" style="stroke:#000000;stroke-width:0.8;"/>
      </defs>
      <g>
       <use style="stroke:#000000;stroke-width:0.8;" x="82.228966" xlink:href="#m3002a310a8" y="276.48"/>
      </g>
     </g>
     <g id="text_1">
      <!-- 2020-10-09 -->
      <defs>
       <path d="M 39.359375 52.6875 
Q 39.359375 59.125 35.546875 62.78125 
Q 31.734375 66.453125 25.4375 66.453125 
Q 20.953125 66.453125 16.453125 64.125 
Q 11.96875 61.8125 8.34375 57.765625 
L 8.34375 66.15625 
Q 15.328125 73.046875 26.421875 73.046875 
Q 35.640625 73.046875 41.28125 67.71875 
Q 46.921875 62.40625 46.921875 53.375 
Q 46.921875 45.609375 43.3125 39.765625 
Q 39.703125 33.9375 31 27.734375 
Q 22.796875 21.96875 19.59375 18.984375 
Q 16.40625 16.015625 15.109375 13.34375 
Q 13.8125 10.6875 13.8125 7.03125 
L 48.6875 7.03125 
L 48.6875 0 
L 5.5625 0 
L 5.5625 3.515625 
Q 5.5625 9.421875 7.203125 13.59375 
Q 8.84375 17.78125 12.671875 21.75 
Q 16.5 25.734375 24.953125 31.59375 
Q 32.671875 36.921875 36.015625 41.71875 
Q 39.359375 46.53125 39.359375 52.6875 
z
" id="MalgunGothic-50"/>
       <path d="M 4.34375 34.46875 
Q 4.34375 53.515625 10.546875 63.28125 
Q 16.75 73.046875 28.421875 73.046875 
Q 50.828125 73.046875 50.828125 36.234375 
Q 50.828125 18.0625 44.59375 8.421875 
Q 38.375 -1.21875 26.8125 -1.21875 
Q 15.875 -1.21875 10.109375 8.125 
Q 4.34375 17.484375 4.34375 34.46875 
z
M 12.25 34.859375 
Q 12.25 5.375 27.640625 5.375 
Q 42.921875 5.375 42.921875 35.296875 
Q 42.921875 66.40625 28.03125 66.40625 
Q 12.25 66.40625 12.25 34.859375 
z
" id="MalgunGothic-48"/>
       <path d="M 34.578125 25.53125 
L 7.234375 25.53125 
L 7.234375 31.734375 
L 34.578125 31.734375 
z
" id="MalgunGothic-45"/>
       <path d="M 34.859375 0 
L 27.09375 0 
L 27.09375 62.0625 
Q 24.859375 59.8125 19.78125 57.203125 
Q 14.703125 54.59375 10.5 53.5625 
L 10.5 61.859375 
Q 15.875 63.375 22.015625 66.796875 
Q 28.171875 70.21875 31.734375 73.4375 
L 34.859375 73.4375 
z
" id="MalgunGothic-49"/>
       <path d="M 8.6875 8.796875 
Q 14.703125 5.375 21.34375 5.375 
Q 31.15625 5.375 36.671875 13.359375 
Q 42.1875 21.34375 42.1875 36.140625 
Q 42.09375 36.03125 42 36.140625 
Q 37.3125 26.765625 25.828125 26.765625 
Q 16.546875 26.765625 10.65625 33.125 
Q 4.78125 39.5 4.78125 49.125 
Q 4.78125 59.46875 11.109375 66.25 
Q 17.4375 73.046875 27.6875 73.046875 
Q 38.53125 73.046875 44.265625 64.546875 
Q 50 56.0625 50 40.28125 
Q 50 20.609375 42.453125 9.6875 
Q 34.90625 -1.21875 21 -1.21875 
Q 13.765625 -1.21875 8.6875 1.21875 
z
M 12.703125 50.296875 
Q 12.703125 42.828125 16.609375 38.28125 
Q 20.515625 33.734375 27.484375 33.734375 
Q 33.546875 33.734375 37.59375 37.765625 
Q 41.65625 41.796875 41.65625 47.609375 
Q 41.65625 55.5625 37.671875 60.984375 
Q 33.6875 66.40625 26.953125 66.40625 
Q 20.65625 66.40625 16.671875 61.6875 
Q 12.703125 56.984375 12.703125 50.296875 
z
" id="MalgunGothic-57"/>
      </defs>
      <g transform="translate(35.783575 316.18784)rotate(-30)scale(0.1 -0.1)">
       <use xlink:href="#MalgunGothic-50"/>
       <use x="55.078125" xlink:href="#MalgunGothic-48"/>
       <use x="110.15625" xlink:href="#MalgunGothic-50"/>
       <use x="165.234375" xlink:href="#MalgunGothic-48"/>
       <use x="220.3125" xlink:href="#MalgunGothic-45"/>
       <use x="261.328125" xlink:href="#MalgunGothic-49"/>
       <use x="316.40625" xlink:href="#MalgunGothic-48"/>
       <use x="371.484375" xlink:href="#MalgunGothic-45"/>
       <use x="412.5" xlink:href="#MalgunGothic-48"/>
       <use x="467.578125" xlink:href="#MalgunGothic-57"/>
      </g>
     </g>
    </g>
    <g id="xtick_2">
     <g id="line2d_2">
      <g>
       <use style="stroke:#000000;stroke-width:0.8;" x="131.486897" xlink:href="#m3002a310a8" y="276.48"/>
      </g>
     </g>
     <g id="text_2">
      <!-- 2020-10-13 -->
      <defs>
       <path d="M 6.5 11.234375 
Q 13.921875 5.375 23.09375 5.375 
Q 30.609375 5.375 35.21875 9.171875 
Q 39.84375 12.984375 39.84375 19.484375 
Q 39.84375 33.890625 19.578125 33.890625 
L 13.625 33.890625 
L 13.625 40.484375 
L 19.28125 40.484375 
Q 37.3125 40.484375 37.3125 53.953125 
Q 37.3125 66.40625 23.578125 66.40625 
Q 15.96875 66.40625 9.28125 61.1875 
L 9.28125 68.953125 
Q 16.109375 73.046875 25.53125 73.046875 
Q 34.125 73.046875 39.671875 68.3125 
Q 45.21875 63.578125 45.21875 55.953125 
Q 45.21875 41.84375 30.8125 37.640625 
L 30.8125 37.5 
Q 38.578125 36.8125 43.1875 32.078125 
Q 47.796875 27.34375 47.796875 20.3125 
Q 47.796875 10.5 40.6875 4.640625 
Q 33.59375 -1.21875 22.65625 -1.21875 
Q 12.59375 -1.21875 6.5 2.640625 
z
" id="MalgunGothic-51"/>
      </defs>
      <g transform="translate(85.041506 316.18784)rotate(-30)scale(0.1 -0.1)">
       <use xlink:href="#MalgunGothic-50"/>
       <use x="55.078125" xlink:href="#MalgunGothic-48"/>
       <use x="110.15625" xlink:href="#MalgunGothic-50"/>
       <use x="165.234375" xlink:href="#MalgunGothic-48"/>
       <use x="220.3125" xlink:href="#MalgunGothic-45"/>
       <use x="261.328125" xlink:href="#MalgunGothic-49"/>
       <use x="316.40625" xlink:href="#MalgunGothic-48"/>
       <use x="371.484375" xlink:href="#MalgunGothic-45"/>
       <use x="412.5" xlink:href="#MalgunGothic-49"/>
       <use x="467.578125" xlink:href="#MalgunGothic-51"/>
      </g>
     </g>
    </g>
    <g id="xtick_3">
     <g id="line2d_3">
      <g>
       <use style="stroke:#000000;stroke-width:0.8;" x="180.744828" xlink:href="#m3002a310a8" y="276.48"/>
      </g>
     </g>
     <g id="text_3">
      <!-- 2020-10-17 -->
      <defs>
       <path d="M 50.203125 67.140625 
Q 38.71875 46.96875 32.25 29.96875 
Q 25.78125 12.984375 24.21875 0 
L 15.765625 0 
Q 16.9375 8.296875 20.15625 18.375 
Q 23.390625 28.46875 28.359375 39.640625 
Q 33.34375 50.828125 41.109375 64.796875 
L 4.546875 64.796875 
L 4.546875 71.875 
L 50.203125 71.875 
z
" id="MalgunGothic-55"/>
      </defs>
      <g transform="translate(134.299437 316.18784)rotate(-30)scale(0.1 -0.1)">
       <use xlink:href="#MalgunGothic-50"/>
       <use x="55.078125" xlink:href="#MalgunGothic-48"/>
       <use x="110.15625" xlink:href="#MalgunGothic-50"/>
       <use x="165.234375" xlink:href="#MalgunGothic-48"/>
       <use x="220.3125" xlink:href="#MalgunGothic-45"/>
       <use x="261.328125" xlink:href="#MalgunGothic-49"/>
       <use x="316.40625" xlink:href="#MalgunGothic-48"/>
       <use x="371.484375" xlink:href="#MalgunGothic-45"/>
       <use x="412.5" xlink:href="#MalgunGothic-49"/>
       <use x="467.578125" xlink:href="#MalgunGothic-55"/>
      </g>
     </g>
    </g>
    <g id="xtick_4">
     <g id="line2d_4">
      <g>
       <use style="stroke:#000000;stroke-width:0.8;" x="230.002759" xlink:href="#m3002a310a8" y="276.48"/>
      </g>
     </g>
     <g id="text_4">
      <!-- 2020-10-21 -->
      <g transform="translate(183.557368 316.18784)rotate(-30)scale(0.1 -0.1)">
       <use xlink:href="#MalgunGothic-50"/>
       <use x="55.078125" xlink:href="#MalgunGothic-48"/>
       <use x="110.15625" xlink:href="#MalgunGothic-50"/>
       <use x="165.234375" xlink:href="#MalgunGothic-48"/>
       <use x="220.3125" xlink:href="#MalgunGothic-45"/>
       <use x="261.328125" xlink:href="#MalgunGothic-49"/>
       <use x="316.40625" xlink:href="#MalgunGothic-48"/>
       <use x="371.484375" xlink:href="#MalgunGothic-45"/>
       <use x="412.5" xlink:href="#MalgunGothic-50"/>
       <use x="467.578125" xlink:href="#MalgunGothic-49"/>
      </g>
     </g>
    </g>
    <g id="xtick_5">
     <g id="line2d_5">
      <g>
       <use style="stroke:#000000;stroke-width:0.8;" x="279.26069" xlink:href="#m3002a310a8" y="276.48"/>
      </g>
     </g>
     <g id="text_5">
      <!-- 2020-10-25 -->
      <defs>
       <path d="M 48 21.921875 
Q 48 11.28125 41.1875 5.03125 
Q 34.375 -1.21875 22.953125 -1.21875 
Q 12.9375 -1.21875 8.0625 1.765625 
L 8.0625 10.15625 
Q 15.53125 5.375 23.046875 5.375 
Q 30.765625 5.375 35.46875 9.84375 
Q 40.1875 14.3125 40.1875 21.4375 
Q 40.1875 28.71875 35.390625 32.6875 
Q 30.609375 36.671875 21.578125 36.671875 
Q 15.53125 36.671875 9.421875 35.9375 
L 11.859375 71.875 
L 44.828125 71.875 
L 44.828125 64.796875 
L 18.84375 64.796875 
L 17.28125 43.171875 
Q 21.046875 43.5 24.171875 43.5 
Q 35.359375 43.5 41.671875 37.71875 
Q 48 31.9375 48 21.921875 
z
" id="MalgunGothic-53"/>
      </defs>
      <g transform="translate(232.815299 316.18784)rotate(-30)scale(0.1 -0.1)">
       <use xlink:href="#MalgunGothic-50"/>
       <use x="55.078125" xlink:href="#MalgunGothic-48"/>
       <use x="110.15625" xlink:href="#MalgunGothic-50"/>
       <use x="165.234375" xlink:href="#MalgunGothic-48"/>
       <use x="220.3125" xlink:href="#MalgunGothic-45"/>
       <use x="261.328125" xlink:href="#MalgunGothic-49"/>
       <use x="316.40625" xlink:href="#MalgunGothic-48"/>
       <use x="371.484375" xlink:href="#MalgunGothic-45"/>
       <use x="412.5" xlink:href="#MalgunGothic-50"/>
       <use x="467.578125" xlink:href="#MalgunGothic-53"/>
      </g>
     </g>
    </g>
    <g id="xtick_6">
     <g id="line2d_6">
      <g>
       <use style="stroke:#000000;stroke-width:0.8;" x="328.518621" xlink:href="#m3002a310a8" y="276.48"/>
      </g>
     </g>
     <g id="text_6">
      <!-- 2020-10-29 -->
      <g transform="translate(282.07323 316.18784)rotate(-30)scale(0.1 -0.1)">
       <use xlink:href="#MalgunGothic-50"/>
       <use x="55.078125" xlink:href="#MalgunGothic-48"/>
       <use x="110.15625" xlink:href="#MalgunGothic-50"/>
       <use x="165.234375" xlink:href="#MalgunGothic-48"/>
       <use x="220.3125" xlink:href="#MalgunGothic-45"/>
       <use x="261.328125" xlink:href="#MalgunGothic-49"/>
       <use x="316.40625" xlink:href="#MalgunGothic-48"/>
       <use x="371.484375" xlink:href="#MalgunGothic-45"/>
       <use x="412.5" xlink:href="#MalgunGothic-50"/>
       <use x="467.578125" xlink:href="#MalgunGothic-57"/>
      </g>
     </g>
    </g>
    <g id="xtick_7">
     <g id="line2d_7">
      <g>
       <use style="stroke:#000000;stroke-width:0.8;" x="365.462069" xlink:href="#m3002a310a8" y="276.48"/>
      </g>
     </g>
     <g id="text_7">
      <!-- 2020-11-01 -->
      <g transform="translate(319.016679 316.18784)rotate(-30)scale(0.1 -0.1)">
       <use xlink:href="#MalgunGothic-50"/>
       <use x="55.078125" xlink:href="#MalgunGothic-48"/>
       <use x="110.15625" xlink:href="#MalgunGothic-50"/>
       <use x="165.234375" xlink:href="#MalgunGothic-48"/>
       <use x="220.3125" xlink:href="#MalgunGothic-45"/>
       <use x="261.328125" xlink:href="#MalgunGothic-49"/>
       <use x="316.40625" xlink:href="#MalgunGothic-49"/>
       <use x="371.484375" xlink:href="#MalgunGothic-45"/>
       <use x="412.5" xlink:href="#MalgunGothic-48"/>
       <use x="467.578125" xlink:href="#MalgunGothic-49"/>
      </g>
     </g>
    </g>
    <g id="xtick_8">
     <g id="line2d_8">
      <g>
       <use style="stroke:#000000;stroke-width:0.8;" x="414.72" xlink:href="#m3002a310a8" y="276.48"/>
      </g>
     </g>
     <g id="text_8">
      <!-- 2020-11-05 -->
      <g transform="translate(368.27461 316.18784)rotate(-30)scale(0.1 -0.1)">
       <use xlink:href="#MalgunGothic-50"/>
       <use x="55.078125" xlink:href="#MalgunGothic-48"/>
       <use x="110.15625" xlink:href="#MalgunGothic-50"/>
       <use x="165.234375" xlink:href="#MalgunGothic-48"/>
       <use x="220.3125" xlink:href="#MalgunGothic-45"/>
       <use x="261.328125" xlink:href="#MalgunGothic-49"/>
       <use x="316.40625" xlink:href="#MalgunGothic-49"/>
       <use x="371.484375" xlink:href="#MalgunGothic-45"/>
       <use x="412.5" xlink:href="#MalgunGothic-48"/>
       <use x="467.578125" xlink:href="#MalgunGothic-53"/>
      </g>
     </g>
    </g>
   </g>
   <g id="matplotlib.axis_2">
    <g id="ytick_1">
     <g id="line2d_9">
      <defs>
       <path d="M 0 0 
L -3.5 0 
" id="m9265c04762" style="stroke:#000000;stroke-width:0.8;"/>
      </defs>
      <g>
       <use style="stroke:#000000;stroke-width:0.8;" x="57.6" xlink:href="#m9265c04762" y="272.885522"/>
      </g>
     </g>
     <g id="text_9">
      <!-- 20000 -->
      <g transform="translate(23.060938 276.681616)scale(0.1 -0.1)">
       <use xlink:href="#MalgunGothic-50"/>
       <use x="55.078125" xlink:href="#MalgunGothic-48"/>
       <use x="110.15625" xlink:href="#MalgunGothic-48"/>
       <use x="165.234375" xlink:href="#MalgunGothic-48"/>
       <use x="220.3125" xlink:href="#MalgunGothic-48"/>
      </g>
     </g>
    </g>
    <g id="ytick_2">
     <g id="line2d_10">
      <g>
       <use style="stroke:#000000;stroke-width:0.8;" x="57.6" xlink:href="#m9265c04762" y="239.134552"/>
      </g>
     </g>
     <g id="text_10">
      <!-- 30000 -->
      <g transform="translate(23.060938 242.930646)scale(0.1 -0.1)">
       <use xlink:href="#MalgunGothic-51"/>
       <use x="55.078125" xlink:href="#MalgunGothic-48"/>
       <use x="110.15625" xlink:href="#MalgunGothic-48"/>
       <use x="165.234375" xlink:href="#MalgunGothic-48"/>
       <use x="220.3125" xlink:href="#MalgunGothic-48"/>
      </g>
     </g>
    </g>
    <g id="ytick_3">
     <g id="line2d_11">
      <g>
       <use style="stroke:#000000;stroke-width:0.8;" x="57.6" xlink:href="#m9265c04762" y="205.383583"/>
      </g>
     </g>
     <g id="text_11">
      <!-- 40000 -->
      <defs>
       <path d="M 42.234375 71.875 
L 42.234375 24.421875 
L 51.703125 24.421875 
L 51.703125 17.390625 
L 42.234375 17.390625 
L 42.234375 0 
L 34.578125 0 
L 34.578125 17.390625 
L 0.78125 17.390625 
L 0.78125 23.96875 
Q 11.375 35.890625 20.234375 48.578125 
Q 29.109375 61.28125 33.9375 71.875 
z
M 9.765625 24.421875 
L 34.578125 24.421875 
L 34.578125 59.859375 
Q 25.203125 43.5625 14.984375 30.953125 
z
" id="MalgunGothic-52"/>
      </defs>
      <g transform="translate(23.060938 209.179677)scale(0.1 -0.1)">
       <use xlink:href="#MalgunGothic-52"/>
       <use x="55.078125" xlink:href="#MalgunGothic-48"/>
       <use x="110.15625" xlink:href="#MalgunGothic-48"/>
       <use x="165.234375" xlink:href="#MalgunGothic-48"/>
       <use x="220.3125" xlink:href="#MalgunGothic-48"/>
      </g>
     </g>
    </g>
    <g id="ytick_4">
     <g id="line2d_12">
      <g>
       <use style="stroke:#000000;stroke-width:0.8;" x="57.6" xlink:href="#m9265c04762" y="171.632614"/>
      </g>
     </g>
     <g id="text_12">
      <!-- 50000 -->
      <g transform="translate(23.060938 175.428707)scale(0.1 -0.1)">
       <use xlink:href="#MalgunGothic-53"/>
       <use x="55.078125" xlink:href="#MalgunGothic-48"/>
       <use x="110.15625" xlink:href="#MalgunGothic-48"/>
       <use x="165.234375" xlink:href="#MalgunGothic-48"/>
       <use x="220.3125" xlink:href="#MalgunGothic-48"/>
      </g>
     </g>
    </g>
    <g id="ytick_5">
     <g id="line2d_13">
      <g>
       <use style="stroke:#000000;stroke-width:0.8;" x="57.6" xlink:href="#m9265c04762" y="137.881644"/>
      </g>
     </g>
     <g id="text_13">
      <!-- 60000 -->
      <defs>
       <path d="M 46.578125 63.578125 
Q 40.921875 66.40625 34.8125 66.40625 
Q 24.859375 66.40625 19.1875 57.640625 
Q 13.53125 48.875 13.578125 34.578125 
L 13.8125 34.578125 
Q 18.796875 44.875 30.28125 44.875 
Q 39.796875 44.875 45.359375 38.71875 
Q 50.921875 32.5625 50.921875 22.65625 
Q 50.921875 12.453125 44.640625 5.609375 
Q 38.375 -1.21875 28.515625 -1.21875 
Q 17.4375 -1.21875 11.5 7.46875 
Q 5.5625 16.15625 5.5625 31.546875 
Q 5.5625 49.703125 13.234375 61.375 
Q 20.90625 73.046875 34.71875 73.046875 
Q 42.1875 73.046875 46.578125 71 
z
M 14.15625 23.53125 
Q 14.15625 15.96875 18.203125 10.671875 
Q 22.265625 5.375 28.8125 5.375 
Q 35.109375 5.375 39.03125 10.078125 
Q 42.96875 14.796875 42.96875 21.6875 
Q 42.96875 29.5 39.203125 33.859375 
Q 35.453125 38.234375 28.71875 38.234375 
Q 22.5625 38.234375 18.359375 33.953125 
Q 14.15625 29.6875 14.15625 23.53125 
z
" id="MalgunGothic-54"/>
      </defs>
      <g transform="translate(23.060938 141.677738)scale(0.1 -0.1)">
       <use xlink:href="#MalgunGothic-54"/>
       <use x="55.078125" xlink:href="#MalgunGothic-48"/>
       <use x="110.15625" xlink:href="#MalgunGothic-48"/>
       <use x="165.234375" xlink:href="#MalgunGothic-48"/>
       <use x="220.3125" xlink:href="#MalgunGothic-48"/>
      </g>
     </g>
    </g>
    <g id="ytick_6">
     <g id="line2d_14">
      <g>
       <use style="stroke:#000000;stroke-width:0.8;" x="57.6" xlink:href="#m9265c04762" y="104.130675"/>
      </g>
     </g>
     <g id="text_14">
      <!-- 70000 -->
      <g transform="translate(23.060938 107.926768)scale(0.1 -0.1)">
       <use xlink:href="#MalgunGothic-55"/>
       <use x="55.078125" xlink:href="#MalgunGothic-48"/>
       <use x="110.15625" xlink:href="#MalgunGothic-48"/>
       <use x="165.234375" xlink:href="#MalgunGothic-48"/>
       <use x="220.3125" xlink:href="#MalgunGothic-48"/>
      </g>
     </g>
    </g>
    <g id="ytick_7">
     <g id="line2d_15">
      <g>
       <use style="stroke:#000000;stroke-width:0.8;" x="57.6" xlink:href="#m9265c04762" y="70.379705"/>
      </g>
     </g>
     <g id="text_15">
      <!-- 80000 -->
      <defs>
       <path d="M 4.734375 20.015625 
Q 4.734375 26.078125 8.421875 31.421875 
Q 12.109375 36.765625 18.015625 38.96875 
Q 13.375 41.359375 10.546875 45.546875 
Q 7.71875 49.75 7.71875 54.6875 
Q 7.71875 59.8125 10.296875 64.03125 
Q 12.890625 68.265625 17.53125 70.65625 
Q 22.171875 73.046875 27.78125 73.046875 
Q 36.46875 73.046875 42.1875 67.84375 
Q 47.90625 62.640625 47.90625 54.6875 
Q 47.90625 49.703125 45.015625 45.53125 
Q 42.140625 41.359375 37.703125 38.96875 
Q 43.5625 36.71875 47.21875 31.390625 
Q 50.875 26.078125 50.875 20.015625 
Q 50.875 10.5 44.421875 4.640625 
Q 37.984375 -1.21875 27.78125 -1.21875 
Q 17.671875 -1.21875 11.203125 4.703125 
Q 4.734375 10.640625 4.734375 20.015625 
z
M 12.640625 20.75 
Q 12.640625 13.71875 16.890625 9.546875 
Q 21.140625 5.375 27.828125 5.375 
Q 34.46875 5.375 38.78125 9.671875 
Q 43.109375 13.96875 43.109375 20.75 
Q 43.109375 27.046875 38.78125 31.421875 
Q 34.46875 35.796875 27.828125 35.796875 
Q 21.4375 35.796875 17.03125 31.5625 
Q 12.640625 27.34375 12.640625 20.75 
z
M 15.671875 54.046875 
Q 15.671875 48.828125 19.28125 45.3125 
Q 22.90625 41.796875 27.828125 41.796875 
Q 32.765625 41.796875 36.40625 45.3125 
Q 40.046875 48.828125 40.046875 54.046875 
Q 40.046875 59.421875 36.578125 62.90625 
Q 33.109375 66.40625 27.828125 66.40625 
Q 22.65625 66.40625 19.15625 62.953125 
Q 15.671875 59.515625 15.671875 54.046875 
z
" id="MalgunGothic-56"/>
      </defs>
      <g transform="translate(23.060938 74.175799)scale(0.1 -0.1)">
       <use xlink:href="#MalgunGothic-56"/>
       <use x="55.078125" xlink:href="#MalgunGothic-48"/>
       <use x="110.15625" xlink:href="#MalgunGothic-48"/>
       <use x="165.234375" xlink:href="#MalgunGothic-48"/>
       <use x="220.3125" xlink:href="#MalgunGothic-48"/>
      </g>
     </g>
    </g>
   </g>
   <g id="line2d_16">
    <path clip-path="url(#p7677a99ca2)" d="M 57.6 205.721093 
L 69.914483 205.889847 
L 119.172414 202.85226 
L 131.486897 204.708564 
L 143.801379 209.602454 
L 156.115862 208.589925 
L 168.430345 207.408641 
L 205.373793 203.021015 
L 217.688276 202.85226 
L 230.002759 200.489692 
L 242.317241 198.970899 
L 254.631724 197.789615 
L 291.575172 197.28335 
L 303.889655 199.477163 
L 316.204138 198.464634 
L 328.518621 202.008486 
L 340.833103 205.046073 
L 377.776552 198.633389 
L 390.091034 196.439576 
L 402.405517 200.152183 
L 414.72 195.595802 
" style="fill:none;stroke:#1f77b4;stroke-linecap:square;stroke-width:1.5;"/>
   </g>
   <g id="line2d_17">
    <path clip-path="url(#p7677a99ca2)" d="M 57.6 262.928986 
L 69.914483 262.928986 
L 119.172414 262.760231 
L 131.486897 262.253966 
L 143.801379 262.928986 
L 156.115862 263.266495 
L 168.430345 263.097741 
L 205.373793 262.422721 
L 217.688276 262.591476 
L 230.002759 262.422721 
L 242.317241 263.097741 
L 254.631724 262.253966 
L 291.575172 262.928986 
L 303.889655 262.928986 
L 316.204138 263.266495 
L 328.518621 264.11027 
L 340.833103 265.797818 
L 377.776552 264.954044 
L 390.091034 263.941515 
L 402.405517 263.266495 
L 414.72 263.097741 
" style="fill:none;stroke:#ff7f0e;stroke-linecap:square;stroke-width:1.5;"/>
   </g>
   <g id="line2d_18">
    <path clip-path="url(#p7677a99ca2)" d="M 57.6 59.916905 
L 69.914483 57.554337 
L 119.172414 58.566866 
L 131.486897 60.254414 
L 143.801379 63.292002 
L 156.115862 63.967021 
L 168.430345 62.616982 
L 205.373793 60.254414 
L 217.688276 59.916905 
L 230.002759 57.216827 
L 242.317241 53.166711 
L 254.631724 52.154182 
L 291.575172 55.866788 
L 303.889655 59.241885 
L 316.204138 60.254414 
L 328.518621 62.954492 
L 340.833103 67.004608 
L 377.776552 61.266944 
L 390.091034 58.904376 
L 402.405517 59.241885 
L 414.72 56.879318 
" style="fill:none;stroke:#2ca02c;stroke-linecap:square;stroke-width:1.5;"/>
   </g>
   <g id="patch_3">
    <path d="M 57.6 276.48 
L 57.6 41.472 
" style="fill:none;stroke:#000000;stroke-linecap:square;stroke-linejoin:miter;stroke-width:0.8;"/>
   </g>
   <g id="patch_4">
    <path d="M 414.72 276.48 
L 414.72 41.472 
" style="fill:none;stroke:#000000;stroke-linecap:square;stroke-linejoin:miter;stroke-width:0.8;"/>
   </g>
   <g id="patch_5">
    <path d="M 57.6 276.48 
L 414.72 276.48 
" style="fill:none;stroke:#000000;stroke-linecap:square;stroke-linejoin:miter;stroke-width:0.8;"/>
   </g>
   <g id="patch_6">
    <path d="M 57.6 41.472 
L 414.72 41.472 
" style="fill:none;stroke:#000000;stroke-linecap:square;stroke-linejoin:miter;stroke-width:0.8;"/>
   </g>
   <g id="legend_1">
    <g id="patch_7">
     <path d="M 343.9825 182.910375 
L 407.72 182.910375 
Q 409.72 182.910375 409.72 180.910375 
L 409.72 137.041625 
Q 409.72 135.041625 407.72 135.041625 
L 343.9825 135.041625 
Q 341.9825 135.041625 341.9825 137.041625 
L 341.9825 180.910375 
Q 341.9825 182.910375 343.9825 182.910375 
z
" style="fill:#ffffff;opacity:0.8;stroke:#cccccc;stroke-linejoin:miter;"/>
    </g>
    <g id="line2d_19">
     <path d="M 345.9825 143.133812 
L 365.9825 143.133812 
" style="fill:none;stroke:#1f77b4;stroke-linecap:square;stroke-width:1.5;"/>
    </g>
    <g id="line2d_20"/>
    <g id="text_16">
     <!-- KB금융 -->
     <defs>
      <path d="M 58.890625 0 
L 47.703125 0 
L 19.53125 32.953125 
Q 17.96875 34.765625 17.625 35.359375 
L 17.390625 35.359375 
L 17.390625 0 
L 9.515625 0 
L 9.515625 71.875 
L 17.390625 71.875 
L 17.390625 38.09375 
L 17.625 38.09375 
Q 18.359375 39.203125 19.53125 40.4375 
L 46.875 71.875 
L 56.6875 71.875 
L 25.53125 37.40625 
z
" id="MalgunGothic-75"/>
      <path d="M 9.515625 0 
L 9.515625 71.875 
L 29.59375 71.875 
Q 38.53125 71.875 44.015625 67.359375 
Q 49.515625 62.84375 49.515625 55.421875 
Q 49.515625 49.46875 46.265625 44.84375 
Q 43.015625 40.234375 37.15625 38.328125 
L 37.15625 38.140625 
Q 44.4375 37.359375 48.78125 32.640625 
Q 53.125 27.9375 53.125 20.609375 
Q 53.125 11.421875 46.53125 5.703125 
Q 39.9375 0 29.984375 0 
z
M 17.390625 64.5 
L 17.390625 40.921875 
L 26.125 40.921875 
Q 33.34375 40.921875 37.296875 44.359375 
Q 41.265625 47.796875 41.265625 53.859375 
Q 41.265625 64.5 27.34375 64.5 
z
M 17.390625 33.640625 
L 17.390625 7.328125 
L 29.046875 7.328125 
Q 36.46875 7.328125 40.671875 10.90625 
Q 44.875 14.5 44.875 20.703125 
Q 44.875 33.640625 27.15625 33.640625 
z
" id="MalgunGothic-66"/>
      <path d="M 6.296875 41.609375 
L 6.296875 48.1875 
L 71.296875 48.1875 
Q 72.40625 59.421875 72.40625 75.296875 
L 20.90625 75.296875 
L 20.90625 81.78125 
L 79.6875 81.78125 
Q 79.6875 63.765625 78.421875 48.1875 
L 93.703125 48.1875 
L 93.703125 41.609375 
z
M 21.09375 -6.5 
L 21.09375 29 
L 79.296875 29 
L 79.296875 -6.5 
z
M 72.125 22.609375 
L 28.328125 22.609375 
L 28.328125 0 
L 72.125 0 
z
" id="MalgunGothic-44552"/>
      <path d="M 50 50 
Q 35.359375 50 27.78125 54.6875 
Q 20.21875 59.375 20.21875 67.578125 
Q 20.21875 75.78125 27.75 80.484375 
Q 35.296875 85.203125 50 85.203125 
Q 64.703125 85.203125 72.234375 80.484375 
Q 79.78125 75.78125 79.78125 67.578125 
Q 79.78125 59.375 72.21875 54.6875 
Q 64.65625 50 50 50 
z
M 50 79 
Q 39.0625 79 33.421875 75.921875 
Q 27.78125 72.859375 27.78125 67.578125 
Q 27.78125 62.359375 33.4375 59.28125 
Q 39.109375 56.203125 50 56.203125 
Q 60.890625 56.203125 66.546875 59.28125 
Q 72.21875 62.359375 72.21875 67.578125 
Q 72.21875 72.859375 66.578125 75.921875 
Q 60.9375 79 50 79 
z
M 71.578125 35.796875 
L 71.578125 22.515625 
Q 80.328125 17.671875 80.328125 9.078125 
Q 80.328125 0.921875 72.484375 -3.734375 
Q 64.65625 -8.40625 50 -8.40625 
Q 35.359375 -8.40625 27.515625 -3.734375 
Q 19.671875 0.921875 19.671875 9.078125 
Q 19.671875 17.71875 28.421875 22.40625 
L 28.421875 35.796875 
L 6.296875 35.796875 
L 6.296875 42.390625 
L 93.703125 42.390625 
L 93.703125 35.796875 
z
M 64.40625 35.796875 
L 35.59375 35.796875 
L 35.59375 25.09375 
Q 41.5 26.609375 50 26.609375 
Q 58.5 26.609375 64.40625 25.09375 
z
M 50 20.40625 
Q 38.8125 20.40625 33.09375 17.375 
Q 27.390625 14.359375 27.390625 9.078125 
Q 27.390625 3.765625 33.15625 0.78125 
Q 38.921875 -2.203125 50 -2.203125 
Q 61.03125 -2.203125 66.8125 0.78125 
Q 72.609375 3.765625 72.609375 9.078125 
Q 72.609375 14.40625 66.875 17.40625 
Q 61.140625 20.40625 50 20.40625 
z
" id="MalgunGothic-50997"/>
     </defs>
     <g transform="translate(373.9825 146.633812)scale(0.1 -0.1)">
      <use xlink:href="#MalgunGothic-75"/>
      <use x="59.033203" xlink:href="#MalgunGothic-66"/>
      <use x="117.382812" xlink:href="#MalgunGothic-44552"/>
      <use x="217.382812" xlink:href="#MalgunGothic-50997"/>
     </g>
    </g>
    <g id="line2d_21">
     <path d="M 345.9825 158.090062 
L 365.9825 158.090062 
" style="fill:none;stroke:#ff7f0e;stroke-linecap:square;stroke-width:1.5;"/>
    </g>
    <g id="line2d_22"/>
    <g id="text_17">
     <!-- KT -->
     <defs>
      <path d="M 51.46875 64.59375 
L 30.71875 64.59375 
L 30.71875 0 
L 22.75 0 
L 22.75 64.59375 
L 2.09375 64.59375 
L 2.09375 71.875 
L 51.46875 71.875 
z
" id="MalgunGothic-84"/>
     </defs>
     <g transform="translate(373.9825 161.590062)scale(0.1 -0.1)">
      <use xlink:href="#MalgunGothic-75"/>
      <use x="59.033203" xlink:href="#MalgunGothic-84"/>
     </g>
    </g>
    <g id="line2d_23">
     <path d="M 345.9825 173.046312 
L 365.9825 173.046312 
" style="fill:none;stroke:#2ca02c;stroke-linecap:square;stroke-width:1.5;"/>
    </g>
    <g id="line2d_24"/>
    <g id="text_18">
     <!-- KT&amp;G -->
     <defs>
      <path d="M 56.109375 10.109375 
Q 45.453125 -1.171875 30.28125 -1.171875 
Q 19.09375 -1.171875 12.59375 4.34375 
Q 6.109375 9.859375 6.109375 19.4375 
Q 6.109375 34.328125 22.75 41.5 
Q 14.453125 47.75 14.453125 56.59375 
Q 14.453125 64.15625 19.578125 68.59375 
Q 24.703125 73.046875 32.90625 73.046875 
Q 40.671875 73.046875 45.5 68.84375 
Q 50.34375 64.65625 50.34375 57.859375 
Q 50.34375 46.578125 36.53125 41.0625 
Q 47.265625 36.96875 56.6875 22.265625 
Q 64.84375 34.078125 64.84375 49.265625 
Q 64.84375 52.4375 63.96875 56.15625 
L 71.625 56.15625 
Q 72.21875 53.65625 72.21875 49.515625 
Q 72.21875 32.71875 60.640625 16.015625 
Q 65.09375 9.8125 67.671875 7.984375 
Q 70.265625 6.15625 73.640625 6.15625 
Q 75.390625 6.15625 79.6875 7.5625 
L 79.6875 0.203125 
Q 76.265625 -1.171875 72.3125 -1.171875 
Q 67.921875 -1.171875 64.53125 0.875 
Q 61.140625 2.9375 56.109375 10.109375 
z
M 30.171875 44.390625 
Q 43.015625 48.875 43.015625 57.125 
Q 43.015625 61.625 40.0625 64.1875 
Q 37.109375 66.75 32.90625 66.75 
Q 27.875 66.75 24.84375 63.984375 
Q 21.828125 61.234375 21.828125 56.640625 
Q 21.828125 48.96875 30.171875 44.390625 
z
M 52.34375 15.96875 
Q 45.703125 26.3125 40.859375 30.609375 
Q 36.03125 34.90625 28.765625 37.59375 
Q 20.703125 34.46875 17.328125 30.25 
Q 13.96875 26.03125 13.96875 19.734375 
Q 13.96875 13.28125 18.4375 9.46875 
Q 22.90625 5.671875 30.21875 5.671875 
Q 43.40625 5.671875 52.34375 15.96875 
z
" id="MalgunGothic-38"/>
      <path d="M 62.84375 4.9375 
Q 52.09375 -1.21875 38.921875 -1.21875 
Q 23.828125 -1.21875 14.296875 8.71875 
Q 4.78125 18.65625 4.78125 34.96875 
Q 4.78125 51.609375 15.296875 62.328125 
Q 25.828125 73.046875 41.890625 73.046875 
Q 53.953125 73.046875 61.53125 69.1875 
L 61.53125 60.25 
Q 52.828125 65.765625 40.921875 65.765625 
Q 28.71875 65.765625 20.90625 57.359375 
Q 13.09375 48.96875 13.09375 35.59375 
Q 13.09375 21.734375 20.3125 13.859375 
Q 27.546875 6 40.046875 6 
Q 48.875 6 54.9375 9.46875 
L 54.9375 30.03125 
L 39.109375 30.03125 
L 39.109375 37.25 
L 62.84375 37.25 
z
" id="MalgunGothic-71"/>
     </defs>
     <g transform="translate(373.9825 176.546312)scale(0.1 -0.1)">
      <use xlink:href="#MalgunGothic-75"/>
      <use x="59.033203" xlink:href="#MalgunGothic-84"/>
      <use x="112.402344" xlink:href="#MalgunGothic-38"/>
      <use x="194.189453" xlink:href="#MalgunGothic-71"/>
     </g>
    </g>
   </g>
  </g>
 </g>
 <defs>
  <clipPath id="p7677a99ca2">
   <rect height="235.008" width="357.12" x="57.6" y="41.472"/>
  </clipPath>
 </defs>
</svg>
