<?xml version="1.0" encoding="utf-8" standalone="no"?>
<!DOCTYPE svg PUBLIC "-//W3C//DTD SVG 1.1//EN"
  "http://www.w3.org/Graphics/SVG/1.1/DTD/svg11.dtd">
<!-- Created with matplotlib (https://matplotlib.org/) -->
<svg height="345.6pt" version="1.1" viewBox="0 0 460.8 345.6" width="460.8pt" xmlns="http://www.w3.org/2000/svg" xmlns:xlink="http://www.w3.org/1999/xlink">
 <metadata>
  <rdf:RDF xmlns:cc="http://creativecommons.org/ns#" xmlns:dc="http://purl.org/dc/elements/1.1/" xmlns:rdf="http://www.w3.org/1999/02/22-rdf-syntax-ns#">
   <cc:Work>
    <dc:type rdf:resource="http://purl.org/dc/dcmitype/StillImage"/>
    <dc:date>2020-12-18T13:59:09.940171</dc:date>
    <dc:format>image/svg+xml</dc:format>
    <dc:creator>
     <cc:Agent>
      <dc:title>Matplotlib v3.3.1, https://matplotlib.org/</dc:title>
     </cc:Agent>
    </dc:creator>
   </cc:Work>
  </rdf:RDF>
 </metadata>
 <defs>
  <style type="text/css">*{stroke-linecap:butt;stroke-linejoin:round;}</style>
 </defs>
 <g id="figure_1">
  <g id="patch_1">
   <path d="M 0 345.6 
L 460.8 345.6 
L 460.8 0 
L 0 0 
z
" style="fill:#ffffff;"/>
  </g>
  <g id="axes_1">
   <g id="patch_2">
    <path d="M 57.6 307.584 
L 414.72 307.584 
L 414.72 41.472 
L 57.6 41.472 
z
" style="fill:#ffffff;"/>
   </g>
   <g id="matplotlib.axis_1">
    <g id="xtick_1">
     <g id="line2d_1">
      <defs>
       <path d="M 0 0 
L 0 3.5 
" id="m3485ed6372" style="stroke:#000000;stroke-width:0.8;"/>
      </defs>
      <g>
       <use style="stroke:#000000;stroke-width:0.8;" x="57.6" xlink:href="#m3485ed6372" y="307.584"/>
      </g>
     </g>
    </g>
    <g id="xtick_2">
     <g id="line2d_2">
      <g>
       <use style="stroke:#000000;stroke-width:0.8;" x="203.694545" xlink:href="#m3485ed6372" y="307.584"/>
      </g>
     </g>
     <g id="text_1">
      <!--  -->
      <g transform="translate(203.694545 322.176187)scale(0.1 -0.1)"/>
      <!--  -->
      <g transform="translate(203.694545 333.650875)scale(0.1 -0.1)"/>
      <!-- Nov -->
      <g transform="translate(194.436733 345.125563)scale(0.1 -0.1)">
       <defs>
        <path d="M 67 0 
L 57.078125 0 
L 19.578125 58.015625 
Q 18.40625 59.8125 17.328125 62.5 
L 17.09375 62.5 
Q 17.4375 59.71875 17.4375 52.6875 
L 17.4375 0 
L 9.515625 0 
L 9.515625 71.875 
L 19.96875 71.875 
L 56.453125 14.65625 
Q 58.984375 10.6875 59.328125 9.90625 
L 59.515625 9.90625 
Q 58.984375 13.484375 58.984375 20.5625 
L 58.984375 71.875 
L 67 71.875 
z
" id="MalgunGothic-78"/>
        <path d="M 4.9375 25 
Q 4.9375 37.796875 11.890625 45.140625 
Q 18.84375 52.484375 30.90625 52.484375 
Q 42.140625 52.484375 48.609375 45.421875 
Q 55.078125 38.375 55.078125 25.78125 
Q 55.078125 13.578125 48.09375 6.171875 
Q 41.109375 -1.21875 29.6875 -1.21875 
Q 18.5 -1.21875 11.71875 6 
Q 4.9375 13.234375 4.9375 25 
z
M 12.796875 25.34375 
Q 12.796875 16.265625 17.546875 10.8125 
Q 22.3125 5.375 30.21875 5.375 
Q 38.421875 5.375 42.796875 10.625 
Q 47.171875 15.875 47.171875 25.53125 
Q 47.171875 35.25 42.765625 40.59375 
Q 38.375 45.953125 30.21875 45.953125 
Q 22.265625 45.953125 17.53125 40.421875 
Q 12.796875 34.90625 12.796875 25.34375 
z
" id="MalgunGothic-111"/>
        <path d="M 48.1875 51.3125 
L 27.640625 0 
L 20.21875 0 
L 0.734375 51.3125 
L 9.28125 51.3125 
L 22.515625 13.625 
Q 23.921875 9.515625 24.3125 6.640625 
L 24.5625 6.640625 
Q 25.046875 10.453125 26.125 13.484375 
L 40.046875 51.3125 
z
" id="MalgunGothic-118"/>
       </defs>
       <use xlink:href="#MalgunGothic-78"/>
       <use x="76.513672" xlink:href="#MalgunGothic-111"/>
       <use x="136.425781" xlink:href="#MalgunGothic-118"/>
      </g>
      <!-- 2020 -->
      <g transform="translate(192.67892 356.60025)scale(0.1 -0.1)">
       <defs>
        <path d="M 39.359375 52.6875 
Q 39.359375 59.125 35.546875 62.78125 
Q 31.734375 66.453125 25.4375 66.453125 
Q 20.953125 66.453125 16.453125 64.125 
Q 11.96875 61.8125 8.34375 57.765625 
L 8.34375 66.15625 
Q 15.328125 73.046875 26.421875 73.046875 
Q 35.640625 73.046875 41.28125 67.71875 
Q 46.921875 62.40625 46.921875 53.375 
Q 46.921875 45.609375 43.3125 39.765625 
Q 39.703125 33.9375 31 27.734375 
Q 22.796875 21.96875 19.59375 18.984375 
Q 16.40625 16.015625 15.109375 13.34375 
Q 13.8125 10.6875 13.8125 7.03125 
L 48.6875 7.03125 
L 48.6875 0 
L 5.5625 0 
L 5.5625 3.515625 
Q 5.5625 9.421875 7.203125 13.59375 
Q 8.84375 17.78125 12.671875 21.75 
Q 16.5 25.734375 24.953125 31.59375 
Q 32.671875 36.921875 36.015625 41.71875 
Q 39.359375 46.53125 39.359375 52.6875 
z
" id="MalgunGothic-50"/>
        <path d="M 4.34375 34.46875 
Q 4.34375 53.515625 10.546875 63.28125 
Q 16.75 73.046875 28.421875 73.046875 
Q 50.828125 73.046875 50.828125 36.234375 
Q 50.828125 18.0625 44.59375 8.421875 
Q 38.375 -1.21875 26.8125 -1.21875 
Q 15.875 -1.21875 10.109375 8.125 
Q 4.34375 17.484375 4.34375 34.46875 
z
M 12.25 34.859375 
Q 12.25 5.375 27.640625 5.375 
Q 42.921875 5.375 42.921875 35.296875 
Q 42.921875 66.40625 28.03125 66.40625 
Q 12.25 66.40625 12.25 34.859375 
z
" id="MalgunGothic-48"/>
       </defs>
       <use xlink:href="#MalgunGothic-50"/>
       <use x="55.078125" xlink:href="#MalgunGothic-48"/>
       <use x="110.15625" xlink:href="#MalgunGothic-50"/>
       <use x="165.234375" xlink:href="#MalgunGothic-48"/>
      </g>
     </g>
    </g>
    <g id="xtick_3">
     <g id="line2d_3">
      <g>
       <use style="stroke:#000000;stroke-width:0.8;" x="414.72" xlink:href="#m3485ed6372" y="307.584"/>
      </g>
     </g>
    </g>
    <g id="xtick_4">
     <g id="line2d_4">
      <defs>
       <path d="M 0 0 
L 0 2 
" id="m4dd166e2cd" style="stroke:#000000;stroke-width:0.6;"/>
      </defs>
      <g>
       <use style="stroke:#000000;stroke-width:0.6;" x="73.832727" xlink:href="#m4dd166e2cd" y="307.584"/>
      </g>
     </g>
    </g>
    <g id="xtick_5">
     <g id="line2d_5">
      <g>
       <use style="stroke:#000000;stroke-width:0.6;" x="90.065455" xlink:href="#m4dd166e2cd" y="307.584"/>
      </g>
     </g>
    </g>
    <g id="xtick_6">
     <g id="line2d_6">
      <g>
       <use style="stroke:#000000;stroke-width:0.6;" x="106.298182" xlink:href="#m4dd166e2cd" y="307.584"/>
      </g>
     </g>
    </g>
    <g id="xtick_7">
     <g id="line2d_7">
      <g>
       <use style="stroke:#000000;stroke-width:0.6;" x="122.530909" xlink:href="#m4dd166e2cd" y="307.584"/>
      </g>
     </g>
     <g id="text_2">
      <!-- 26 -->
      <g transform="translate(117.023097 320.576187)scale(0.1 -0.1)">
       <defs>
        <path d="M 46.578125 63.578125 
Q 40.921875 66.40625 34.8125 66.40625 
Q 24.859375 66.40625 19.1875 57.640625 
Q 13.53125 48.875 13.578125 34.578125 
L 13.8125 34.578125 
Q 18.796875 44.875 30.28125 44.875 
Q 39.796875 44.875 45.359375 38.71875 
Q 50.921875 32.5625 50.921875 22.65625 
Q 50.921875 12.453125 44.640625 5.609375 
Q 38.375 -1.21875 28.515625 -1.21875 
Q 17.4375 -1.21875 11.5 7.46875 
Q 5.5625 16.15625 5.5625 31.546875 
Q 5.5625 49.703125 13.234375 61.375 
Q 20.90625 73.046875 34.71875 73.046875 
Q 42.1875 73.046875 46.578125 71 
z
M 14.15625 23.53125 
Q 14.15625 15.96875 18.203125 10.671875 
Q 22.265625 5.375 28.8125 5.375 
Q 35.109375 5.375 39.03125 10.078125 
Q 42.96875 14.796875 42.96875 21.6875 
Q 42.96875 29.5 39.203125 33.859375 
Q 35.453125 38.234375 28.71875 38.234375 
Q 22.5625 38.234375 18.359375 33.953125 
Q 14.15625 29.6875 14.15625 23.53125 
z
" id="MalgunGothic-54"/>
       </defs>
       <use xlink:href="#MalgunGothic-50"/>
       <use x="55.078125" xlink:href="#MalgunGothic-54"/>
      </g>
     </g>
    </g>
    <g id="xtick_8">
     <g id="line2d_8">
      <g>
       <use style="stroke:#000000;stroke-width:0.6;" x="138.763636" xlink:href="#m4dd166e2cd" y="307.584"/>
      </g>
     </g>
    </g>
    <g id="xtick_9">
     <g id="line2d_9">
      <g>
       <use style="stroke:#000000;stroke-width:0.6;" x="154.996364" xlink:href="#m4dd166e2cd" y="307.584"/>
      </g>
     </g>
    </g>
    <g id="xtick_10">
     <g id="line2d_10">
      <g>
       <use style="stroke:#000000;stroke-width:0.6;" x="171.229091" xlink:href="#m4dd166e2cd" y="307.584"/>
      </g>
     </g>
    </g>
    <g id="xtick_11">
     <g id="line2d_11">
      <g>
       <use style="stroke:#000000;stroke-width:0.6;" x="187.461818" xlink:href="#m4dd166e2cd" y="307.584"/>
      </g>
     </g>
    </g>
    <g id="xtick_12">
     <g id="line2d_12">
      <g>
       <use style="stroke:#000000;stroke-width:0.6;" x="219.927273" xlink:href="#m4dd166e2cd" y="307.584"/>
      </g>
     </g>
    </g>
    <g id="xtick_13">
     <g id="line2d_13">
      <g>
       <use style="stroke:#000000;stroke-width:0.6;" x="236.16" xlink:href="#m4dd166e2cd" y="307.584"/>
      </g>
     </g>
    </g>
    <g id="xtick_14">
     <g id="line2d_14">
      <g>
       <use style="stroke:#000000;stroke-width:0.6;" x="252.392727" xlink:href="#m4dd166e2cd" y="307.584"/>
      </g>
     </g>
    </g>
    <g id="xtick_15">
     <g id="line2d_15">
      <g>
       <use style="stroke:#000000;stroke-width:0.6;" x="268.625455" xlink:href="#m4dd166e2cd" y="307.584"/>
      </g>
     </g>
    </g>
    <g id="xtick_16">
     <g id="line2d_16">
      <g>
       <use style="stroke:#000000;stroke-width:0.6;" x="284.858182" xlink:href="#m4dd166e2cd" y="307.584"/>
      </g>
     </g>
     <g id="text_3">
      <!-- 09 -->
      <g transform="translate(279.350369 320.576187)scale(0.1 -0.1)">
       <defs>
        <path d="M 8.6875 8.796875 
Q 14.703125 5.375 21.34375 5.375 
Q 31.15625 5.375 36.671875 13.359375 
Q 42.1875 21.34375 42.1875 36.140625 
Q 42.09375 36.03125 42 36.140625 
Q 37.3125 26.765625 25.828125 26.765625 
Q 16.546875 26.765625 10.65625 33.125 
Q 4.78125 39.5 4.78125 49.125 
Q 4.78125 59.46875 11.109375 66.25 
Q 17.4375 73.046875 27.6875 73.046875 
Q 38.53125 73.046875 44.265625 64.546875 
Q 50 56.0625 50 40.28125 
Q 50 20.609375 42.453125 9.6875 
Q 34.90625 -1.21875 21 -1.21875 
Q 13.765625 -1.21875 8.6875 1.21875 
z
M 12.703125 50.296875 
Q 12.703125 42.828125 16.609375 38.28125 
Q 20.515625 33.734375 27.484375 33.734375 
Q 33.546875 33.734375 37.59375 37.765625 
Q 41.65625 41.796875 41.65625 47.609375 
Q 41.65625 55.5625 37.671875 60.984375 
Q 33.6875 66.40625 26.953125 66.40625 
Q 20.65625 66.40625 16.671875 61.6875 
Q 12.703125 56.984375 12.703125 50.296875 
z
" id="MalgunGothic-57"/>
       </defs>
       <use xlink:href="#MalgunGothic-48"/>
       <use x="55.078125" xlink:href="#MalgunGothic-57"/>
      </g>
     </g>
    </g>
    <g id="xtick_17">
     <g id="line2d_17">
      <g>
       <use style="stroke:#000000;stroke-width:0.6;" x="301.090909" xlink:href="#m4dd166e2cd" y="307.584"/>
      </g>
     </g>
    </g>
    <g id="xtick_18">
     <g id="line2d_18">
      <g>
       <use style="stroke:#000000;stroke-width:0.6;" x="317.323636" xlink:href="#m4dd166e2cd" y="307.584"/>
      </g>
     </g>
    </g>
    <g id="xtick_19">
     <g id="line2d_19">
      <g>
       <use style="stroke:#000000;stroke-width:0.6;" x="333.556364" xlink:href="#m4dd166e2cd" y="307.584"/>
      </g>
     </g>
    </g>
    <g id="xtick_20">
     <g id="line2d_20">
      <g>
       <use style="stroke:#000000;stroke-width:0.6;" x="349.789091" xlink:href="#m4dd166e2cd" y="307.584"/>
      </g>
     </g>
    </g>
    <g id="xtick_21">
     <g id="line2d_21">
      <g>
       <use style="stroke:#000000;stroke-width:0.6;" x="366.021818" xlink:href="#m4dd166e2cd" y="307.584"/>
      </g>
     </g>
     <g id="text_4">
      <!-- 16 -->
      <g transform="translate(360.514006 320.576187)scale(0.1 -0.1)">
       <defs>
        <path d="M 34.859375 0 
L 27.09375 0 
L 27.09375 62.0625 
Q 24.859375 59.8125 19.78125 57.203125 
Q 14.703125 54.59375 10.5 53.5625 
L 10.5 61.859375 
Q 15.875 63.375 22.015625 66.796875 
Q 28.171875 70.21875 31.734375 73.4375 
L 34.859375 73.4375 
z
" id="MalgunGothic-49"/>
       </defs>
       <use xlink:href="#MalgunGothic-49"/>
       <use x="55.078125" xlink:href="#MalgunGothic-54"/>
      </g>
     </g>
    </g>
    <g id="xtick_22">
     <g id="line2d_22">
      <g>
       <use style="stroke:#000000;stroke-width:0.6;" x="382.254545" xlink:href="#m4dd166e2cd" y="307.584"/>
      </g>
     </g>
    </g>
    <g id="xtick_23">
     <g id="line2d_23">
      <g>
       <use style="stroke:#000000;stroke-width:0.6;" x="398.487273" xlink:href="#m4dd166e2cd" y="307.584"/>
      </g>
     </g>
    </g>
   </g>
   <g id="matplotlib.axis_2">
    <g id="ytick_1">
     <g id="line2d_24">
      <defs>
       <path d="M 0 0 
L -3.5 0 
" id="m5f328fa73f" style="stroke:#000000;stroke-width:0.8;"/>
      </defs>
      <g>
       <use style="stroke:#000000;stroke-width:0.8;" x="57.6" xlink:href="#m5f328fa73f" y="307.495664"/>
      </g>
     </g>
     <g id="text_5">
      <!-- 0 -->
      <g transform="translate(45.092188 311.291758)scale(0.1 -0.1)">
       <use xlink:href="#MalgunGothic-48"/>
      </g>
     </g>
    </g>
    <g id="ytick_2">
     <g id="line2d_25">
      <g>
       <use style="stroke:#000000;stroke-width:0.8;" x="57.6" xlink:href="#m5f328fa73f" y="277.551364"/>
      </g>
     </g>
     <g id="text_6">
      <!-- 100000 -->
      <g transform="translate(17.553125 281.347458)scale(0.1 -0.1)">
       <use xlink:href="#MalgunGothic-49"/>
       <use x="55.078125" xlink:href="#MalgunGothic-48"/>
       <use x="110.15625" xlink:href="#MalgunGothic-48"/>
       <use x="165.234375" xlink:href="#MalgunGothic-48"/>
       <use x="220.3125" xlink:href="#MalgunGothic-48"/>
       <use x="275.390625" xlink:href="#MalgunGothic-48"/>
      </g>
     </g>
    </g>
    <g id="ytick_3">
     <g id="line2d_26">
      <g>
       <use style="stroke:#000000;stroke-width:0.8;" x="57.6" xlink:href="#m5f328fa73f" y="247.607064"/>
      </g>
     </g>
     <g id="text_7">
      <!-- 200000 -->
      <g transform="translate(17.553125 251.403158)scale(0.1 -0.1)">
       <use xlink:href="#MalgunGothic-50"/>
       <use x="55.078125" xlink:href="#MalgunGothic-48"/>
       <use x="110.15625" xlink:href="#MalgunGothic-48"/>
       <use x="165.234375" xlink:href="#MalgunGothic-48"/>
       <use x="220.3125" xlink:href="#MalgunGothic-48"/>
       <use x="275.390625" xlink:href="#MalgunGothic-48"/>
      </g>
     </g>
    </g>
    <g id="ytick_4">
     <g id="line2d_27">
      <g>
       <use style="stroke:#000000;stroke-width:0.8;" x="57.6" xlink:href="#m5f328fa73f" y="217.662764"/>
      </g>
     </g>
     <g id="text_8">
      <!-- 300000 -->
      <g transform="translate(17.553125 221.458858)scale(0.1 -0.1)">
       <defs>
        <path d="M 6.5 11.234375 
Q 13.921875 5.375 23.09375 5.375 
Q 30.609375 5.375 35.21875 9.171875 
Q 39.84375 12.984375 39.84375 19.484375 
Q 39.84375 33.890625 19.578125 33.890625 
L 13.625 33.890625 
L 13.625 40.484375 
L 19.28125 40.484375 
Q 37.3125 40.484375 37.3125 53.953125 
Q 37.3125 66.40625 23.578125 66.40625 
Q 15.96875 66.40625 9.28125 61.1875 
L 9.28125 68.953125 
Q 16.109375 73.046875 25.53125 73.046875 
Q 34.125 73.046875 39.671875 68.3125 
Q 45.21875 63.578125 45.21875 55.953125 
Q 45.21875 41.84375 30.8125 37.640625 
L 30.8125 37.5 
Q 38.578125 36.8125 43.1875 32.078125 
Q 47.796875 27.34375 47.796875 20.3125 
Q 47.796875 10.5 40.6875 4.640625 
Q 33.59375 -1.21875 22.65625 -1.21875 
Q 12.59375 -1.21875 6.5 2.640625 
z
" id="MalgunGothic-51"/>
       </defs>
       <use xlink:href="#MalgunGothic-51"/>
       <use x="55.078125" xlink:href="#MalgunGothic-48"/>
       <use x="110.15625" xlink:href="#MalgunGothic-48"/>
       <use x="165.234375" xlink:href="#MalgunGothic-48"/>
       <use x="220.3125" xlink:href="#MalgunGothic-48"/>
       <use x="275.390625" xlink:href="#MalgunGothic-48"/>
      </g>
     </g>
    </g>
    <g id="ytick_5">
     <g id="line2d_28">
      <g>
       <use style="stroke:#000000;stroke-width:0.8;" x="57.6" xlink:href="#m5f328fa73f" y="187.718464"/>
      </g>
     </g>
     <g id="text_9">
      <!-- 400000 -->
      <g transform="translate(17.553125 191.514558)scale(0.1 -0.1)">
       <defs>
        <path d="M 42.234375 71.875 
L 42.234375 24.421875 
L 51.703125 24.421875 
L 51.703125 17.390625 
L 42.234375 17.390625 
L 42.234375 0 
L 34.578125 0 
L 34.578125 17.390625 
L 0.78125 17.390625 
L 0.78125 23.96875 
Q 11.375 35.890625 20.234375 48.578125 
Q 29.109375 61.28125 33.9375 71.875 
z
M 9.765625 24.421875 
L 34.578125 24.421875 
L 34.578125 59.859375 
Q 25.203125 43.5625 14.984375 30.953125 
z
" id="MalgunGothic-52"/>
       </defs>
       <use xlink:href="#MalgunGothic-52"/>
       <use x="55.078125" xlink:href="#MalgunGothic-48"/>
       <use x="110.15625" xlink:href="#MalgunGothic-48"/>
       <use x="165.234375" xlink:href="#MalgunGothic-48"/>
       <use x="220.3125" xlink:href="#MalgunGothic-48"/>
       <use x="275.390625" xlink:href="#MalgunGothic-48"/>
      </g>
     </g>
    </g>
    <g id="ytick_6">
     <g id="line2d_29">
      <g>
       <use style="stroke:#000000;stroke-width:0.8;" x="57.6" xlink:href="#m5f328fa73f" y="157.774164"/>
      </g>
     </g>
     <g id="text_10">
      <!-- 500000 -->
      <g transform="translate(17.553125 161.570258)scale(0.1 -0.1)">
       <defs>
        <path d="M 48 21.921875 
Q 48 11.28125 41.1875 5.03125 
Q 34.375 -1.21875 22.953125 -1.21875 
Q 12.9375 -1.21875 8.0625 1.765625 
L 8.0625 10.15625 
Q 15.53125 5.375 23.046875 5.375 
Q 30.765625 5.375 35.46875 9.84375 
Q 40.1875 14.3125 40.1875 21.4375 
Q 40.1875 28.71875 35.390625 32.6875 
Q 30.609375 36.671875 21.578125 36.671875 
Q 15.53125 36.671875 9.421875 35.9375 
L 11.859375 71.875 
L 44.828125 71.875 
L 44.828125 64.796875 
L 18.84375 64.796875 
L 17.28125 43.171875 
Q 21.046875 43.5 24.171875 43.5 
Q 35.359375 43.5 41.671875 37.71875 
Q 48 31.9375 48 21.921875 
z
" id="MalgunGothic-53"/>
       </defs>
       <use xlink:href="#MalgunGothic-53"/>
       <use x="55.078125" xlink:href="#MalgunGothic-48"/>
       <use x="110.15625" xlink:href="#MalgunGothic-48"/>
       <use x="165.234375" xlink:href="#MalgunGothic-48"/>
       <use x="220.3125" xlink:href="#MalgunGothic-48"/>
       <use x="275.390625" xlink:href="#MalgunGothic-48"/>
      </g>
     </g>
    </g>
    <g id="ytick_7">
     <g id="line2d_30">
      <g>
       <use style="stroke:#000000;stroke-width:0.8;" x="57.6" xlink:href="#m5f328fa73f" y="127.829864"/>
      </g>
     </g>
     <g id="text_11">
      <!-- 600000 -->
      <g transform="translate(17.553125 131.625958)scale(0.1 -0.1)">
       <use xlink:href="#MalgunGothic-54"/>
       <use x="55.078125" xlink:href="#MalgunGothic-48"/>
       <use x="110.15625" xlink:href="#MalgunGothic-48"/>
       <use x="165.234375" xlink:href="#MalgunGothic-48"/>
       <use x="220.3125" xlink:href="#MalgunGothic-48"/>
       <use x="275.390625" xlink:href="#MalgunGothic-48"/>
      </g>
     </g>
    </g>
    <g id="ytick_8">
     <g id="line2d_31">
      <g>
       <use style="stroke:#000000;stroke-width:0.8;" x="57.6" xlink:href="#m5f328fa73f" y="97.885564"/>
      </g>
     </g>
     <g id="text_12">
      <!-- 700000 -->
      <g transform="translate(17.553125 101.681658)scale(0.1 -0.1)">
       <defs>
        <path d="M 50.203125 67.140625 
Q 38.71875 46.96875 32.25 29.96875 
Q 25.78125 12.984375 24.21875 0 
L 15.765625 0 
Q 16.9375 8.296875 20.15625 18.375 
Q 23.390625 28.46875 28.359375 39.640625 
Q 33.34375 50.828125 41.109375 64.796875 
L 4.546875 64.796875 
L 4.546875 71.875 
L 50.203125 71.875 
z
" id="MalgunGothic-55"/>
       </defs>
       <use xlink:href="#MalgunGothic-55"/>
       <use x="55.078125" xlink:href="#MalgunGothic-48"/>
       <use x="110.15625" xlink:href="#MalgunGothic-48"/>
       <use x="165.234375" xlink:href="#MalgunGothic-48"/>
       <use x="220.3125" xlink:href="#MalgunGothic-48"/>
       <use x="275.390625" xlink:href="#MalgunGothic-48"/>
      </g>
     </g>
    </g>
    <g id="ytick_9">
     <g id="line2d_32">
      <g>
       <use style="stroke:#000000;stroke-width:0.8;" x="57.6" xlink:href="#m5f328fa73f" y="67.941264"/>
      </g>
     </g>
     <g id="text_13">
      <!-- 800000 -->
      <g transform="translate(17.553125 71.737358)scale(0.1 -0.1)">
       <defs>
        <path d="M 4.734375 20.015625 
Q 4.734375 26.078125 8.421875 31.421875 
Q 12.109375 36.765625 18.015625 38.96875 
Q 13.375 41.359375 10.546875 45.546875 
Q 7.71875 49.75 7.71875 54.6875 
Q 7.71875 59.8125 10.296875 64.03125 
Q 12.890625 68.265625 17.53125 70.65625 
Q 22.171875 73.046875 27.78125 73.046875 
Q 36.46875 73.046875 42.1875 67.84375 
Q 47.90625 62.640625 47.90625 54.6875 
Q 47.90625 49.703125 45.015625 45.53125 
Q 42.140625 41.359375 37.703125 38.96875 
Q 43.5625 36.71875 47.21875 31.390625 
Q 50.875 26.078125 50.875 20.015625 
Q 50.875 10.5 44.421875 4.640625 
Q 37.984375 -1.21875 27.78125 -1.21875 
Q 17.671875 -1.21875 11.203125 4.703125 
Q 4.734375 10.640625 4.734375 20.015625 
z
M 12.640625 20.75 
Q 12.640625 13.71875 16.890625 9.546875 
Q 21.140625 5.375 27.828125 5.375 
Q 34.46875 5.375 38.78125 9.671875 
Q 43.109375 13.96875 43.109375 20.75 
Q 43.109375 27.046875 38.78125 31.421875 
Q 34.46875 35.796875 27.828125 35.796875 
Q 21.4375 35.796875 17.03125 31.5625 
Q 12.640625 27.34375 12.640625 20.75 
z
M 15.671875 54.046875 
Q 15.671875 48.828125 19.28125 45.3125 
Q 22.90625 41.796875 27.828125 41.796875 
Q 32.765625 41.796875 36.40625 45.3125 
Q 40.046875 48.828125 40.046875 54.046875 
Q 40.046875 59.421875 36.578125 62.90625 
Q 33.109375 66.40625 27.828125 66.40625 
Q 22.65625 66.40625 19.15625 62.953125 
Q 15.671875 59.515625 15.671875 54.046875 
z
" id="MalgunGothic-56"/>
       </defs>
       <use xlink:href="#MalgunGothic-56"/>
       <use x="55.078125" xlink:href="#MalgunGothic-48"/>
       <use x="110.15625" xlink:href="#MalgunGothic-48"/>
       <use x="165.234375" xlink:href="#MalgunGothic-48"/>
       <use x="220.3125" xlink:href="#MalgunGothic-48"/>
       <use x="275.390625" xlink:href="#MalgunGothic-48"/>
      </g>
     </g>
    </g>
   </g>
   <g id="line2d_33">
    <path clip-path="url(#pfb9d70ea35)" d="M 57.6 295.293362 
L 73.832727 295.083752 
L 90.065455 294.949003 
L 106.298182 294.844198 
L 122.530909 294.799281 
L 138.763636 294.993919 
L 154.996364 294.904086 
L 171.229091 295.218501 
L 187.461818 295.488 
L 203.694545 294.919058 
L 219.927273 294.72442 
L 236.16 295.053808 
L 252.392727 294.64956 
L 268.625455 294.72442 
L 284.858182 294.634587 
L 301.090909 294.110562 
L 317.323636 293.346983 
L 333.556364 293.616481 
L 349.789091 294.035701 
L 366.021818 293.811119 
L 382.254545 293.556593 
L 398.487273 293.46676 
L 414.72 293.571565 
" style="fill:none;stroke:#1f77b4;stroke-linecap:square;stroke-width:1.5;"/>
   </g>
   <g id="line2d_34">
    <path clip-path="url(#pfb9d70ea35)" d="M 57.6 121.541561 
L 73.832727 122.739333 
L 90.065455 116.151587 
L 106.298182 112.857714 
L 122.530909 114.055486 
L 138.763636 118.247688 
L 154.996364 115.253258 
L 171.229091 112.558271 
L 187.461818 124.535991 
L 203.694545 120.942675 
L 219.927273 111.061056 
L 236.16 112.857714 
L 252.392727 104.772753 
L 268.625455 91.896704 
L 284.858182 87.704502 
L 301.090909 97.286678 
L 317.323636 100.281108 
L 333.556364 100.281108 
L 349.789091 96.388349 
L 366.021818 104.772753 
L 382.254545 102.077766 
L 398.487273 95.190577 
L 414.72 91.597261 
" style="fill:none;stroke:#ff7f0e;stroke-linecap:square;stroke-width:1.5;"/>
   </g>
   <g id="line2d_35">
    <path clip-path="url(#pfb9d70ea35)" d="M 57.6 289.439251 
L 73.832727 289.169753 
L 90.065455 288.630755 
L 106.298182 288.600811 
L 122.530909 287.882148 
L 138.763636 287.612649 
L 154.996364 287.792315 
L 171.229091 288.361257 
L 187.461818 288.570867 
L 203.694545 288.331312 
L 219.927273 288.331312 
L 236.16 288.481034 
L 252.392727 288.361257 
L 268.625455 288.451089 
L 284.858182 288.211535 
L 301.090909 287.492872 
L 317.323636 287.193429 
L 333.556364 287.55276 
L 349.789091 287.373095 
L 366.021818 286.983819 
L 382.254545 286.384933 
L 398.487273 286.055545 
L 414.72 285.037439 
" style="fill:none;stroke:#2ca02c;stroke-linecap:square;stroke-width:1.5;"/>
   </g>
   <g id="line2d_36">
    <path clip-path="url(#pfb9d70ea35)" d="M 57.6 69.737922 
L 73.832727 65.246277 
L 90.065455 64.647391 
L 106.298182 69.139036 
L 122.530909 69.139036 
L 138.763636 73.331238 
L 154.996364 67.342378 
L 171.229091 64.048505 
L 187.461818 75.127896 
L 203.694545 74.52901 
L 219.927273 73.331238 
L 236.16 56.861873 
L 252.392727 55.065215 
L 268.625455 53.568 
L 284.858182 54.765772 
L 301.090909 68.839593 
L 317.323636 67.641821 
L 333.556364 70.636251 
L 349.789091 65.54572 
L 366.021818 67.941264 
L 382.254545 71.235137 
L 398.487273 67.941264 
L 414.72 59.55686 
" style="fill:none;stroke:#d62728;stroke-linecap:square;stroke-width:1.5;"/>
   </g>
   <g id="line2d_37">
    <path clip-path="url(#pfb9d70ea35)" d="M 57.6 237.725445 
L 73.832727 236.22823 
L 90.065455 236.078509 
L 106.298182 236.078509 
L 122.530909 237.426002 
L 138.763636 237.875167 
L 154.996364 238.773496 
L 171.229091 240.869597 
L 187.461818 243.414862 
L 203.694545 243.115419 
L 219.927273 241.917647 
L 236.16 242.067369 
L 252.392727 240.719875 
L 268.625455 239.522103 
L 284.858182 239.971268 
L 301.090909 239.522103 
L 317.323636 238.474053 
L 333.556364 238.623774 
L 349.789091 238.773496 
L 366.021818 238.024888 
L 382.254545 237.875167 
L 398.487273 238.324331 
L 414.72 238.773496 
" style="fill:none;stroke:#9467bd;stroke-linecap:square;stroke-width:1.5;"/>
   </g>
   <g id="patch_3">
    <path d="M 57.6 307.584 
L 57.6 41.472 
" style="fill:none;stroke:#000000;stroke-linecap:square;stroke-linejoin:miter;stroke-width:0.8;"/>
   </g>
   <g id="patch_4">
    <path d="M 414.72 307.584 
L 414.72 41.472 
" style="fill:none;stroke:#000000;stroke-linecap:square;stroke-linejoin:miter;stroke-width:0.8;"/>
   </g>
   <g id="patch_5">
    <path d="M 57.6 307.584 
L 414.72 307.584 
" style="fill:none;stroke:#000000;stroke-linecap:square;stroke-linejoin:miter;stroke-width:0.8;"/>
   </g>
   <g id="patch_6">
    <path d="M 57.6 41.472 
L 414.72 41.472 
" style="fill:none;stroke:#000000;stroke-linecap:square;stroke-linejoin:miter;stroke-width:0.8;"/>
   </g>
   <g id="legend_1">
    <g id="patch_7">
     <path d="M 325.72 213.418625 
L 407.72 213.418625 
Q 409.72 213.418625 409.72 211.418625 
L 409.72 137.637375 
Q 409.72 135.637375 407.72 135.637375 
L 325.72 135.637375 
Q 323.72 135.637375 323.72 137.637375 
L 323.72 211.418625 
Q 323.72 213.418625 325.72 213.418625 
z
" style="fill:#ffffff;opacity:0.8;stroke:#cccccc;stroke-linejoin:miter;"/>
    </g>
    <g id="line2d_38">
     <path d="M 327.72 143.729562 
L 347.72 143.729562 
" style="fill:none;stroke:#1f77b4;stroke-linecap:square;stroke-width:1.5;"/>
    </g>
    <g id="line2d_39"/>
    <g id="text_14">
     <!-- KB금융 -->
     <g transform="translate(355.72 147.229562)scale(0.1 -0.1)">
      <defs>
       <path d="M 58.890625 0 
L 47.703125 0 
L 19.53125 32.953125 
Q 17.96875 34.765625 17.625 35.359375 
L 17.390625 35.359375 
L 17.390625 0 
L 9.515625 0 
L 9.515625 71.875 
L 17.390625 71.875 
L 17.390625 38.09375 
L 17.625 38.09375 
Q 18.359375 39.203125 19.53125 40.4375 
L 46.875 71.875 
L 56.6875 71.875 
L 25.53125 37.40625 
z
" id="MalgunGothic-75"/>
       <path d="M 9.515625 0 
L 9.515625 71.875 
L 29.59375 71.875 
Q 38.53125 71.875 44.015625 67.359375 
Q 49.515625 62.84375 49.515625 55.421875 
Q 49.515625 49.46875 46.265625 44.84375 
Q 43.015625 40.234375 37.15625 38.328125 
L 37.15625 38.140625 
Q 44.4375 37.359375 48.78125 32.640625 
Q 53.125 27.9375 53.125 20.609375 
Q 53.125 11.421875 46.53125 5.703125 
Q 39.9375 0 29.984375 0 
z
M 17.390625 64.5 
L 17.390625 40.921875 
L 26.125 40.921875 
Q 33.34375 40.921875 37.296875 44.359375 
Q 41.265625 47.796875 41.265625 53.859375 
Q 41.265625 64.5 27.34375 64.5 
z
M 17.390625 33.640625 
L 17.390625 7.328125 
L 29.046875 7.328125 
Q 36.46875 7.328125 40.671875 10.90625 
Q 44.875 14.5 44.875 20.703125 
Q 44.875 33.640625 27.15625 33.640625 
z
" id="MalgunGothic-66"/>
       <path d="M 6.296875 41.609375 
L 6.296875 48.1875 
L 71.296875 48.1875 
Q 72.40625 59.421875 72.40625 75.296875 
L 20.90625 75.296875 
L 20.90625 81.78125 
L 79.6875 81.78125 
Q 79.6875 63.765625 78.421875 48.1875 
L 93.703125 48.1875 
L 93.703125 41.609375 
z
M 21.09375 -6.5 
L 21.09375 29 
L 79.296875 29 
L 79.296875 -6.5 
z
M 72.125 22.609375 
L 28.328125 22.609375 
L 28.328125 0 
L 72.125 0 
z
" id="MalgunGothic-44552"/>
       <path d="M 50 50 
Q 35.359375 50 27.78125 54.6875 
Q 20.21875 59.375 20.21875 67.578125 
Q 20.21875 75.78125 27.75 80.484375 
Q 35.296875 85.203125 50 85.203125 
Q 64.703125 85.203125 72.234375 80.484375 
Q 79.78125 75.78125 79.78125 67.578125 
Q 79.78125 59.375 72.21875 54.6875 
Q 64.65625 50 50 50 
z
M 50 79 
Q 39.0625 79 33.421875 75.921875 
Q 27.78125 72.859375 27.78125 67.578125 
Q 27.78125 62.359375 33.4375 59.28125 
Q 39.109375 56.203125 50 56.203125 
Q 60.890625 56.203125 66.546875 59.28125 
Q 72.21875 62.359375 72.21875 67.578125 
Q 72.21875 72.859375 66.578125 75.921875 
Q 60.9375 79 50 79 
z
M 71.578125 35.796875 
L 71.578125 22.515625 
Q 80.328125 17.671875 80.328125 9.078125 
Q 80.328125 0.921875 72.484375 -3.734375 
Q 64.65625 -8.40625 50 -8.40625 
Q 35.359375 -8.40625 27.515625 -3.734375 
Q 19.671875 0.921875 19.671875 9.078125 
Q 19.671875 17.71875 28.421875 22.40625 
L 28.421875 35.796875 
L 6.296875 35.796875 
L 6.296875 42.390625 
L 93.703125 42.390625 
L 93.703125 35.796875 
z
M 64.40625 35.796875 
L 35.59375 35.796875 
L 35.59375 25.09375 
Q 41.5 26.609375 50 26.609375 
Q 58.5 26.609375 64.40625 25.09375 
z
M 50 20.40625 
Q 38.8125 20.40625 33.09375 17.375 
Q 27.390625 14.359375 27.390625 9.078125 
Q 27.390625 3.765625 33.15625 0.78125 
Q 38.921875 -2.203125 50 -2.203125 
Q 61.03125 -2.203125 66.8125 0.78125 
Q 72.609375 3.765625 72.609375 9.078125 
Q 72.609375 14.40625 66.875 17.40625 
Q 61.140625 20.40625 50 20.40625 
z
" id="MalgunGothic-50997"/>
      </defs>
      <use xlink:href="#MalgunGothic-75"/>
      <use x="59.033203" xlink:href="#MalgunGothic-66"/>
      <use x="117.382812" xlink:href="#MalgunGothic-44552"/>
      <use x="217.382812" xlink:href="#MalgunGothic-50997"/>
     </g>
    </g>
    <g id="line2d_40">
     <path d="M 327.72 158.685812 
L 347.72 158.685812 
" style="fill:none;stroke:#ff7f0e;stroke-linecap:square;stroke-width:1.5;"/>
    </g>
    <g id="line2d_41"/>
    <g id="text_15">
     <!-- LG화학 -->
     <g transform="translate(355.72 162.185812)scale(0.1 -0.1)">
      <defs>
       <path d="M 46.4375 0 
L 9.515625 0 
L 9.515625 71.875 
L 17.390625 71.875 
L 17.390625 7.234375 
L 46.4375 7.234375 
z
" id="MalgunGothic-76"/>
       <path d="M 62.84375 4.9375 
Q 52.09375 -1.21875 38.921875 -1.21875 
Q 23.828125 -1.21875 14.296875 8.71875 
Q 4.78125 18.65625 4.78125 34.96875 
Q 4.78125 51.609375 15.296875 62.328125 
Q 25.828125 73.046875 41.890625 73.046875 
Q 53.953125 73.046875 61.53125 69.1875 
L 61.53125 60.25 
Q 52.828125 65.765625 40.921875 65.765625 
Q 28.71875 65.765625 20.90625 57.359375 
Q 13.09375 48.96875 13.09375 35.59375 
Q 13.09375 21.734375 20.3125 13.859375 
Q 27.546875 6 40.046875 6 
Q 48.875 6 54.9375 9.46875 
L 54.9375 30.03125 
L 39.109375 30.03125 
L 39.109375 37.25 
L 62.84375 37.25 
z
" id="MalgunGothic-71"/>
       <path d="M 81.6875 36.921875 
L 81.6875 -8.796875 
L 74.421875 -8.796875 
L 74.421875 85.40625 
L 81.6875 85.40625 
L 81.6875 43.40625 
L 96.1875 43.40625 
L 96.1875 36.921875 
z
M 33.296875 85.015625 
L 40.484375 85.015625 
L 40.484375 72.703125 
L 64.984375 72.703125 
L 64.984375 66.21875 
L 8.6875 66.21875 
L 8.6875 72.703125 
L 33.296875 72.703125 
z
M 40.484375 27.203125 
L 40.484375 13.8125 
Q 57.625 14.0625 68.890625 14.796875 
L 69.390625 8.5 
Q 43.609375 6.984375 5.609375 6.984375 
L 4.890625 13.375 
Q 17.828125 13.375 33.203125 13.71875 
L 33.203125 27.09375 
Q 23.53125 27.984375 18.359375 32.6875 
Q 13.1875 37.40625 13.1875 44.1875 
Q 13.1875 51.8125 19.53125 56.671875 
Q 25.875 61.53125 36.921875 61.53125 
Q 47.796875 61.53125 54.140625 56.765625 
Q 60.5 52 60.5 44.671875 
Q 60.5 37.5 55.25 32.78125 
Q 50 28.078125 40.484375 27.203125 
z
M 36.921875 55.328125 
Q 29.296875 55.328125 24.90625 52.21875 
Q 20.515625 49.125 20.515625 44.1875 
Q 20.515625 39.265625 24.875 36.234375 
Q 29.25 33.203125 36.921875 33.203125 
Q 44.484375 33.203125 48.84375 36.25 
Q 53.21875 39.3125 53.21875 44.1875 
Q 53.21875 49.125 48.828125 52.21875 
Q 44.4375 55.328125 36.921875 55.328125 
z
" id="MalgunGothic-54868"/>
       <path d="M 6.984375 67.921875 
L 6.984375 74.421875 
L 31.296875 74.421875 
L 31.296875 85.890625 
L 38.71875 85.890625 
L 38.71875 74.421875 
L 62.796875 74.421875 
L 62.796875 67.921875 
z
M 80.078125 49.21875 
L 80.078125 28.125 
L 72.796875 28.125 
L 72.796875 85.40625 
L 80.078125 85.40625 
L 80.078125 55.71875 
L 94.28125 55.71875 
L 94.28125 49.21875 
z
M 35.015625 30.328125 
Q 24.171875 30.328125 17.984375 34.90625 
Q 11.8125 39.5 11.8125 46.6875 
Q 11.8125 53.8125 17.984375 58.390625 
Q 24.171875 62.984375 35.109375 62.984375 
Q 46.046875 62.984375 52.21875 58.390625 
Q 58.40625 53.8125 58.40625 46.6875 
Q 58.40625 39.59375 52.125 34.953125 
Q 45.84375 30.328125 35.015625 30.328125 
z
M 35.109375 56.78125 
Q 27.640625 56.78125 23.3125 54 
Q 19 51.21875 19 46.6875 
Q 19 42.234375 23.265625 39.375 
Q 27.546875 36.53125 35.109375 36.53125 
Q 42.671875 36.53125 46.9375 39.375 
Q 51.21875 42.234375 51.21875 46.6875 
Q 51.21875 51.21875 46.890625 54 
Q 42.578125 56.78125 35.109375 56.78125 
z
M 72.796875 -8.796875 
L 72.796875 16.609375 
L 18.609375 16.609375 
L 18.609375 23 
L 79.984375 23 
L 79.984375 -8.796875 
z
" id="MalgunGothic-54617"/>
      </defs>
      <use xlink:href="#MalgunGothic-76"/>
      <use x="44.498047" xlink:href="#MalgunGothic-71"/>
      <use x="114.664062" xlink:href="#MalgunGothic-54868"/>
      <use x="214.664062" xlink:href="#MalgunGothic-54617"/>
     </g>
    </g>
    <g id="line2d_42">
     <path d="M 327.72 173.642062 
L 347.72 173.642062 
" style="fill:none;stroke:#2ca02c;stroke-linecap:square;stroke-width:1.5;"/>
    </g>
    <g id="line2d_43"/>
    <g id="text_16">
     <!-- 삼성생명 -->
     <g transform="translate(355.72 177.142062)scale(0.1 -0.1)">
      <defs>
       <path d="M 80.078125 53.71875 
L 80.078125 33.40625 
L 72.796875 33.40625 
L 72.796875 85.40625 
L 80.078125 85.40625 
L 80.078125 60.296875 
L 94.28125 60.296875 
L 94.28125 53.71875 
z
M 56.296875 36.71875 
Q 50.203125 39.984375 43.484375 46.28125 
Q 36.765625 52.59375 34.1875 58.015625 
Q 31.59375 51.90625 25.140625 45.046875 
Q 18.703125 38.1875 11.71875 34.28125 
L 6.390625 39.3125 
Q 16.796875 44.34375 23.65625 53.609375 
Q 30.515625 62.890625 30.515625 72.796875 
L 30.515625 82.71875 
L 37.5 82.71875 
L 37.5 72.796875 
Q 37.5 63.375 44.453125 54.734375 
Q 51.421875 46.09375 61.078125 42 
z
M 22.609375 -6.203125 
L 22.609375 28.21875 
L 80.078125 28.21875 
L 80.078125 -6.203125 
z
M 72.90625 21.78125 
L 29.78125 21.78125 
L 29.78125 0.203125 
L 72.90625 0.203125 
z
" id="MalgunGothic-49340"/>
       <path d="M 77.296875 31 
L 77.296875 59.078125 
L 55.328125 59.078125 
L 55.328125 65.625 
L 77.296875 65.625 
L 77.296875 85.40625 
L 84.625 85.40625 
L 84.625 31 
z
M 57.078125 36.375 
Q 50.6875 39.84375 44.234375 46.09375 
Q 37.796875 52.34375 35.203125 57.8125 
Q 32.421875 51.609375 25.921875 44.65625 
Q 19.4375 37.703125 12.796875 33.984375 
L 7.625 39.015625 
Q 17.71875 43.84375 24.546875 53.015625 
Q 31.390625 62.203125 31.390625 72.3125 
L 31.390625 82.328125 
L 38.484375 82.328125 
L 38.484375 72.3125 
Q 38.484375 62.890625 45.5625 54.25 
Q 52.640625 45.609375 62.015625 41.703125 
z
M 55.71875 -7.421875 
Q 40.96875 -7.421875 32.9375 -2.3125 
Q 24.90625 2.78125 24.90625 10.890625 
Q 24.90625 19 32.90625 24.046875 
Q 40.921875 29.109375 55.71875 29.109375 
Q 70.515625 29.109375 78.515625 24.046875 
Q 86.53125 19 86.53125 10.890625 
Q 86.53125 2.78125 78.484375 -2.3125 
Q 70.453125 -7.421875 55.71875 -7.421875 
z
M 55.71875 22.90625 
Q 44.53125 22.90625 38.625 19.5 
Q 32.71875 16.109375 32.71875 10.890625 
Q 32.71875 5.609375 38.640625 2.234375 
Q 44.578125 -1.125 55.71875 -1.125 
Q 66.796875 -1.125 72.75 2.21875 
Q 78.71875 5.5625 78.71875 10.890625 
Q 78.71875 16.15625 72.796875 19.53125 
Q 66.890625 22.90625 55.71875 22.90625 
z
" id="MalgunGothic-49457"/>
       <path d="M 77.984375 30.515625 
L 77.984375 54.109375 
L 67 54.109375 
L 67 33.015625 
L 59.71875 33.015625 
L 59.71875 83.5 
L 67 83.5 
L 67 60.40625 
L 77.984375 60.40625 
L 77.984375 85.40625 
L 85.296875 85.40625 
L 85.296875 30.515625 
z
M 49.03125 37.59375 
Q 43.65625 40.671875 37.984375 47.015625 
Q 32.328125 53.375 30.328125 58.203125 
Q 28.5625 52.640625 22.921875 45.78125 
Q 17.28125 38.921875 11.1875 35.203125 
L 6 40.09375 
Q 15.328125 45.015625 21.015625 53.78125 
Q 26.703125 62.546875 26.703125 72.125 
L 26.703125 82.078125 
L 33.6875 82.078125 
L 33.6875 72.125 
Q 33.6875 63.09375 39.625 54.90625 
Q 45.5625 46.734375 53.8125 43.015625 
z
M 54.5 -7.171875 
Q 39.65625 -7.171875 31.375 -2.171875 
Q 23.09375 2.828125 23.09375 10.796875 
Q 23.09375 18.75 31.375 23.78125 
Q 39.65625 28.8125 54.5 28.8125 
Q 69.4375 28.8125 77.703125 23.78125 
Q 85.984375 18.75 85.984375 10.796875 
Q 85.984375 2.828125 77.703125 -2.171875 
Q 69.4375 -7.171875 54.5 -7.171875 
z
M 54.5 22.609375 
Q 43.0625 22.609375 36.9375 19.265625 
Q 30.8125 15.921875 30.8125 10.796875 
Q 30.8125 5.609375 36.984375 2.3125 
Q 43.171875 -0.984375 54.5 -0.984375 
Q 65.765625 -0.984375 71.984375 2.28125 
Q 78.21875 5.5625 78.21875 10.796875 
Q 78.21875 15.96875 72.015625 19.28125 
Q 65.828125 22.609375 54.5 22.609375 
z
" id="MalgunGothic-49373"/>
       <path d="M 15.375 36.28125 
L 15.375 81.109375 
L 58.6875 81.109375 
L 58.6875 71.6875 
L 77.390625 71.6875 
L 77.390625 85.40625 
L 84.71875 85.40625 
L 84.71875 27.875 
L 77.390625 27.875 
L 77.390625 45.515625 
L 58.6875 45.515625 
L 58.6875 36.28125 
z
M 51.515625 74.609375 
L 22.703125 74.609375 
L 22.703125 42.828125 
L 51.515625 42.828125 
z
M 58.6875 51.8125 
L 77.390625 51.8125 
L 77.390625 65.375 
L 58.6875 65.375 
z
M 54.6875 -7.90625 
Q 39.9375 -7.90625 31.90625 -2.796875 
Q 23.875 2.296875 23.875 10.40625 
Q 23.875 18.5 31.90625 23.609375 
Q 39.9375 28.71875 54.6875 28.71875 
Q 69.4375 28.71875 77.46875 23.609375 
Q 85.5 18.5 85.5 10.40625 
Q 85.5 2.296875 77.46875 -2.796875 
Q 69.4375 -7.90625 54.6875 -7.90625 
z
M 54.6875 22.515625 
Q 43.453125 22.515625 37.5625 19.09375 
Q 31.6875 15.671875 31.6875 10.40625 
Q 31.6875 5.125 37.625 1.75 
Q 43.5625 -1.609375 54.6875 -1.609375 
Q 65.765625 -1.609375 71.71875 1.734375 
Q 77.6875 5.078125 77.6875 10.40625 
Q 77.6875 15.71875 71.796875 19.109375 
Q 65.921875 22.515625 54.6875 22.515625 
z
" id="MalgunGothic-47749"/>
      </defs>
      <use xlink:href="#MalgunGothic-49340"/>
      <use x="100" xlink:href="#MalgunGothic-49457"/>
      <use x="200" xlink:href="#MalgunGothic-49373"/>
      <use x="300" xlink:href="#MalgunGothic-47749"/>
     </g>
    </g>
    <g id="line2d_44">
     <path d="M 327.72 188.598312 
L 347.72 188.598312 
" style="fill:none;stroke:#d62728;stroke-linecap:square;stroke-width:1.5;"/>
    </g>
    <g id="line2d_45"/>
    <g id="text_17">
     <!-- 엔씨소프트 -->
     <g transform="translate(355.72 192.098312)scale(0.1 -0.1)">
      <defs>
       <path d="M 79 17.921875 
L 79 85.40625 
L 86.28125 85.40625 
L 86.28125 17.921875 
z
M 52.484375 53.90625 
Q 51.375 44.4375 45.4375 39.3125 
Q 39.5 34.1875 31 34.1875 
Q 21.4375 34.1875 15.3125 40.4375 
Q 9.1875 46.6875 9.1875 57.625 
Q 9.1875 68.359375 15.28125 74.671875 
Q 21.390625 81 31 81 
Q 39.796875 81 45.75 75.5625 
Q 51.703125 70.125 52.59375 60.40625 
L 62.703125 60.40625 
L 62.703125 83.5 
L 69.921875 83.5 
L 69.921875 20.40625 
L 62.703125 20.40625 
L 62.703125 53.90625 
z
M 31 74.609375 
Q 24.421875 74.609375 20.3125 69.9375 
Q 16.21875 65.28125 16.21875 57.625 
Q 16.21875 49.953125 20.28125 45.21875 
Q 24.359375 40.484375 31 40.484375 
Q 37.546875 40.484375 41.671875 45.1875 
Q 45.796875 49.90625 45.796875 57.625 
Q 45.796875 65.328125 41.640625 69.96875 
Q 37.5 74.609375 31 74.609375 
z
M 26.421875 -5.171875 
L 26.421875 25.296875 
L 33.6875 25.296875 
L 33.6875 1.421875 
L 89.109375 1.421875 
L 89.109375 -5.171875 
z
" id="MalgunGothic-50644"/>
       <path d="M 76.515625 -8.796875 
L 76.515625 85.40625 
L 83.796875 85.40625 
L 83.796875 -8.796875 
z
M 36.078125 23.296875 
Q 27.34375 34.328125 24.421875 45.015625 
Q 22.171875 32.671875 12.5 17.1875 
L 6.390625 20.703125 
Q 13.328125 30.03125 17.203125 42.578125 
Q 21.09375 55.125 21.09375 67.578125 
L 21.09375 78.609375 
L 27.984375 78.609375 
L 27.984375 66.609375 
Q 27.984375 54.9375 30.6875 46.4375 
Q 33.40625 37.9375 39.40625 30.21875 
Q 46.578125 47.796875 46.578125 67.28125 
L 46.578125 78.90625 
L 53.609375 78.90625 
L 53.609375 67.28125 
Q 53.609375 51.609375 57.953125 40.203125 
Q 62.3125 28.8125 71.78125 18.5 
L 66.21875 14.109375 
Q 61.140625 20.125 56.25 28.953125 
Q 51.375 37.796875 50 43.609375 
Q 49.078125 36.53125 44.828125 26.859375 
Q 40.578125 17.1875 35.109375 9.71875 
L 29.203125 13.625 
Q 33.109375 17.828125 36.078125 23.296875 
z
" id="MalgunGothic-50472"/>
       <path d="M 49.90625 61.078125 
Q 46.296875 53.375 36.40625 45.953125 
Q 26.515625 38.53125 14.984375 35.296875 
L 10.015625 41.109375 
Q 26.5625 44.875 36.375 54.640625 
Q 46.1875 64.40625 46.1875 72.90625 
L 46.1875 77.875 
L 53.71875 77.875 
L 53.71875 72.90625 
Q 53.71875 64.546875 63.578125 54.78125 
Q 73.4375 45.015625 89.984375 41.109375 
L 84.8125 35.40625 
Q 73.734375 38.765625 63.625 46.203125 
Q 53.515625 53.65625 49.90625 61.078125 
z
M 6.296875 6 
L 6.296875 12.5 
L 46.296875 12.5 
L 46.296875 35.40625 
L 53.71875 35.40625 
L 53.71875 12.5 
L 93.703125 12.5 
L 93.703125 6 
z
" id="MalgunGothic-49548"/>
       <path d="M 15.578125 76.421875 
L 84.421875 76.421875 
L 84.421875 69.921875 
L 15.578125 69.921875 
z
M 69.671875 38.484375 
L 85.59375 38.484375 
L 85.59375 32.078125 
L 14.40625 32.078125 
L 14.40625 38.484375 
L 30.078125 38.484375 
L 28.90625 64.984375 
L 36.078125 64.984375 
L 37.3125 38.484375 
L 62.5 38.484375 
L 63.921875 64.984375 
L 71.09375 64.984375 
z
M 6.296875 6.203125 
L 6.296875 12.703125 
L 93.703125 12.703125 
L 93.703125 6.203125 
z
" id="MalgunGothic-54532"/>
       <path d="M 80.171875 69.828125 
L 27.59375 69.828125 
L 27.59375 56.203125 
L 77.484375 56.203125 
L 77.484375 49.703125 
L 27.59375 49.703125 
L 27.59375 36.8125 
L 81.6875 36.8125 
L 81.6875 30.328125 
L 20.40625 30.328125 
L 20.40625 76.21875 
L 80.171875 76.21875 
z
M 6.296875 6 
L 6.296875 12.5 
L 93.703125 12.5 
L 93.703125 6 
z
" id="MalgunGothic-53944"/>
      </defs>
      <use xlink:href="#MalgunGothic-50644"/>
      <use x="100" xlink:href="#MalgunGothic-50472"/>
      <use x="200" xlink:href="#MalgunGothic-49548"/>
      <use x="300" xlink:href="#MalgunGothic-54532"/>
      <use x="400" xlink:href="#MalgunGothic-53944"/>
     </g>
    </g>
    <g id="line2d_46">
     <path d="M 327.72 203.554562 
L 347.72 203.554562 
" style="fill:none;stroke:#9467bd;stroke-linecap:square;stroke-width:1.5;"/>
    </g>
    <g id="line2d_47"/>
    <g id="text_18">
     <!-- SK텔레콤 -->
     <g transform="translate(355.72 207.054562)scale(0.1 -0.1)">
      <defs>
       <path d="M 6.15625 12.453125 
Q 9.46875 9.578125 15.0625 7.8125 
Q 20.65625 6.0625 25.390625 6.0625 
Q 41.0625 6.0625 41.0625 17.4375 
Q 41.0625 20.703125 39.421875 23.1875 
Q 37.796875 25.6875 35.15625 27.4375 
Q 32.515625 29.203125 24.171875 33.5 
Q 14.109375 38.671875 10.171875 43.03125 
Q 6.25 47.40625 6.25 54 
Q 6.25 62.796875 13.40625 67.921875 
Q 20.5625 73.046875 31.0625 73.046875 
Q 41.703125 73.046875 46.296875 70.515625 
L 46.296875 61.375 
Q 40.046875 65.71875 30.03125 65.71875 
Q 23.1875 65.71875 18.859375 62.78125 
Q 14.546875 59.859375 14.546875 54.6875 
Q 14.546875 50 17.59375 47.046875 
Q 20.65625 44.09375 30.28125 39.40625 
Q 41.5 33.796875 45.40625 28.8125 
Q 49.3125 23.828125 49.3125 18.015625 
Q 49.3125 8.6875 42.578125 3.734375 
Q 35.84375 -1.21875 23.921875 -1.21875 
Q 20.171875 -1.21875 14.484375 -0.015625 
Q 8.796875 1.171875 6.15625 2.9375 
z
" id="MalgunGothic-83"/>
       <path d="M 79 35.984375 
L 79 85.40625 
L 86.28125 85.40625 
L 86.28125 35.984375 
z
M 62.109375 35.984375 
L 62.109375 58.296875 
L 47.703125 58.296875 
L 47.703125 64.59375 
L 62.109375 64.59375 
L 62.109375 83.5 
L 69.28125 83.5 
L 69.28125 35.984375 
z
M 21.390625 57.078125 
L 21.390625 45.609375 
Q 43.015625 45.609375 52.09375 46.484375 
L 52.59375 40.09375 
Q 39.109375 39.3125 14.203125 39.3125 
L 14.203125 81.5 
L 50.203125 81.5 
L 50.203125 75.09375 
L 21.390625 75.09375 
L 21.390625 63.484375 
L 41.40625 63.484375 
L 41.40625 57.078125 
z
M 27.296875 -6.59375 
L 27.296875 15.71875 
L 79.109375 15.71875 
L 79.109375 24.421875 
L 27.296875 24.421875 
L 27.296875 30.8125 
L 86.28125 30.8125 
L 86.28125 9.421875 
L 34.515625 9.421875 
L 34.515625 -0.09375 
L 88.8125 -0.09375 
L 88.8125 -6.59375 
z
" id="MalgunGothic-53588"/>
       <path d="M 79.5 -8.796875 
L 79.5 85.40625 
L 86.921875 85.40625 
L 86.921875 -8.796875 
z
M 62.5 -6.296875 
L 62.5 39.203125 
L 49.125 39.203125 
L 49.125 45.703125 
L 62.5 45.703125 
L 62.5 83.5 
L 69.671875 83.5 
L 69.671875 -6.296875 
z
M 12.015625 11.28125 
L 12.015625 49.125 
L 38.09375 49.125 
L 38.09375 70.40625 
L 12.015625 70.40625 
L 12.015625 76.90625 
L 45.40625 76.90625 
L 45.40625 42.828125 
L 19.28125 42.828125 
L 19.28125 17.828125 
Q 44.09375 17.828125 51.3125 19.09375 
L 52.09375 12.890625 
Q 42.625 11.28125 12.015625 11.28125 
z
" id="MalgunGothic-47112"/>
       <path d="M 18.40625 58.015625 
L 16.890625 64.796875 
L 74.03125 66.796875 
L 74.125 76.3125 
L 21 76.3125 
L 21 82.71875 
L 81.390625 82.71875 
Q 81.390625 58.15625 80.171875 47.3125 
L 73.1875 47.703125 
Q 73.53125 50.734375 73.78125 60.796875 
z
M 6.296875 35.40625 
L 6.296875 42 
L 43.40625 42 
L 43.40625 55.8125 
L 50.59375 55.8125 
L 50.59375 42 
L 93.703125 42 
L 93.703125 35.40625 
z
M 20.703125 -6 
L 20.703125 26.125 
L 79.296875 26.125 
L 79.296875 -6 
z
M 72.125 19.671875 
L 27.875 19.671875 
L 27.875 0.390625 
L 72.125 0.390625 
z
" id="MalgunGothic-53092"/>
      </defs>
      <use xlink:href="#MalgunGothic-83"/>
      <use x="54.296875" xlink:href="#MalgunGothic-75"/>
      <use x="113.330078" xlink:href="#MalgunGothic-53588"/>
      <use x="213.330078" xlink:href="#MalgunGothic-47112"/>
      <use x="313.330078" xlink:href="#MalgunGothic-53092"/>
     </g>
    </g>
   </g>
  </g>
 </g>
 <defs>
  <clipPath id="pfb9d70ea35">
   <rect height="266.112" width="357.12" x="57.6" y="41.472"/>
  </clipPath>
 </defs>
</svg>
