<?xml version="1.0" encoding="utf-8" standalone="no"?>
<!DOCTYPE svg PUBLIC "-//W3C//DTD SVG 1.1//EN"
  "http://www.w3.org/Graphics/SVG/1.1/DTD/svg11.dtd">
<!-- Created with matplotlib (https://matplotlib.org/) -->
<svg height="345.6pt" version="1.1" viewBox="0 0 460.8 345.6" width="460.8pt" xmlns="http://www.w3.org/2000/svg" xmlns:xlink="http://www.w3.org/1999/xlink">
 <defs>
  <style type="text/css">
*{stroke-linecap:butt;stroke-linejoin:round;}
  </style>
 </defs>
 <g id="figure_1">
  <g id="patch_1">
   <path d="M 0 345.6 
L 460.8 345.6 
L 460.8 0 
L 0 0 
z
" style="fill:#ffffff;"/>
  </g>
  <g id="axes_1">
   <g id="patch_2">
    <path d="M 57.6 307.584 
L 414.72 307.584 
L 414.72 41.472 
L 57.6 41.472 
z
" style="fill:#ffffff;"/>
   </g>
   <g id="matplotlib.axis_1">
    <g id="xtick_1">
     <g id="line2d_1">
      <defs>
       <path d="M 0 0 
L 0 3.5 
" id="m4b9af318d7" style="stroke:#000000;stroke-width:0.8;"/>
      </defs>
      <g>
       <use style="stroke:#000000;stroke-width:0.8;" x="57.6" xlink:href="#m4b9af318d7" y="307.584"/>
      </g>
     </g>
    </g>
    <g id="xtick_2">
     <g id="line2d_2">
      <g>
       <use style="stroke:#000000;stroke-width:0.8;" x="278.674286" xlink:href="#m4b9af318d7" y="307.584"/>
      </g>
     </g>
     <g id="text_1">
      <!--  -->
      <g transform="translate(278.674286 322.176187)scale(0.1 -0.1)"/>
      <!--  -->
      <g transform="translate(278.674286 333.650875)scale(0.1 -0.1)"/>
      <!-- Nov -->
      <defs>
       <path d="M 67 0 
L 57.078125 0 
L 19.578125 58.015625 
Q 18.40625 59.8125 17.328125 62.5 
L 17.09375 62.5 
Q 17.4375 59.71875 17.4375 52.6875 
L 17.4375 0 
L 9.515625 0 
L 9.515625 71.875 
L 19.96875 71.875 
L 56.453125 14.65625 
Q 58.984375 10.6875 59.328125 9.90625 
L 59.515625 9.90625 
Q 58.984375 13.484375 58.984375 20.5625 
L 58.984375 71.875 
L 67 71.875 
z
" id="MalgunGothic-78"/>
       <path d="M 4.9375 25 
Q 4.9375 37.796875 11.890625 45.140625 
Q 18.84375 52.484375 30.90625 52.484375 
Q 42.140625 52.484375 48.609375 45.421875 
Q 55.078125 38.375 55.078125 25.78125 
Q 55.078125 13.578125 48.09375 6.171875 
Q 41.109375 -1.21875 29.6875 -1.21875 
Q 18.5 -1.21875 11.71875 6 
Q 4.9375 13.234375 4.9375 25 
z
M 12.796875 25.34375 
Q 12.796875 16.265625 17.546875 10.8125 
Q 22.3125 5.375 30.21875 5.375 
Q 38.421875 5.375 42.796875 10.625 
Q 47.171875 15.875 47.171875 25.53125 
Q 47.171875 35.25 42.765625 40.59375 
Q 38.375 45.953125 30.21875 45.953125 
Q 22.265625 45.953125 17.53125 40.421875 
Q 12.796875 34.90625 12.796875 25.34375 
z
" id="MalgunGothic-111"/>
       <path d="M 48.1875 51.3125 
L 27.640625 0 
L 20.21875 0 
L 0.734375 51.3125 
L 9.28125 51.3125 
L 22.515625 13.625 
Q 23.921875 9.515625 24.3125 6.640625 
L 24.5625 6.640625 
Q 25.046875 10.453125 26.125 13.484375 
L 40.046875 51.3125 
z
" id="MalgunGothic-118"/>
      </defs>
      <g transform="translate(269.416473 345.125563)scale(0.1 -0.1)">
       <use xlink:href="#MalgunGothic-78"/>
       <use x="76.513672" xlink:href="#MalgunGothic-111"/>
       <use x="136.425781" xlink:href="#MalgunGothic-118"/>
      </g>
      <!-- 2020 -->
      <defs>
       <path d="M 39.359375 52.6875 
Q 39.359375 59.125 35.546875 62.78125 
Q 31.734375 66.453125 25.4375 66.453125 
Q 20.953125 66.453125 16.453125 64.125 
Q 11.96875 61.8125 8.34375 57.765625 
L 8.34375 66.15625 
Q 15.328125 73.046875 26.421875 73.046875 
Q 35.640625 73.046875 41.28125 67.71875 
Q 46.921875 62.40625 46.921875 53.375 
Q 46.921875 45.609375 43.3125 39.765625 
Q 39.703125 33.9375 31 27.734375 
Q 22.796875 21.96875 19.59375 18.984375 
Q 16.40625 16.015625 15.109375 13.34375 
Q 13.8125 10.6875 13.8125 7.03125 
L 48.6875 7.03125 
L 48.6875 0 
L 5.5625 0 
L 5.5625 3.515625 
Q 5.5625 9.421875 7.203125 13.59375 
Q 8.84375 17.78125 12.671875 21.75 
Q 16.5 25.734375 24.953125 31.59375 
Q 32.671875 36.921875 36.015625 41.71875 
Q 39.359375 46.53125 39.359375 52.6875 
z
" id="MalgunGothic-50"/>
       <path d="M 4.34375 34.46875 
Q 4.34375 53.515625 10.546875 63.28125 
Q 16.75 73.046875 28.421875 73.046875 
Q 50.828125 73.046875 50.828125 36.234375 
Q 50.828125 18.0625 44.59375 8.421875 
Q 38.375 -1.21875 26.8125 -1.21875 
Q 15.875 -1.21875 10.109375 8.125 
Q 4.34375 17.484375 4.34375 34.46875 
z
M 12.25 34.859375 
Q 12.25 5.375 27.640625 5.375 
Q 42.921875 5.375 42.921875 35.296875 
Q 42.921875 66.40625 28.03125 66.40625 
Q 12.25 66.40625 12.25 34.859375 
z
" id="MalgunGothic-48"/>
      </defs>
      <g transform="translate(267.658661 356.60025)scale(0.1 -0.1)">
       <use xlink:href="#MalgunGothic-50"/>
       <use x="55.078125" xlink:href="#MalgunGothic-48"/>
       <use x="110.15625" xlink:href="#MalgunGothic-50"/>
       <use x="165.234375" xlink:href="#MalgunGothic-48"/>
      </g>
     </g>
    </g>
    <g id="xtick_3">
     <g id="line2d_3">
      <g>
       <use style="stroke:#000000;stroke-width:0.8;" x="414.72" xlink:href="#m4b9af318d7" y="307.584"/>
      </g>
     </g>
    </g>
    <g id="xtick_4">
     <g id="line2d_4">
      <defs>
       <path d="M 0 0 
L 0 2 
" id="m6220021ade" style="stroke:#000000;stroke-width:0.6;"/>
      </defs>
      <g>
       <use style="stroke:#000000;stroke-width:0.6;" x="57.6" xlink:href="#m6220021ade" y="307.584"/>
      </g>
     </g>
    </g>
    <g id="xtick_5">
     <g id="line2d_5">
      <g>
       <use style="stroke:#000000;stroke-width:0.6;" x="74.605714" xlink:href="#m6220021ade" y="307.584"/>
      </g>
     </g>
    </g>
    <g id="xtick_6">
     <g id="line2d_6">
      <g>
       <use style="stroke:#000000;stroke-width:0.6;" x="91.611429" xlink:href="#m6220021ade" y="307.584"/>
      </g>
     </g>
    </g>
    <g id="xtick_7">
     <g id="line2d_7">
      <g>
       <use style="stroke:#000000;stroke-width:0.6;" x="108.617143" xlink:href="#m6220021ade" y="307.584"/>
      </g>
     </g>
     <g id="text_2">
      <!-- 19 -->
      <defs>
       <path d="M 34.859375 0 
L 27.09375 0 
L 27.09375 62.0625 
Q 24.859375 59.8125 19.78125 57.203125 
Q 14.703125 54.59375 10.5 53.5625 
L 10.5 61.859375 
Q 15.875 63.375 22.015625 66.796875 
Q 28.171875 70.21875 31.734375 73.4375 
L 34.859375 73.4375 
z
" id="MalgunGothic-49"/>
       <path d="M 8.6875 8.796875 
Q 14.703125 5.375 21.34375 5.375 
Q 31.15625 5.375 36.671875 13.359375 
Q 42.1875 21.34375 42.1875 36.140625 
Q 42.09375 36.03125 42 36.140625 
Q 37.3125 26.765625 25.828125 26.765625 
Q 16.546875 26.765625 10.65625 33.125 
Q 4.78125 39.5 4.78125 49.125 
Q 4.78125 59.46875 11.109375 66.25 
Q 17.4375 73.046875 27.6875 73.046875 
Q 38.53125 73.046875 44.265625 64.546875 
Q 50 56.0625 50 40.28125 
Q 50 20.609375 42.453125 9.6875 
Q 34.90625 -1.21875 21 -1.21875 
Q 13.765625 -1.21875 8.6875 1.21875 
z
M 12.703125 50.296875 
Q 12.703125 42.828125 16.609375 38.28125 
Q 20.515625 33.734375 27.484375 33.734375 
Q 33.546875 33.734375 37.59375 37.765625 
Q 41.65625 41.796875 41.65625 47.609375 
Q 41.65625 55.5625 37.671875 60.984375 
Q 33.6875 66.40625 26.953125 66.40625 
Q 20.65625 66.40625 16.671875 61.6875 
Q 12.703125 56.984375 12.703125 50.296875 
z
" id="MalgunGothic-57"/>
      </defs>
      <g transform="translate(103.10933 320.576187)scale(0.1 -0.1)">
       <use xlink:href="#MalgunGothic-49"/>
       <use x="55.078125" xlink:href="#MalgunGothic-57"/>
      </g>
     </g>
    </g>
    <g id="xtick_8">
     <g id="line2d_8">
      <g>
       <use style="stroke:#000000;stroke-width:0.6;" x="125.622857" xlink:href="#m6220021ade" y="307.584"/>
      </g>
     </g>
    </g>
    <g id="xtick_9">
     <g id="line2d_9">
      <g>
       <use style="stroke:#000000;stroke-width:0.6;" x="142.628571" xlink:href="#m6220021ade" y="307.584"/>
      </g>
     </g>
    </g>
    <g id="xtick_10">
     <g id="line2d_10">
      <g>
       <use style="stroke:#000000;stroke-width:0.6;" x="159.634286" xlink:href="#m6220021ade" y="307.584"/>
      </g>
     </g>
    </g>
    <g id="xtick_11">
     <g id="line2d_11">
      <g>
       <use style="stroke:#000000;stroke-width:0.6;" x="176.64" xlink:href="#m6220021ade" y="307.584"/>
      </g>
     </g>
    </g>
    <g id="xtick_12">
     <g id="line2d_12">
      <g>
       <use style="stroke:#000000;stroke-width:0.6;" x="193.645714" xlink:href="#m6220021ade" y="307.584"/>
      </g>
     </g>
     <g id="text_3">
      <!-- 26 -->
      <defs>
       <path d="M 46.578125 63.578125 
Q 40.921875 66.40625 34.8125 66.40625 
Q 24.859375 66.40625 19.1875 57.640625 
Q 13.53125 48.875 13.578125 34.578125 
L 13.8125 34.578125 
Q 18.796875 44.875 30.28125 44.875 
Q 39.796875 44.875 45.359375 38.71875 
Q 50.921875 32.5625 50.921875 22.65625 
Q 50.921875 12.453125 44.640625 5.609375 
Q 38.375 -1.21875 28.515625 -1.21875 
Q 17.4375 -1.21875 11.5 7.46875 
Q 5.5625 16.15625 5.5625 31.546875 
Q 5.5625 49.703125 13.234375 61.375 
Q 20.90625 73.046875 34.71875 73.046875 
Q 42.1875 73.046875 46.578125 71 
z
M 14.15625 23.53125 
Q 14.15625 15.96875 18.203125 10.671875 
Q 22.265625 5.375 28.8125 5.375 
Q 35.109375 5.375 39.03125 10.078125 
Q 42.96875 14.796875 42.96875 21.6875 
Q 42.96875 29.5 39.203125 33.859375 
Q 35.453125 38.234375 28.71875 38.234375 
Q 22.5625 38.234375 18.359375 33.953125 
Q 14.15625 29.6875 14.15625 23.53125 
z
" id="MalgunGothic-54"/>
      </defs>
      <g transform="translate(188.137902 320.576187)scale(0.1 -0.1)">
       <use xlink:href="#MalgunGothic-50"/>
       <use x="55.078125" xlink:href="#MalgunGothic-54"/>
      </g>
     </g>
    </g>
    <g id="xtick_13">
     <g id="line2d_13">
      <g>
       <use style="stroke:#000000;stroke-width:0.6;" x="210.651429" xlink:href="#m6220021ade" y="307.584"/>
      </g>
     </g>
    </g>
    <g id="xtick_14">
     <g id="line2d_14">
      <g>
       <use style="stroke:#000000;stroke-width:0.6;" x="227.657143" xlink:href="#m6220021ade" y="307.584"/>
      </g>
     </g>
    </g>
    <g id="xtick_15">
     <g id="line2d_15">
      <g>
       <use style="stroke:#000000;stroke-width:0.6;" x="244.662857" xlink:href="#m6220021ade" y="307.584"/>
      </g>
     </g>
    </g>
    <g id="xtick_16">
     <g id="line2d_16">
      <g>
       <use style="stroke:#000000;stroke-width:0.6;" x="261.668571" xlink:href="#m6220021ade" y="307.584"/>
      </g>
     </g>
    </g>
    <g id="xtick_17">
     <g id="line2d_17">
      <g>
       <use style="stroke:#000000;stroke-width:0.6;" x="278.674286" xlink:href="#m6220021ade" y="307.584"/>
      </g>
     </g>
    </g>
    <g id="xtick_18">
     <g id="line2d_18">
      <g>
       <use style="stroke:#000000;stroke-width:0.6;" x="295.68" xlink:href="#m6220021ade" y="307.584"/>
      </g>
     </g>
    </g>
    <g id="xtick_19">
     <g id="line2d_19">
      <g>
       <use style="stroke:#000000;stroke-width:0.6;" x="312.685714" xlink:href="#m6220021ade" y="307.584"/>
      </g>
     </g>
    </g>
    <g id="xtick_20">
     <g id="line2d_20">
      <g>
       <use style="stroke:#000000;stroke-width:0.6;" x="329.691429" xlink:href="#m6220021ade" y="307.584"/>
      </g>
     </g>
    </g>
    <g id="xtick_21">
     <g id="line2d_21">
      <g>
       <use style="stroke:#000000;stroke-width:0.6;" x="346.697143" xlink:href="#m6220021ade" y="307.584"/>
      </g>
     </g>
    </g>
    <g id="xtick_22">
     <g id="line2d_22">
      <g>
       <use style="stroke:#000000;stroke-width:0.6;" x="363.702857" xlink:href="#m6220021ade" y="307.584"/>
      </g>
     </g>
     <g id="text_4">
      <!-- 09 -->
      <g transform="translate(358.195045 320.576187)scale(0.1 -0.1)">
       <use xlink:href="#MalgunGothic-48"/>
       <use x="55.078125" xlink:href="#MalgunGothic-57"/>
      </g>
     </g>
    </g>
    <g id="xtick_23">
     <g id="line2d_23">
      <g>
       <use style="stroke:#000000;stroke-width:0.6;" x="380.708571" xlink:href="#m6220021ade" y="307.584"/>
      </g>
     </g>
    </g>
    <g id="xtick_24">
     <g id="line2d_24">
      <g>
       <use style="stroke:#000000;stroke-width:0.6;" x="397.714286" xlink:href="#m6220021ade" y="307.584"/>
      </g>
     </g>
    </g>
    <g id="xtick_25">
     <g id="line2d_25">
      <g>
       <use style="stroke:#000000;stroke-width:0.6;" x="414.72" xlink:href="#m6220021ade" y="307.584"/>
      </g>
     </g>
    </g>
   </g>
   <g id="matplotlib.axis_2">
    <g id="ytick_1">
     <g id="line2d_26">
      <defs>
       <path d="M 0 0 
L -3.5 0 
" id="m3f73c5851c" style="stroke:#000000;stroke-width:0.8;"/>
      </defs>
      <g>
       <use style="stroke:#000000;stroke-width:0.8;" x="57.6" xlink:href="#m3f73c5851c" y="284.340514"/>
      </g>
     </g>
     <g id="text_5">
      <!-- 60000 -->
      <g transform="translate(23.060938 288.136608)scale(0.1 -0.1)">
       <use xlink:href="#MalgunGothic-54"/>
       <use x="55.078125" xlink:href="#MalgunGothic-48"/>
       <use x="110.15625" xlink:href="#MalgunGothic-48"/>
       <use x="165.234375" xlink:href="#MalgunGothic-48"/>
       <use x="220.3125" xlink:href="#MalgunGothic-48"/>
      </g>
     </g>
    </g>
    <g id="ytick_2">
     <g id="line2d_27">
      <g>
       <use style="stroke:#000000;stroke-width:0.8;" x="57.6" xlink:href="#m3f73c5851c" y="245.226529"/>
      </g>
     </g>
     <g id="text_6">
      <!-- 80000 -->
      <defs>
       <path d="M 4.734375 20.015625 
Q 4.734375 26.078125 8.421875 31.421875 
Q 12.109375 36.765625 18.015625 38.96875 
Q 13.375 41.359375 10.546875 45.546875 
Q 7.71875 49.75 7.71875 54.6875 
Q 7.71875 59.8125 10.296875 64.03125 
Q 12.890625 68.265625 17.53125 70.65625 
Q 22.171875 73.046875 27.78125 73.046875 
Q 36.46875 73.046875 42.1875 67.84375 
Q 47.90625 62.640625 47.90625 54.6875 
Q 47.90625 49.703125 45.015625 45.53125 
Q 42.140625 41.359375 37.703125 38.96875 
Q 43.5625 36.71875 47.21875 31.390625 
Q 50.875 26.078125 50.875 20.015625 
Q 50.875 10.5 44.421875 4.640625 
Q 37.984375 -1.21875 27.78125 -1.21875 
Q 17.671875 -1.21875 11.203125 4.703125 
Q 4.734375 10.640625 4.734375 20.015625 
z
M 12.640625 20.75 
Q 12.640625 13.71875 16.890625 9.546875 
Q 21.140625 5.375 27.828125 5.375 
Q 34.46875 5.375 38.78125 9.671875 
Q 43.109375 13.96875 43.109375 20.75 
Q 43.109375 27.046875 38.78125 31.421875 
Q 34.46875 35.796875 27.828125 35.796875 
Q 21.4375 35.796875 17.03125 31.5625 
Q 12.640625 27.34375 12.640625 20.75 
z
M 15.671875 54.046875 
Q 15.671875 48.828125 19.28125 45.3125 
Q 22.90625 41.796875 27.828125 41.796875 
Q 32.765625 41.796875 36.40625 45.3125 
Q 40.046875 48.828125 40.046875 54.046875 
Q 40.046875 59.421875 36.578125 62.90625 
Q 33.109375 66.40625 27.828125 66.40625 
Q 22.65625 66.40625 19.15625 62.953125 
Q 15.671875 59.515625 15.671875 54.046875 
z
" id="MalgunGothic-56"/>
      </defs>
      <g transform="translate(23.060938 249.022622)scale(0.1 -0.1)">
       <use xlink:href="#MalgunGothic-56"/>
       <use x="55.078125" xlink:href="#MalgunGothic-48"/>
       <use x="110.15625" xlink:href="#MalgunGothic-48"/>
       <use x="165.234375" xlink:href="#MalgunGothic-48"/>
       <use x="220.3125" xlink:href="#MalgunGothic-48"/>
      </g>
     </g>
    </g>
    <g id="ytick_3">
     <g id="line2d_28">
      <g>
       <use style="stroke:#000000;stroke-width:0.8;" x="57.6" xlink:href="#m3f73c5851c" y="206.112543"/>
      </g>
     </g>
     <g id="text_7">
      <!-- 100000 -->
      <g transform="translate(17.553125 209.908637)scale(0.1 -0.1)">
       <use xlink:href="#MalgunGothic-49"/>
       <use x="55.078125" xlink:href="#MalgunGothic-48"/>
       <use x="110.15625" xlink:href="#MalgunGothic-48"/>
       <use x="165.234375" xlink:href="#MalgunGothic-48"/>
       <use x="220.3125" xlink:href="#MalgunGothic-48"/>
       <use x="275.390625" xlink:href="#MalgunGothic-48"/>
      </g>
     </g>
    </g>
    <g id="ytick_4">
     <g id="line2d_29">
      <g>
       <use style="stroke:#000000;stroke-width:0.8;" x="57.6" xlink:href="#m3f73c5851c" y="166.998558"/>
      </g>
     </g>
     <g id="text_8">
      <!-- 120000 -->
      <g transform="translate(17.553125 170.794652)scale(0.1 -0.1)">
       <use xlink:href="#MalgunGothic-49"/>
       <use x="55.078125" xlink:href="#MalgunGothic-50"/>
       <use x="110.15625" xlink:href="#MalgunGothic-48"/>
       <use x="165.234375" xlink:href="#MalgunGothic-48"/>
       <use x="220.3125" xlink:href="#MalgunGothic-48"/>
       <use x="275.390625" xlink:href="#MalgunGothic-48"/>
      </g>
     </g>
    </g>
    <g id="ytick_5">
     <g id="line2d_30">
      <g>
       <use style="stroke:#000000;stroke-width:0.8;" x="57.6" xlink:href="#m3f73c5851c" y="127.884572"/>
      </g>
     </g>
     <g id="text_9">
      <!-- 140000 -->
      <defs>
       <path d="M 42.234375 71.875 
L 42.234375 24.421875 
L 51.703125 24.421875 
L 51.703125 17.390625 
L 42.234375 17.390625 
L 42.234375 0 
L 34.578125 0 
L 34.578125 17.390625 
L 0.78125 17.390625 
L 0.78125 23.96875 
Q 11.375 35.890625 20.234375 48.578125 
Q 29.109375 61.28125 33.9375 71.875 
z
M 9.765625 24.421875 
L 34.578125 24.421875 
L 34.578125 59.859375 
Q 25.203125 43.5625 14.984375 30.953125 
z
" id="MalgunGothic-52"/>
      </defs>
      <g transform="translate(17.553125 131.680666)scale(0.1 -0.1)">
       <use xlink:href="#MalgunGothic-49"/>
       <use x="55.078125" xlink:href="#MalgunGothic-52"/>
       <use x="110.15625" xlink:href="#MalgunGothic-48"/>
       <use x="165.234375" xlink:href="#MalgunGothic-48"/>
       <use x="220.3125" xlink:href="#MalgunGothic-48"/>
       <use x="275.390625" xlink:href="#MalgunGothic-48"/>
      </g>
     </g>
    </g>
    <g id="ytick_6">
     <g id="line2d_31">
      <g>
       <use style="stroke:#000000;stroke-width:0.8;" x="57.6" xlink:href="#m3f73c5851c" y="88.770587"/>
      </g>
     </g>
     <g id="text_10">
      <!-- 160000 -->
      <g transform="translate(17.553125 92.566681)scale(0.1 -0.1)">
       <use xlink:href="#MalgunGothic-49"/>
       <use x="55.078125" xlink:href="#MalgunGothic-54"/>
       <use x="110.15625" xlink:href="#MalgunGothic-48"/>
       <use x="165.234375" xlink:href="#MalgunGothic-48"/>
       <use x="220.3125" xlink:href="#MalgunGothic-48"/>
       <use x="275.390625" xlink:href="#MalgunGothic-48"/>
      </g>
     </g>
    </g>
    <g id="ytick_7">
     <g id="line2d_32">
      <g>
       <use style="stroke:#000000;stroke-width:0.8;" x="57.6" xlink:href="#m3f73c5851c" y="49.656601"/>
      </g>
     </g>
     <g id="text_11">
      <!-- 180000 -->
      <g transform="translate(17.553125 53.452695)scale(0.1 -0.1)">
       <use xlink:href="#MalgunGothic-49"/>
       <use x="55.078125" xlink:href="#MalgunGothic-56"/>
       <use x="110.15625" xlink:href="#MalgunGothic-48"/>
       <use x="165.234375" xlink:href="#MalgunGothic-48"/>
       <use x="220.3125" xlink:href="#MalgunGothic-48"/>
       <use x="275.390625" xlink:href="#MalgunGothic-48"/>
      </g>
     </g>
    </g>
   </g>
   <g id="line2d_33">
    <path clip-path="url(#p0b85661557)" d="M 57.6 282.580385 
L 74.605714 284.340514 
L 91.611429 285.318364 
L 108.617143 284.340514 
L 125.622857 282.580385 
L 142.628571 282.580385 
L 159.634286 284.144944 
L 176.64 283.949374 
L 193.645714 283.558234 
L 210.651429 284.731654 
L 227.657143 286.296213 
L 244.662857 288.056343 
L 261.668571 290.989892 
L 278.674286 289.425332 
L 295.68 286.687353 
L 312.685714 287.274063 
L 329.691429 283.753804 
L 346.697143 284.144944 
L 363.702857 283.949374 
L 380.708571 283.949374 
L 397.714286 281.798105 
L 414.72 282.384815 
" style="fill:none;stroke:#1f77b4;stroke-linecap:square;stroke-width:1.5;"/>
   </g>
   <g id="line2d_34">
    <path clip-path="url(#p0b85661557)" d="M 57.6 232.514483 
L 74.605714 231.341064 
L 91.611429 234.861323 
L 108.617143 232.123344 
L 125.622857 235.056892 
L 142.628571 237.794871 
L 159.634286 238.772721 
L 176.64 237.599302 
L 193.645714 238.968291 
L 210.651429 240.141711 
L 227.657143 239.555001 
L 244.662857 241.90184 
L 261.668571 245.422099 
L 278.674286 246.008808 
L 295.68 242.48855 
L 312.685714 238.968291 
L 329.691429 233.296763 
L 346.697143 232.905623 
L 363.702857 233.492333 
L 380.708571 232.514483 
L 397.714286 231.536634 
L 414.72 229.385365 
" style="fill:none;stroke:#ff7f0e;stroke-linecap:square;stroke-width:1.5;"/>
   </g>
   <g id="line2d_35">
    <path clip-path="url(#p0b85661557)" d="M 57.6 290.794322 
L 74.605714 290.989892 
L 91.611429 290.794322 
L 108.617143 288.447483 
L 125.622857 290.403182 
L 142.628571 287.860773 
L 159.634286 288.447483 
L 176.64 287.665203 
L 193.645714 288.056343 
L 210.651429 290.207612 
L 227.657143 290.403182 
L 244.662857 292.945591 
L 261.668571 295.488 
L 278.674286 294.119011 
L 295.68 290.598752 
L 312.685714 291.381032 
L 329.691429 289.816472 
L 346.697143 290.012042 
L 363.702857 288.447483 
L 380.708571 271.824039 
L 397.714286 271.237329 
L 414.72 275.148728 
" style="fill:none;stroke:#2ca02c;stroke-linecap:square;stroke-width:1.5;"/>
   </g>
   <g id="line2d_36">
    <path clip-path="url(#p0b85661557)" d="M 57.6 53.568 
L 74.605714 57.479399 
L 91.611429 65.302196 
L 108.617143 73.124993 
L 125.622857 74.102842 
L 142.628571 78.014241 
L 159.634286 83.881339 
L 176.64 75.080692 
L 193.645714 66.280045 
L 210.651429 64.324346 
L 227.657143 62.368647 
L 244.662857 69.213594 
L 261.668571 79.96994 
L 278.674286 68.235745 
L 295.68 68.235745 
L 312.685714 66.280045 
L 329.691429 59.435098 
L 346.697143 68.235745 
L 363.702857 64.324346 
L 380.708571 62.368647 
L 397.714286 58.457248 
L 414.72 61.390797 
" style="fill:none;stroke:#d62728;stroke-linecap:square;stroke-width:1.5;"/>
   </g>
   <g id="patch_3">
    <path d="M 57.6 307.584 
L 57.6 41.472 
" style="fill:none;stroke:#000000;stroke-linecap:square;stroke-linejoin:miter;stroke-width:0.8;"/>
   </g>
   <g id="patch_4">
    <path d="M 414.72 307.584 
L 414.72 41.472 
" style="fill:none;stroke:#000000;stroke-linecap:square;stroke-linejoin:miter;stroke-width:0.8;"/>
   </g>
   <g id="patch_5">
    <path d="M 57.6 307.584 
L 414.72 307.584 
" style="fill:none;stroke:#000000;stroke-linecap:square;stroke-linejoin:miter;stroke-width:0.8;"/>
   </g>
   <g id="patch_6">
    <path d="M 57.6 41.472 
L 414.72 41.472 
" style="fill:none;stroke:#000000;stroke-linecap:square;stroke-linejoin:miter;stroke-width:0.8;"/>
   </g>
   <g id="legend_1">
    <g id="patch_7">
     <path d="M 324.387188 205.9405 
L 407.72 205.9405 
Q 409.72 205.9405 409.72 203.9405 
L 409.72 145.1155 
Q 409.72 143.1155 407.72 143.1155 
L 324.387188 143.1155 
Q 322.387188 143.1155 322.387188 145.1155 
L 322.387188 203.9405 
Q 322.387188 205.9405 324.387188 205.9405 
z
" style="fill:#ffffff;opacity:0.8;stroke:#cccccc;stroke-linejoin:miter;"/>
    </g>
    <g id="line2d_37">
     <path d="M 326.387188 151.207687 
L 346.387188 151.207687 
" style="fill:none;stroke:#1f77b4;stroke-linecap:square;stroke-width:1.5;"/>
    </g>
    <g id="line2d_38"/>
    <g id="text_12">
     <!-- 삼성전자 -->
     <defs>
      <path d="M 80.078125 53.71875 
L 80.078125 33.40625 
L 72.796875 33.40625 
L 72.796875 85.40625 
L 80.078125 85.40625 
L 80.078125 60.296875 
L 94.28125 60.296875 
L 94.28125 53.71875 
z
M 56.296875 36.71875 
Q 50.203125 39.984375 43.484375 46.28125 
Q 36.765625 52.59375 34.1875 58.015625 
Q 31.59375 51.90625 25.140625 45.046875 
Q 18.703125 38.1875 11.71875 34.28125 
L 6.390625 39.3125 
Q 16.796875 44.34375 23.65625 53.609375 
Q 30.515625 62.890625 30.515625 72.796875 
L 30.515625 82.71875 
L 37.5 82.71875 
L 37.5 72.796875 
Q 37.5 63.375 44.453125 54.734375 
Q 51.421875 46.09375 61.078125 42 
z
M 22.609375 -6.203125 
L 22.609375 28.21875 
L 80.078125 28.21875 
L 80.078125 -6.203125 
z
M 72.90625 21.78125 
L 29.78125 21.78125 
L 29.78125 0.203125 
L 72.90625 0.203125 
z
" id="MalgunGothic-49340"/>
      <path d="M 77.296875 31 
L 77.296875 59.078125 
L 55.328125 59.078125 
L 55.328125 65.625 
L 77.296875 65.625 
L 77.296875 85.40625 
L 84.625 85.40625 
L 84.625 31 
z
M 57.078125 36.375 
Q 50.6875 39.84375 44.234375 46.09375 
Q 37.796875 52.34375 35.203125 57.8125 
Q 32.421875 51.609375 25.921875 44.65625 
Q 19.4375 37.703125 12.796875 33.984375 
L 7.625 39.015625 
Q 17.71875 43.84375 24.546875 53.015625 
Q 31.390625 62.203125 31.390625 72.3125 
L 31.390625 82.328125 
L 38.484375 82.328125 
L 38.484375 72.3125 
Q 38.484375 62.890625 45.5625 54.25 
Q 52.640625 45.609375 62.015625 41.703125 
z
M 55.71875 -7.421875 
Q 40.96875 -7.421875 32.9375 -2.3125 
Q 24.90625 2.78125 24.90625 10.890625 
Q 24.90625 19 32.90625 24.046875 
Q 40.921875 29.109375 55.71875 29.109375 
Q 70.515625 29.109375 78.515625 24.046875 
Q 86.53125 19 86.53125 10.890625 
Q 86.53125 2.78125 78.484375 -2.3125 
Q 70.453125 -7.421875 55.71875 -7.421875 
z
M 55.71875 22.90625 
Q 44.53125 22.90625 38.625 19.5 
Q 32.71875 16.109375 32.71875 10.890625 
Q 32.71875 5.609375 38.640625 2.234375 
Q 44.578125 -1.125 55.71875 -1.125 
Q 66.796875 -1.125 72.75 2.21875 
Q 78.71875 5.5625 78.71875 10.890625 
Q 78.71875 16.15625 72.796875 19.53125 
Q 66.890625 22.90625 55.71875 22.90625 
z
" id="MalgunGothic-49457"/>
      <path d="M 76.21875 18.40625 
L 76.21875 55.078125 
L 54.203125 55.078125 
L 54.203125 61.625 
L 76.21875 61.625 
L 76.21875 85.40625 
L 83.5 85.40625 
L 83.5 18.40625 
z
M 57.421875 32.328125 
Q 50.4375 36.625 44.203125 43.375 
Q 37.984375 50.140625 35.40625 55.71875 
Q 32.671875 49.21875 25.96875 41.375 
Q 19.28125 33.546875 12.796875 29.890625 
L 7.515625 34.90625 
Q 17.578125 39.984375 24.578125 49.96875 
Q 31.59375 59.96875 31.59375 70.21875 
L 31.59375 73.6875 
L 10.6875 73.6875 
L 10.6875 80.328125 
L 59.1875 80.328125 
L 59.1875 73.6875 
L 38.71875 73.6875 
L 38.71875 70.21875 
Q 38.71875 60.84375 45.984375 51.34375 
Q 53.265625 41.84375 62.3125 37.59375 
z
M 25.484375 -5.71875 
L 25.484375 25.09375 
L 32.8125 25.09375 
L 32.8125 0.6875 
L 85.984375 0.6875 
L 85.984375 -5.71875 
z
" id="MalgunGothic-51204"/>
      <path d="M 79.59375 40.625 
L 79.59375 -8.796875 
L 72.3125 -8.796875 
L 72.3125 85.40625 
L 79.59375 85.40625 
L 79.59375 47.125 
L 95.90625 47.125 
L 95.90625 40.625 
z
M 57.421875 14.203125 
Q 50.4375 19.53125 43.875 28.3125 
Q 37.3125 37.109375 35.109375 44.09375 
Q 33.203125 37.40625 26.75 28.265625 
Q 20.3125 19.140625 12.5 12.890625 
L 6.890625 17.71875 
Q 17.1875 24.515625 24.234375 36.9375 
Q 31.296875 49.359375 31.296875 60.796875 
L 31.296875 70.703125 
L 10.40625 70.703125 
L 10.40625 77.203125 
L 58.984375 77.203125 
L 58.984375 70.703125 
L 38.484375 70.703125 
L 38.484375 61.28125 
Q 38.484375 49.8125 45.5625 38.03125 
Q 52.640625 26.265625 62.5 19.671875 
z
" id="MalgunGothic-51088"/>
     </defs>
     <g transform="translate(354.387188 154.707687)scale(0.1 -0.1)">
      <use xlink:href="#MalgunGothic-49340"/>
      <use x="100" xlink:href="#MalgunGothic-49457"/>
      <use x="200" xlink:href="#MalgunGothic-51204"/>
      <use x="300" xlink:href="#MalgunGothic-51088"/>
     </g>
    </g>
    <g id="line2d_39">
     <path d="M 326.387188 166.163938 
L 346.387188 166.163938 
" style="fill:none;stroke:#ff7f0e;stroke-linecap:square;stroke-width:1.5;"/>
    </g>
    <g id="line2d_40"/>
    <g id="text_13">
     <!-- SK하이닉스 -->
     <defs>
      <path d="M 6.15625 12.453125 
Q 9.46875 9.578125 15.0625 7.8125 
Q 20.65625 6.0625 25.390625 6.0625 
Q 41.0625 6.0625 41.0625 17.4375 
Q 41.0625 20.703125 39.421875 23.1875 
Q 37.796875 25.6875 35.15625 27.4375 
Q 32.515625 29.203125 24.171875 33.5 
Q 14.109375 38.671875 10.171875 43.03125 
Q 6.25 47.40625 6.25 54 
Q 6.25 62.796875 13.40625 67.921875 
Q 20.5625 73.046875 31.0625 73.046875 
Q 41.703125 73.046875 46.296875 70.515625 
L 46.296875 61.375 
Q 40.046875 65.71875 30.03125 65.71875 
Q 23.1875 65.71875 18.859375 62.78125 
Q 14.546875 59.859375 14.546875 54.6875 
Q 14.546875 50 17.59375 47.046875 
Q 20.65625 44.09375 30.28125 39.40625 
Q 41.5 33.796875 45.40625 28.8125 
Q 49.3125 23.828125 49.3125 18.015625 
Q 49.3125 8.6875 42.578125 3.734375 
Q 35.84375 -1.21875 23.921875 -1.21875 
Q 20.171875 -1.21875 14.484375 -0.015625 
Q 8.796875 1.171875 6.15625 2.9375 
z
" id="MalgunGothic-83"/>
      <path d="M 58.890625 0 
L 47.703125 0 
L 19.53125 32.953125 
Q 17.96875 34.765625 17.625 35.359375 
L 17.390625 35.359375 
L 17.390625 0 
L 9.515625 0 
L 9.515625 71.875 
L 17.390625 71.875 
L 17.390625 38.09375 
L 17.625 38.09375 
Q 18.359375 39.203125 19.53125 40.4375 
L 46.875 71.875 
L 56.6875 71.875 
L 25.53125 37.40625 
z
" id="MalgunGothic-75"/>
      <path d="M 79.59375 35.59375 
L 79.59375 -8.796875 
L 72.3125 -8.796875 
L 72.3125 85.40625 
L 79.59375 85.40625 
L 79.59375 42.09375 
L 95.515625 42.09375 
L 95.515625 35.59375 
z
M 7.328125 63.8125 
L 7.328125 70.40625 
L 31.59375 70.40625 
L 31.59375 85.40625 
L 38.921875 85.40625 
L 38.921875 70.40625 
L 63.28125 70.40625 
L 63.28125 63.8125 
z
M 35.203125 14.59375 
Q 24.8125 14.59375 18.21875 20.59375 
Q 11.625 26.609375 11.625 35.5 
Q 11.625 44.53125 18.21875 50.515625 
Q 24.8125 56.5 35.296875 56.5 
Q 45.75 56.5 52.359375 50.484375 
Q 58.984375 44.484375 58.984375 35.40625 
Q 58.984375 26.46875 52.359375 20.53125 
Q 45.75 14.59375 35.203125 14.59375 
z
M 35.296875 50.296875 
Q 28.078125 50.296875 23.4375 45.953125 
Q 18.796875 41.609375 18.796875 35.5 
Q 18.796875 29.4375 23.453125 25.109375 
Q 28.125 20.796875 35.296875 20.796875 
Q 42.484375 20.796875 47.140625 25.109375 
Q 51.8125 29.4375 51.8125 35.5 
Q 51.8125 41.609375 47.171875 45.953125 
Q 42.53125 50.296875 35.296875 50.296875 
z
" id="MalgunGothic-54616"/>
      <path d="M 77.296875 -8.796875 
L 77.296875 85.40625 
L 84.625 85.40625 
L 84.625 -8.796875 
z
M 35.6875 14.984375 
Q 24.953125 14.984375 18.328125 23.65625 
Q 11.71875 32.328125 11.71875 47.125 
Q 11.71875 62.109375 18.265625 70.65625 
Q 24.8125 79.203125 35.6875 79.203125 
Q 46.53125 79.203125 53.171875 70.65625 
Q 59.8125 62.109375 59.8125 47.125 
Q 59.8125 32.234375 53.140625 23.609375 
Q 46.484375 14.984375 35.6875 14.984375 
z
M 35.6875 72.703125 
Q 28.171875 72.703125 23.484375 65.6875 
Q 18.796875 58.6875 18.796875 47.125 
Q 18.796875 35.59375 23.53125 28.53125 
Q 28.265625 21.484375 35.6875 21.484375 
Q 43.0625 21.484375 47.828125 28.5625 
Q 52.59375 35.640625 52.59375 47.125 
Q 52.59375 58.734375 47.921875 65.71875 
Q 43.265625 72.703125 35.6875 72.703125 
z
" id="MalgunGothic-51060"/>
      <path d="M 77.390625 32.71875 
L 77.390625 85.40625 
L 84.71875 85.40625 
L 84.71875 32.71875 
z
M 69.828125 43.40625 
Q 60.640625 41.109375 17.671875 41.109375 
L 17.671875 81.59375 
L 25 81.59375 
L 25 47.609375 
Q 57.90625 47.609375 68.890625 49.609375 
z
M 77.390625 -8.796875 
L 77.390625 20.90625 
L 23.875 20.90625 
L 23.875 27.484375 
L 84.71875 27.484375 
L 84.71875 -8.796875 
z
" id="MalgunGothic-45769"/>
      <path d="M 49.90625 60.890625 
Q 46.390625 53.375 36.375 45.78125 
Q 26.375 38.1875 14.984375 35.109375 
L 10.015625 40.921875 
Q 26.609375 44.390625 36.390625 54.25 
Q 46.1875 64.109375 46.1875 72.796875 
L 46.1875 77.78125 
L 53.71875 77.78125 
L 53.71875 72.796875 
Q 53.71875 63.96875 63.640625 54.3125 
Q 73.578125 44.671875 89.984375 41.015625 
L 84.8125 35.203125 
Q 73.34375 38.765625 63.40625 46.1875 
Q 53.46875 53.609375 49.90625 60.890625 
z
M 93.703125 6.984375 
L 6.296875 6.984375 
L 6.296875 13.484375 
L 93.703125 13.484375 
z
" id="MalgunGothic-49828"/>
     </defs>
     <g transform="translate(354.387188 169.663938)scale(0.1 -0.1)">
      <use xlink:href="#MalgunGothic-83"/>
      <use x="54.296875" xlink:href="#MalgunGothic-75"/>
      <use x="113.330078" xlink:href="#MalgunGothic-54616"/>
      <use x="213.330078" xlink:href="#MalgunGothic-51060"/>
      <use x="313.330078" xlink:href="#MalgunGothic-45769"/>
      <use x="413.330078" xlink:href="#MalgunGothic-49828"/>
     </g>
    </g>
    <g id="line2d_41">
     <path d="M 326.387188 181.120187 
L 346.387188 181.120187 
" style="fill:none;stroke:#2ca02c;stroke-linecap:square;stroke-width:1.5;"/>
    </g>
    <g id="line2d_42"/>
    <g id="text_14">
     <!-- S-Oil -->
     <defs>
      <path d="M 34.578125 25.53125 
L 7.234375 25.53125 
L 7.234375 31.734375 
L 34.578125 31.734375 
z
" id="MalgunGothic-45"/>
      <path d="M 4.78125 35.0625 
Q 4.78125 52.34375 14.109375 62.6875 
Q 23.4375 73.046875 39.546875 73.046875 
Q 54.390625 73.046875 63.46875 62.953125 
Q 72.5625 52.875 72.5625 36.859375 
Q 72.5625 19.625 63.375 9.203125 
Q 54.203125 -1.21875 38.375 -1.21875 
Q 23.25 -1.21875 14.015625 8.90625 
Q 4.78125 19.046875 4.78125 35.0625 
z
M 13.09375 35.796875 
Q 13.09375 22.75 19.96875 14.34375 
Q 26.859375 5.953125 38.328125 5.953125 
Q 50.59375 5.953125 57.453125 13.890625 
Q 64.3125 21.828125 64.3125 35.6875 
Q 64.3125 49.8125 57.6875 57.8125 
Q 51.078125 65.828125 38.96875 65.828125 
Q 27.203125 65.828125 20.140625 57.34375 
Q 13.09375 48.875 13.09375 35.796875 
z
" id="MalgunGothic-79"/>
      <path d="M 7.375 69.78125 
Q 7.375 71.96875 8.828125 73.453125 
Q 10.296875 74.953125 12.40625 74.953125 
Q 14.59375 74.953125 16.078125 73.4375 
Q 17.578125 71.921875 17.578125 69.78125 
Q 17.578125 67.578125 16.078125 66.109375 
Q 14.59375 64.65625 12.40625 64.65625 
Q 10.296875 64.65625 8.828125 66.09375 
Q 7.375 67.53125 7.375 69.78125 
z
M 8.453125 0 
L 8.453125 51.3125 
L 16.15625 51.3125 
L 16.15625 0 
z
" id="MalgunGothic-105"/>
      <path d="M 8.453125 0 
L 8.453125 75.921875 
L 16.15625 75.921875 
L 16.15625 0 
z
" id="MalgunGothic-108"/>
     </defs>
     <g transform="translate(354.387188 184.620187)scale(0.1 -0.1)">
      <use xlink:href="#MalgunGothic-83"/>
      <use x="54.296875" xlink:href="#MalgunGothic-45"/>
      <use x="95.3125" xlink:href="#MalgunGothic-79"/>
      <use x="172.65625" xlink:href="#MalgunGothic-105"/>
      <use x="197.265625" xlink:href="#MalgunGothic-108"/>
     </g>
    </g>
    <g id="line2d_43">
     <path d="M 326.387188 196.076437 
L 346.387188 196.076437 
" style="fill:none;stroke:#d62728;stroke-linecap:square;stroke-width:1.5;"/>
    </g>
    <g id="line2d_44"/>
    <g id="text_15">
     <!-- 현대차 -->
     <defs>
      <path d="M 61.71875 31 
L 61.71875 37.3125 
L 77.296875 37.3125 
L 77.296875 51.3125 
L 61.71875 51.3125 
L 61.71875 57.71875 
L 77.296875 57.71875 
L 77.296875 85.40625 
L 84.625 85.40625 
L 84.625 14.890625 
L 77.296875 14.890625 
L 77.296875 31 
z
M 7.71875 65.828125 
L 7.71875 72.3125 
L 31.6875 72.3125 
L 31.6875 84.71875 
L 38.921875 84.71875 
L 38.921875 72.3125 
L 62.890625 72.3125 
L 62.890625 65.828125 
z
M 35.203125 27.09375 
Q 24.65625 27.09375 18.578125 32.046875 
Q 12.5 37.015625 12.5 44.09375 
Q 12.5 51.171875 18.625 56.078125 
Q 24.75 60.984375 35.296875 60.984375 
Q 45.75 60.984375 51.875 56.078125 
Q 58.015625 51.171875 58.015625 44.09375 
Q 58.015625 37.015625 51.921875 32.046875 
Q 45.84375 27.09375 35.203125 27.09375 
z
M 35.296875 54.78125 
Q 28.171875 54.78125 24 51.734375 
Q 19.828125 48.6875 19.828125 44.09375 
Q 19.828125 39.453125 24.046875 36.375 
Q 28.265625 33.296875 35.296875 33.296875 
Q 42.390625 33.296875 46.53125 36.390625 
Q 50.6875 39.5 50.6875 44.09375 
Q 50.6875 48.640625 46.5625 51.703125 
Q 42.4375 54.78125 35.296875 54.78125 
z
M 24.703125 -6.203125 
L 24.703125 19.578125 
L 31.890625 19.578125 
L 31.890625 0.203125 
L 87.109375 0.203125 
L 87.109375 -6.203125 
z
" id="MalgunGothic-54788"/>
      <path d="M 79.203125 -8.796875 
L 79.203125 40.1875 
L 67.09375 40.1875 
L 67.09375 -5.90625 
L 59.90625 -5.90625 
L 59.90625 83.5 
L 67.09375 83.5 
L 67.09375 46.6875 
L 79.203125 46.6875 
L 79.203125 85.40625 
L 86.53125 85.40625 
L 86.53125 -8.796875 
z
M 52.984375 18.015625 
Q 39.3125 16.609375 12.890625 16.609375 
L 12.890625 77.09375 
L 49.03125 77.09375 
L 49.03125 70.609375 
L 20.125 70.609375 
L 20.125 23.09375 
L 28.8125 23.09375 
Q 43.609375 23.09375 52.484375 24.21875 
z
" id="MalgunGothic-45824"/>
      <path d="M 59.421875 15.1875 
Q 51.375 19.875 44.5 27.6875 
Q 37.640625 35.5 35.40625 41.609375 
Q 33.5 35.59375 26.4375 26.796875 
Q 19.390625 18.015625 12.109375 13.28125 
L 6.6875 18.703125 
Q 16.9375 23.640625 24.359375 34.734375 
Q 31.78125 45.84375 31.78125 56.203125 
L 31.78125 65.71875 
L 8.796875 65.71875 
L 8.796875 72.21875 
L 31.6875 72.21875 
L 31.6875 85.40625 
L 38.921875 85.40625 
L 38.921875 72.21875 
L 61.8125 72.21875 
L 61.8125 65.71875 
L 38.921875 65.71875 
L 38.921875 55.90625 
Q 38.921875 45.90625 46.34375 35.640625 
Q 53.765625 25.390625 64.40625 20.90625 
z
M 79.59375 39.015625 
L 79.59375 -8.796875 
L 72.3125 -8.796875 
L 72.3125 85.40625 
L 79.59375 85.40625 
L 79.59375 45.609375 
L 95.015625 45.609375 
L 95.015625 39.015625 
z
" id="MalgunGothic-52264"/>
     </defs>
     <g transform="translate(354.387188 199.576437)scale(0.1 -0.1)">
      <use xlink:href="#MalgunGothic-54788"/>
      <use x="100" xlink:href="#MalgunGothic-45824"/>
      <use x="200" xlink:href="#MalgunGothic-52264"/>
     </g>
    </g>
   </g>
  </g>
 </g>
 <defs>
  <clipPath id="p0b85661557">
   <rect height="266.112" width="357.12" x="57.6" y="41.472"/>
  </clipPath>
 </defs>
</svg>
