<?xml version="1.0" encoding="utf-8" standalone="no"?>
<!DOCTYPE svg PUBLIC "-//W3C//DTD SVG 1.1//EN"
  "http://www.w3.org/Graphics/SVG/1.1/DTD/svg11.dtd">
<!-- Created with matplotlib (https://matplotlib.org/) -->
<svg height="345.6pt" version="1.1" viewBox="0 0 460.8 345.6" width="460.8pt" xmlns="http://www.w3.org/2000/svg" xmlns:xlink="http://www.w3.org/1999/xlink">
 <metadata>
  <rdf:RDF xmlns:cc="http://creativecommons.org/ns#" xmlns:dc="http://purl.org/dc/elements/1.1/" xmlns:rdf="http://www.w3.org/1999/02/22-rdf-syntax-ns#">
   <cc:Work>
    <dc:type rdf:resource="http://purl.org/dc/dcmitype/StillImage"/>
    <dc:date>2020-12-18T12:40:58.713919</dc:date>
    <dc:format>image/svg+xml</dc:format>
    <dc:creator>
     <cc:Agent>
      <dc:title>Matplotlib v3.3.1, https://matplotlib.org/</dc:title>
     </cc:Agent>
    </dc:creator>
   </cc:Work>
  </rdf:RDF>
 </metadata>
 <defs>
  <style type="text/css">*{stroke-linecap:butt;stroke-linejoin:round;}</style>
 </defs>
 <g id="figure_1">
  <g id="patch_1">
   <path d="M 0 345.6 
L 460.8 345.6 
L 460.8 0 
L 0 0 
z
" style="fill:#ffffff;"/>
  </g>
  <g id="axes_1">
   <g id="patch_2">
    <path d="M 57.6 307.584 
L 414.72 307.584 
L 414.72 41.472 
L 57.6 41.472 
z
" style="fill:#ffffff;"/>
   </g>
   <g id="matplotlib.axis_1">
    <g id="xtick_1">
     <g id="line2d_1">
      <defs>
       <path d="M 0 0 
L 0 3.5 
" id="m42d355ce10" style="stroke:#000000;stroke-width:0.8;"/>
      </defs>
      <g>
       <use style="stroke:#000000;stroke-width:0.8;" x="57.6" xlink:href="#m42d355ce10" y="307.584"/>
      </g>
     </g>
    </g>
    <g id="xtick_2">
     <g id="line2d_2">
      <g>
       <use style="stroke:#000000;stroke-width:0.8;" x="203.694545" xlink:href="#m42d355ce10" y="307.584"/>
      </g>
     </g>
     <g id="text_1">
      <!--  -->
      <g transform="translate(203.694545 322.176187)scale(0.1 -0.1)"/>
      <!--  -->
      <g transform="translate(203.694545 333.650875)scale(0.1 -0.1)"/>
      <!-- Nov -->
      <g transform="translate(194.436733 345.125563)scale(0.1 -0.1)">
       <defs>
        <path d="M 67 0 
L 57.078125 0 
L 19.578125 58.015625 
Q 18.40625 59.8125 17.328125 62.5 
L 17.09375 62.5 
Q 17.4375 59.71875 17.4375 52.6875 
L 17.4375 0 
L 9.515625 0 
L 9.515625 71.875 
L 19.96875 71.875 
L 56.453125 14.65625 
Q 58.984375 10.6875 59.328125 9.90625 
L 59.515625 9.90625 
Q 58.984375 13.484375 58.984375 20.5625 
L 58.984375 71.875 
L 67 71.875 
z
" id="MalgunGothic-78"/>
        <path d="M 4.9375 25 
Q 4.9375 37.796875 11.890625 45.140625 
Q 18.84375 52.484375 30.90625 52.484375 
Q 42.140625 52.484375 48.609375 45.421875 
Q 55.078125 38.375 55.078125 25.78125 
Q 55.078125 13.578125 48.09375 6.171875 
Q 41.109375 -1.21875 29.6875 -1.21875 
Q 18.5 -1.21875 11.71875 6 
Q 4.9375 13.234375 4.9375 25 
z
M 12.796875 25.34375 
Q 12.796875 16.265625 17.546875 10.8125 
Q 22.3125 5.375 30.21875 5.375 
Q 38.421875 5.375 42.796875 10.625 
Q 47.171875 15.875 47.171875 25.53125 
Q 47.171875 35.25 42.765625 40.59375 
Q 38.375 45.953125 30.21875 45.953125 
Q 22.265625 45.953125 17.53125 40.421875 
Q 12.796875 34.90625 12.796875 25.34375 
z
" id="MalgunGothic-111"/>
        <path d="M 48.1875 51.3125 
L 27.640625 0 
L 20.21875 0 
L 0.734375 51.3125 
L 9.28125 51.3125 
L 22.515625 13.625 
Q 23.921875 9.515625 24.3125 6.640625 
L 24.5625 6.640625 
Q 25.046875 10.453125 26.125 13.484375 
L 40.046875 51.3125 
z
" id="MalgunGothic-118"/>
       </defs>
       <use xlink:href="#MalgunGothic-78"/>
       <use x="76.513672" xlink:href="#MalgunGothic-111"/>
       <use x="136.425781" xlink:href="#MalgunGothic-118"/>
      </g>
      <!-- 2020 -->
      <g transform="translate(192.67892 356.60025)scale(0.1 -0.1)">
       <defs>
        <path d="M 39.359375 52.6875 
Q 39.359375 59.125 35.546875 62.78125 
Q 31.734375 66.453125 25.4375 66.453125 
Q 20.953125 66.453125 16.453125 64.125 
Q 11.96875 61.8125 8.34375 57.765625 
L 8.34375 66.15625 
Q 15.328125 73.046875 26.421875 73.046875 
Q 35.640625 73.046875 41.28125 67.71875 
Q 46.921875 62.40625 46.921875 53.375 
Q 46.921875 45.609375 43.3125 39.765625 
Q 39.703125 33.9375 31 27.734375 
Q 22.796875 21.96875 19.59375 18.984375 
Q 16.40625 16.015625 15.109375 13.34375 
Q 13.8125 10.6875 13.8125 7.03125 
L 48.6875 7.03125 
L 48.6875 0 
L 5.5625 0 
L 5.5625 3.515625 
Q 5.5625 9.421875 7.203125 13.59375 
Q 8.84375 17.78125 12.671875 21.75 
Q 16.5 25.734375 24.953125 31.59375 
Q 32.671875 36.921875 36.015625 41.71875 
Q 39.359375 46.53125 39.359375 52.6875 
z
" id="MalgunGothic-50"/>
        <path d="M 4.34375 34.46875 
Q 4.34375 53.515625 10.546875 63.28125 
Q 16.75 73.046875 28.421875 73.046875 
Q 50.828125 73.046875 50.828125 36.234375 
Q 50.828125 18.0625 44.59375 8.421875 
Q 38.375 -1.21875 26.8125 -1.21875 
Q 15.875 -1.21875 10.109375 8.125 
Q 4.34375 17.484375 4.34375 34.46875 
z
M 12.25 34.859375 
Q 12.25 5.375 27.640625 5.375 
Q 42.921875 5.375 42.921875 35.296875 
Q 42.921875 66.40625 28.03125 66.40625 
Q 12.25 66.40625 12.25 34.859375 
z
" id="MalgunGothic-48"/>
       </defs>
       <use xlink:href="#MalgunGothic-50"/>
       <use x="55.078125" xlink:href="#MalgunGothic-48"/>
       <use x="110.15625" xlink:href="#MalgunGothic-50"/>
       <use x="165.234375" xlink:href="#MalgunGothic-48"/>
      </g>
     </g>
    </g>
    <g id="xtick_3">
     <g id="line2d_3">
      <g>
       <use style="stroke:#000000;stroke-width:0.8;" x="414.72" xlink:href="#m42d355ce10" y="307.584"/>
      </g>
     </g>
    </g>
    <g id="xtick_4">
     <g id="line2d_4">
      <defs>
       <path d="M 0 0 
L 0 2 
" id="m2f9dffb104" style="stroke:#000000;stroke-width:0.6;"/>
      </defs>
      <g>
       <use style="stroke:#000000;stroke-width:0.6;" x="73.832727" xlink:href="#m2f9dffb104" y="307.584"/>
      </g>
     </g>
    </g>
    <g id="xtick_5">
     <g id="line2d_5">
      <g>
       <use style="stroke:#000000;stroke-width:0.6;" x="90.065455" xlink:href="#m2f9dffb104" y="307.584"/>
      </g>
     </g>
    </g>
    <g id="xtick_6">
     <g id="line2d_6">
      <g>
       <use style="stroke:#000000;stroke-width:0.6;" x="106.298182" xlink:href="#m2f9dffb104" y="307.584"/>
      </g>
     </g>
    </g>
    <g id="xtick_7">
     <g id="line2d_7">
      <g>
       <use style="stroke:#000000;stroke-width:0.6;" x="122.530909" xlink:href="#m2f9dffb104" y="307.584"/>
      </g>
     </g>
     <g id="text_2">
      <!-- 26 -->
      <g transform="translate(117.023097 320.576187)scale(0.1 -0.1)">
       <defs>
        <path d="M 46.578125 63.578125 
Q 40.921875 66.40625 34.8125 66.40625 
Q 24.859375 66.40625 19.1875 57.640625 
Q 13.53125 48.875 13.578125 34.578125 
L 13.8125 34.578125 
Q 18.796875 44.875 30.28125 44.875 
Q 39.796875 44.875 45.359375 38.71875 
Q 50.921875 32.5625 50.921875 22.65625 
Q 50.921875 12.453125 44.640625 5.609375 
Q 38.375 -1.21875 28.515625 -1.21875 
Q 17.4375 -1.21875 11.5 7.46875 
Q 5.5625 16.15625 5.5625 31.546875 
Q 5.5625 49.703125 13.234375 61.375 
Q 20.90625 73.046875 34.71875 73.046875 
Q 42.1875 73.046875 46.578125 71 
z
M 14.15625 23.53125 
Q 14.15625 15.96875 18.203125 10.671875 
Q 22.265625 5.375 28.8125 5.375 
Q 35.109375 5.375 39.03125 10.078125 
Q 42.96875 14.796875 42.96875 21.6875 
Q 42.96875 29.5 39.203125 33.859375 
Q 35.453125 38.234375 28.71875 38.234375 
Q 22.5625 38.234375 18.359375 33.953125 
Q 14.15625 29.6875 14.15625 23.53125 
z
" id="MalgunGothic-54"/>
       </defs>
       <use xlink:href="#MalgunGothic-50"/>
       <use x="55.078125" xlink:href="#MalgunGothic-54"/>
      </g>
     </g>
    </g>
    <g id="xtick_8">
     <g id="line2d_8">
      <g>
       <use style="stroke:#000000;stroke-width:0.6;" x="138.763636" xlink:href="#m2f9dffb104" y="307.584"/>
      </g>
     </g>
    </g>
    <g id="xtick_9">
     <g id="line2d_9">
      <g>
       <use style="stroke:#000000;stroke-width:0.6;" x="154.996364" xlink:href="#m2f9dffb104" y="307.584"/>
      </g>
     </g>
    </g>
    <g id="xtick_10">
     <g id="line2d_10">
      <g>
       <use style="stroke:#000000;stroke-width:0.6;" x="171.229091" xlink:href="#m2f9dffb104" y="307.584"/>
      </g>
     </g>
    </g>
    <g id="xtick_11">
     <g id="line2d_11">
      <g>
       <use style="stroke:#000000;stroke-width:0.6;" x="187.461818" xlink:href="#m2f9dffb104" y="307.584"/>
      </g>
     </g>
    </g>
    <g id="xtick_12">
     <g id="line2d_12">
      <g>
       <use style="stroke:#000000;stroke-width:0.6;" x="219.927273" xlink:href="#m2f9dffb104" y="307.584"/>
      </g>
     </g>
    </g>
    <g id="xtick_13">
     <g id="line2d_13">
      <g>
       <use style="stroke:#000000;stroke-width:0.6;" x="236.16" xlink:href="#m2f9dffb104" y="307.584"/>
      </g>
     </g>
    </g>
    <g id="xtick_14">
     <g id="line2d_14">
      <g>
       <use style="stroke:#000000;stroke-width:0.6;" x="252.392727" xlink:href="#m2f9dffb104" y="307.584"/>
      </g>
     </g>
    </g>
    <g id="xtick_15">
     <g id="line2d_15">
      <g>
       <use style="stroke:#000000;stroke-width:0.6;" x="268.625455" xlink:href="#m2f9dffb104" y="307.584"/>
      </g>
     </g>
    </g>
    <g id="xtick_16">
     <g id="line2d_16">
      <g>
       <use style="stroke:#000000;stroke-width:0.6;" x="284.858182" xlink:href="#m2f9dffb104" y="307.584"/>
      </g>
     </g>
     <g id="text_3">
      <!-- 09 -->
      <g transform="translate(279.350369 320.576187)scale(0.1 -0.1)">
       <defs>
        <path d="M 8.6875 8.796875 
Q 14.703125 5.375 21.34375 5.375 
Q 31.15625 5.375 36.671875 13.359375 
Q 42.1875 21.34375 42.1875 36.140625 
Q 42.09375 36.03125 42 36.140625 
Q 37.3125 26.765625 25.828125 26.765625 
Q 16.546875 26.765625 10.65625 33.125 
Q 4.78125 39.5 4.78125 49.125 
Q 4.78125 59.46875 11.109375 66.25 
Q 17.4375 73.046875 27.6875 73.046875 
Q 38.53125 73.046875 44.265625 64.546875 
Q 50 56.0625 50 40.28125 
Q 50 20.609375 42.453125 9.6875 
Q 34.90625 -1.21875 21 -1.21875 
Q 13.765625 -1.21875 8.6875 1.21875 
z
M 12.703125 50.296875 
Q 12.703125 42.828125 16.609375 38.28125 
Q 20.515625 33.734375 27.484375 33.734375 
Q 33.546875 33.734375 37.59375 37.765625 
Q 41.65625 41.796875 41.65625 47.609375 
Q 41.65625 55.5625 37.671875 60.984375 
Q 33.6875 66.40625 26.953125 66.40625 
Q 20.65625 66.40625 16.671875 61.6875 
Q 12.703125 56.984375 12.703125 50.296875 
z
" id="MalgunGothic-57"/>
       </defs>
       <use xlink:href="#MalgunGothic-48"/>
       <use x="55.078125" xlink:href="#MalgunGothic-57"/>
      </g>
     </g>
    </g>
    <g id="xtick_17">
     <g id="line2d_17">
      <g>
       <use style="stroke:#000000;stroke-width:0.6;" x="301.090909" xlink:href="#m2f9dffb104" y="307.584"/>
      </g>
     </g>
    </g>
    <g id="xtick_18">
     <g id="line2d_18">
      <g>
       <use style="stroke:#000000;stroke-width:0.6;" x="317.323636" xlink:href="#m2f9dffb104" y="307.584"/>
      </g>
     </g>
    </g>
    <g id="xtick_19">
     <g id="line2d_19">
      <g>
       <use style="stroke:#000000;stroke-width:0.6;" x="333.556364" xlink:href="#m2f9dffb104" y="307.584"/>
      </g>
     </g>
    </g>
    <g id="xtick_20">
     <g id="line2d_20">
      <g>
       <use style="stroke:#000000;stroke-width:0.6;" x="349.789091" xlink:href="#m2f9dffb104" y="307.584"/>
      </g>
     </g>
    </g>
    <g id="xtick_21">
     <g id="line2d_21">
      <g>
       <use style="stroke:#000000;stroke-width:0.6;" x="366.021818" xlink:href="#m2f9dffb104" y="307.584"/>
      </g>
     </g>
     <g id="text_4">
      <!-- 16 -->
      <g transform="translate(360.514006 320.576187)scale(0.1 -0.1)">
       <defs>
        <path d="M 34.859375 0 
L 27.09375 0 
L 27.09375 62.0625 
Q 24.859375 59.8125 19.78125 57.203125 
Q 14.703125 54.59375 10.5 53.5625 
L 10.5 61.859375 
Q 15.875 63.375 22.015625 66.796875 
Q 28.171875 70.21875 31.734375 73.4375 
L 34.859375 73.4375 
z
" id="MalgunGothic-49"/>
       </defs>
       <use xlink:href="#MalgunGothic-49"/>
       <use x="55.078125" xlink:href="#MalgunGothic-54"/>
      </g>
     </g>
    </g>
    <g id="xtick_22">
     <g id="line2d_22">
      <g>
       <use style="stroke:#000000;stroke-width:0.6;" x="382.254545" xlink:href="#m2f9dffb104" y="307.584"/>
      </g>
     </g>
    </g>
    <g id="xtick_23">
     <g id="line2d_23">
      <g>
       <use style="stroke:#000000;stroke-width:0.6;" x="398.487273" xlink:href="#m2f9dffb104" y="307.584"/>
      </g>
     </g>
    </g>
   </g>
   <g id="matplotlib.axis_2">
    <g id="ytick_1">
     <g id="line2d_24">
      <defs>
       <path d="M 0 0 
L -3.5 0 
" id="m89456083f8" style="stroke:#000000;stroke-width:0.8;"/>
      </defs>
      <g>
       <use style="stroke:#000000;stroke-width:0.8;" x="57.6" xlink:href="#m89456083f8" y="282.953285"/>
      </g>
     </g>
     <g id="text_5">
      <!-- 280000 -->
      <g transform="translate(17.553125 286.749379)scale(0.1 -0.1)">
       <defs>
        <path d="M 4.734375 20.015625 
Q 4.734375 26.078125 8.421875 31.421875 
Q 12.109375 36.765625 18.015625 38.96875 
Q 13.375 41.359375 10.546875 45.546875 
Q 7.71875 49.75 7.71875 54.6875 
Q 7.71875 59.8125 10.296875 64.03125 
Q 12.890625 68.265625 17.53125 70.65625 
Q 22.171875 73.046875 27.78125 73.046875 
Q 36.46875 73.046875 42.1875 67.84375 
Q 47.90625 62.640625 47.90625 54.6875 
Q 47.90625 49.703125 45.015625 45.53125 
Q 42.140625 41.359375 37.703125 38.96875 
Q 43.5625 36.71875 47.21875 31.390625 
Q 50.875 26.078125 50.875 20.015625 
Q 50.875 10.5 44.421875 4.640625 
Q 37.984375 -1.21875 27.78125 -1.21875 
Q 17.671875 -1.21875 11.203125 4.703125 
Q 4.734375 10.640625 4.734375 20.015625 
z
M 12.640625 20.75 
Q 12.640625 13.71875 16.890625 9.546875 
Q 21.140625 5.375 27.828125 5.375 
Q 34.46875 5.375 38.78125 9.671875 
Q 43.109375 13.96875 43.109375 20.75 
Q 43.109375 27.046875 38.78125 31.421875 
Q 34.46875 35.796875 27.828125 35.796875 
Q 21.4375 35.796875 17.03125 31.5625 
Q 12.640625 27.34375 12.640625 20.75 
z
M 15.671875 54.046875 
Q 15.671875 48.828125 19.28125 45.3125 
Q 22.90625 41.796875 27.828125 41.796875 
Q 32.765625 41.796875 36.40625 45.3125 
Q 40.046875 48.828125 40.046875 54.046875 
Q 40.046875 59.421875 36.578125 62.90625 
Q 33.109375 66.40625 27.828125 66.40625 
Q 22.65625 66.40625 19.15625 62.953125 
Q 15.671875 59.515625 15.671875 54.046875 
z
" id="MalgunGothic-56"/>
       </defs>
       <use xlink:href="#MalgunGothic-50"/>
       <use x="55.078125" xlink:href="#MalgunGothic-56"/>
       <use x="110.15625" xlink:href="#MalgunGothic-48"/>
       <use x="165.234375" xlink:href="#MalgunGothic-48"/>
       <use x="220.3125" xlink:href="#MalgunGothic-48"/>
       <use x="275.390625" xlink:href="#MalgunGothic-48"/>
      </g>
     </g>
    </g>
    <g id="ytick_2">
     <g id="line2d_25">
      <g>
       <use style="stroke:#000000;stroke-width:0.8;" x="57.6" xlink:href="#m89456083f8" y="232.814425"/>
      </g>
     </g>
     <g id="text_6">
      <!-- 300000 -->
      <g transform="translate(17.553125 236.610519)scale(0.1 -0.1)">
       <defs>
        <path d="M 6.5 11.234375 
Q 13.921875 5.375 23.09375 5.375 
Q 30.609375 5.375 35.21875 9.171875 
Q 39.84375 12.984375 39.84375 19.484375 
Q 39.84375 33.890625 19.578125 33.890625 
L 13.625 33.890625 
L 13.625 40.484375 
L 19.28125 40.484375 
Q 37.3125 40.484375 37.3125 53.953125 
Q 37.3125 66.40625 23.578125 66.40625 
Q 15.96875 66.40625 9.28125 61.1875 
L 9.28125 68.953125 
Q 16.109375 73.046875 25.53125 73.046875 
Q 34.125 73.046875 39.671875 68.3125 
Q 45.21875 63.578125 45.21875 55.953125 
Q 45.21875 41.84375 30.8125 37.640625 
L 30.8125 37.5 
Q 38.578125 36.8125 43.1875 32.078125 
Q 47.796875 27.34375 47.796875 20.3125 
Q 47.796875 10.5 40.6875 4.640625 
Q 33.59375 -1.21875 22.65625 -1.21875 
Q 12.59375 -1.21875 6.5 2.640625 
z
" id="MalgunGothic-51"/>
       </defs>
       <use xlink:href="#MalgunGothic-51"/>
       <use x="55.078125" xlink:href="#MalgunGothic-48"/>
       <use x="110.15625" xlink:href="#MalgunGothic-48"/>
       <use x="165.234375" xlink:href="#MalgunGothic-48"/>
       <use x="220.3125" xlink:href="#MalgunGothic-48"/>
       <use x="275.390625" xlink:href="#MalgunGothic-48"/>
      </g>
     </g>
    </g>
    <g id="ytick_3">
     <g id="line2d_26">
      <g>
       <use style="stroke:#000000;stroke-width:0.8;" x="57.6" xlink:href="#m89456083f8" y="182.675565"/>
      </g>
     </g>
     <g id="text_7">
      <!-- 320000 -->
      <g transform="translate(17.553125 186.471659)scale(0.1 -0.1)">
       <use xlink:href="#MalgunGothic-51"/>
       <use x="55.078125" xlink:href="#MalgunGothic-50"/>
       <use x="110.15625" xlink:href="#MalgunGothic-48"/>
       <use x="165.234375" xlink:href="#MalgunGothic-48"/>
       <use x="220.3125" xlink:href="#MalgunGothic-48"/>
       <use x="275.390625" xlink:href="#MalgunGothic-48"/>
      </g>
     </g>
    </g>
    <g id="ytick_4">
     <g id="line2d_27">
      <g>
       <use style="stroke:#000000;stroke-width:0.8;" x="57.6" xlink:href="#m89456083f8" y="132.536705"/>
      </g>
     </g>
     <g id="text_8">
      <!-- 340000 -->
      <g transform="translate(17.553125 136.332798)scale(0.1 -0.1)">
       <defs>
        <path d="M 42.234375 71.875 
L 42.234375 24.421875 
L 51.703125 24.421875 
L 51.703125 17.390625 
L 42.234375 17.390625 
L 42.234375 0 
L 34.578125 0 
L 34.578125 17.390625 
L 0.78125 17.390625 
L 0.78125 23.96875 
Q 11.375 35.890625 20.234375 48.578125 
Q 29.109375 61.28125 33.9375 71.875 
z
M 9.765625 24.421875 
L 34.578125 24.421875 
L 34.578125 59.859375 
Q 25.203125 43.5625 14.984375 30.953125 
z
" id="MalgunGothic-52"/>
       </defs>
       <use xlink:href="#MalgunGothic-51"/>
       <use x="55.078125" xlink:href="#MalgunGothic-52"/>
       <use x="110.15625" xlink:href="#MalgunGothic-48"/>
       <use x="165.234375" xlink:href="#MalgunGothic-48"/>
       <use x="220.3125" xlink:href="#MalgunGothic-48"/>
       <use x="275.390625" xlink:href="#MalgunGothic-48"/>
      </g>
     </g>
    </g>
    <g id="ytick_5">
     <g id="line2d_28">
      <g>
       <use style="stroke:#000000;stroke-width:0.8;" x="57.6" xlink:href="#m89456083f8" y="82.397845"/>
      </g>
     </g>
     <g id="text_9">
      <!-- 360000 -->
      <g transform="translate(17.553125 86.193938)scale(0.1 -0.1)">
       <use xlink:href="#MalgunGothic-51"/>
       <use x="55.078125" xlink:href="#MalgunGothic-54"/>
       <use x="110.15625" xlink:href="#MalgunGothic-48"/>
       <use x="165.234375" xlink:href="#MalgunGothic-48"/>
       <use x="220.3125" xlink:href="#MalgunGothic-48"/>
       <use x="275.390625" xlink:href="#MalgunGothic-48"/>
      </g>
     </g>
    </g>
   </g>
   <g id="line2d_29">
    <path clip-path="url(#p498d496934)" d="M 57.6 257.883855 
L 73.832727 239.081782 
L 90.065455 250.363026 
L 106.298182 266.658155 
L 122.530909 279.19287 
L 138.763636 274.178984 
L 154.996364 236.574839 
L 171.229091 236.574839 
L 187.461818 257.883855 
L 203.694545 269.165098 
L 219.927273 275.432456 
L 236.16 236.574839 
L 252.392727 235.321368 
L 268.625455 230.307482 
L 284.858182 237.828311 
L 301.090909 275.432456 
L 317.323636 282.953285 
L 333.556364 285.460228 
L 349.789091 280.446342 
L 366.021818 287.967171 
L 382.254545 295.488 
L 398.487273 280.446342 
L 414.72 281.699813 
" style="fill:none;stroke:#1f77b4;stroke-linecap:square;stroke-width:1.5;"/>
   </g>
   <g id="line2d_30">
    <path clip-path="url(#p498d496934)" d="M 57.6 101.199917 
L 73.832727 98.692974 
L 90.065455 109.974218 
L 106.298182 132.536705 
L 122.530909 158.859606 
L 138.763636 147.578363 
L 154.996364 116.241575 
L 171.229091 125.015876 
L 187.461818 157.606135 
L 203.694545 146.324891 
L 219.927273 141.311005 
L 236.16 83.651316 
L 252.392727 74.877016 
L 268.625455 56.074943 
L 284.858182 53.568 
L 301.090909 92.425617 
L 317.323636 93.679088 
L 333.556364 88.665202 
L 349.789091 68.609658 
L 366.021818 77.383959 
L 382.254545 77.383959 
L 398.487273 68.609658 
L 414.72 68.609658 
" style="fill:none;stroke:#ff7f0e;stroke-linecap:square;stroke-width:1.5;"/>
   </g>
   <g id="patch_3">
    <path d="M 57.6 307.584 
L 57.6 41.472 
" style="fill:none;stroke:#000000;stroke-linecap:square;stroke-linejoin:miter;stroke-width:0.8;"/>
   </g>
   <g id="patch_4">
    <path d="M 414.72 307.584 
L 414.72 41.472 
" style="fill:none;stroke:#000000;stroke-linecap:square;stroke-linejoin:miter;stroke-width:0.8;"/>
   </g>
   <g id="patch_5">
    <path d="M 57.6 307.584 
L 414.72 307.584 
" style="fill:none;stroke:#000000;stroke-linecap:square;stroke-linejoin:miter;stroke-width:0.8;"/>
   </g>
   <g id="patch_6">
    <path d="M 57.6 41.472 
L 414.72 41.472 
" style="fill:none;stroke:#000000;stroke-linecap:square;stroke-linejoin:miter;stroke-width:0.8;"/>
   </g>
   <g id="legend_1">
    <g id="patch_7">
     <path d="M 64.6 79.3845 
L 127.832812 79.3845 
Q 129.832812 79.3845 129.832812 77.3845 
L 129.832812 48.472 
Q 129.832812 46.472 127.832812 46.472 
L 64.6 46.472 
Q 62.6 46.472 62.6 48.472 
L 62.6 77.3845 
Q 62.6 79.3845 64.6 79.3845 
z
" style="fill:#ffffff;opacity:0.8;stroke:#cccccc;stroke-linejoin:miter;"/>
    </g>
    <g id="line2d_31">
     <path d="M 66.6 54.564188 
L 86.6 54.564188 
" style="fill:none;stroke:#1f77b4;stroke-linecap:square;stroke-width:1.5;"/>
    </g>
    <g id="line2d_32"/>
    <g id="text_10">
     <!-- NAVER -->
     <g transform="translate(94.6 58.064188)scale(0.1 -0.1)">
      <defs>
       <path d="M 64.59375 0 
L 55.859375 0 
L 48.046875 20.40625 
L 17.234375 20.40625 
L 9.96875 0 
L 1.171875 0 
L 28.8125 71.875 
L 36.8125 71.875 
z
M 45.359375 27.640625 
L 33.890625 58.6875 
Q 33.25 60.40625 32.8125 63.421875 
L 32.5625 63.421875 
Q 32.03125 60.0625 31.390625 58.6875 
L 20.015625 27.640625 
z
" id="MalgunGothic-65"/>
       <path d="M 62.5 71.875 
L 35.75 0 
L 27.09375 0 
L 0.921875 71.875 
L 9.765625 71.875 
L 29.984375 14.40625 
Q 30.90625 11.71875 31.390625 8.109375 
L 31.640625 8.109375 
Q 32.03125 11.140625 33.25 14.5 
L 53.953125 71.875 
z
" id="MalgunGothic-86"/>
       <path d="M 47.265625 0 
L 9.515625 0 
L 9.515625 71.875 
L 45.65625 71.875 
L 45.65625 64.59375 
L 17.390625 64.59375 
L 17.390625 40.1875 
L 43.5 40.1875 
L 43.5 32.953125 
L 17.390625 32.953125 
L 17.390625 7.234375 
L 47.265625 7.234375 
z
" id="MalgunGothic-69"/>
       <path d="M 60.40625 0 
L 50.921875 0 
L 38.875 20.21875 
Q 35.015625 26.65625 31.9375 28.703125 
Q 28.859375 30.765625 24.515625 30.765625 
L 17.390625 30.765625 
L 17.390625 0 
L 9.515625 0 
L 9.515625 71.875 
L 30.671875 71.875 
Q 40.578125 71.875 46.40625 66.75 
Q 52.25 61.625 52.25 52.734375 
Q 52.25 37.84375 36.328125 33.40625 
L 36.328125 33.203125 
Q 39.359375 31.890625 41.328125 29.71875 
Q 43.3125 27.546875 46.96875 21.578125 
z
M 17.390625 64.5 
L 17.390625 38.09375 
L 29.15625 38.09375 
Q 35.796875 38.09375 39.875 41.96875 
Q 43.953125 45.84375 43.953125 52.09375 
Q 43.953125 57.953125 40.15625 61.21875 
Q 36.375 64.5 29.25 64.5 
z
" id="MalgunGothic-82"/>
      </defs>
      <use xlink:href="#MalgunGothic-78"/>
      <use x="76.513672" xlink:href="#MalgunGothic-65"/>
      <use x="136.208984" xlink:href="#MalgunGothic-86"/>
      <use x="199.636719" xlink:href="#MalgunGothic-69"/>
      <use x="251.345703" xlink:href="#MalgunGothic-82"/>
     </g>
    </g>
    <g id="line2d_33">
     <path d="M 66.6 69.520438 
L 86.6 69.520438 
" style="fill:none;stroke:#ff7f0e;stroke-linecap:square;stroke-width:1.5;"/>
    </g>
    <g id="line2d_34"/>
    <g id="text_11">
     <!-- 카카오 -->
     <g transform="translate(94.6 73.020438)scale(0.1 -0.1)">
      <defs>
       <path d="M 79.546875 40.09375 
L 79.546875 -8.796875 
L 72.265625 -8.796875 
L 72.265625 85.40625 
L 79.546875 85.40625 
L 79.546875 46.578125 
L 96.4375 46.578125 
L 96.4375 40.09375 
z
M 56.34375 77 
Q 55.515625 37.109375 13.96875 13.375 
L 8.25 19.28125 
Q 18.265625 23.390625 27.46875 31.515625 
Q 36.671875 39.65625 41.84375 49.3125 
L 10.75 46.1875 
L 8.15625 53.125 
L 44.78125 55.421875 
Q 47.65625 62.796875 48.53125 70.515625 
L 12.359375 70.515625 
L 12.359375 77 
z
" id="MalgunGothic-52852"/>
       <path d="M 6.296875 6.109375 
L 6.296875 12.5 
L 46.296875 12.5 
L 46.296875 31.5 
Q 32.859375 32.515625 25.53125 38.734375 
Q 18.21875 44.96875 18.21875 55.078125 
Q 18.21875 66.0625 26.984375 72.328125 
Q 35.75 78.609375 50 78.609375 
Q 64.265625 78.609375 72.96875 72.375 
Q 81.6875 66.15625 81.6875 55.078125 
Q 81.6875 44.96875 74.359375 38.734375 
Q 67.046875 32.515625 53.71875 31.5 
L 53.71875 12.5 
L 93.703125 12.5 
L 93.703125 6.109375 
z
M 25.78125 55.078125 
Q 25.78125 47.125 32.484375 42.5 
Q 39.203125 37.890625 50 37.890625 
Q 60.796875 37.890625 67.453125 42.53125 
Q 74.125 47.171875 74.125 55.078125 
Q 74.125 62.9375 67.453125 67.578125 
Q 60.796875 72.21875 50 72.21875 
Q 39.15625 72.21875 32.46875 67.578125 
Q 25.78125 62.9375 25.78125 55.078125 
z
" id="MalgunGothic-50724"/>
      </defs>
      <use xlink:href="#MalgunGothic-52852"/>
      <use x="100" xlink:href="#MalgunGothic-52852"/>
      <use x="200" xlink:href="#MalgunGothic-50724"/>
     </g>
    </g>
   </g>
  </g>
 </g>
 <defs>
  <clipPath id="p498d496934">
   <rect height="266.112" width="357.12" x="57.6" y="41.472"/>
  </clipPath>
 </defs>
</svg>
