<?xml version="1.0" encoding="utf-8" standalone="no"?>
<!DOCTYPE svg PUBLIC "-//W3C//DTD SVG 1.1//EN"
  "http://www.w3.org/Graphics/SVG/1.1/DTD/svg11.dtd">
<!-- Created with matplotlib (https://matplotlib.org/) -->
<svg height="345.6pt" version="1.1" viewBox="0 0 460.8 345.6" width="460.8pt" xmlns="http://www.w3.org/2000/svg" xmlns:xlink="http://www.w3.org/1999/xlink">
 <defs>
  <style type="text/css">
*{stroke-linecap:butt;stroke-linejoin:round;}
  </style>
 </defs>
 <g id="figure_1">
  <g id="patch_1">
   <path d="M 0 345.6 
L 460.8 345.6 
L 460.8 0 
L 0 0 
z
" style="fill:#ffffff;"/>
  </g>
  <g id="axes_1">
   <g id="patch_2">
    <path d="M 57.6 307.584 
L 414.72 307.584 
L 414.72 41.472 
L 57.6 41.472 
z
" style="fill:#ffffff;"/>
   </g>
   <g id="matplotlib.axis_1">
    <g id="xtick_1">
     <g id="line2d_1">
      <defs>
       <path d="M 0 0 
L 0 3.5 
" id="mdf9952acc2" style="stroke:#000000;stroke-width:0.8;"/>
      </defs>
      <g>
       <use style="stroke:#000000;stroke-width:0.8;" x="57.6" xlink:href="#mdf9952acc2" y="307.584"/>
      </g>
     </g>
     <g id="text_1">
      <!-- 12 -->
      <defs>
       <path d="M 46.484375 0 
L 11.03125 0 
L 11.03125 7.421875 
L 24.21875 7.421875 
L 24.21875 56.15625 
L 11.03125 56.15625 
L 11.03125 62.796875 
Q 18.5 62.796875 22.046875 64.921875 
Q 25.59375 67.046875 26.03125 72.953125 
L 33.59375 72.953125 
L 33.59375 7.421875 
L 46.484375 7.421875 
z
" id="Tahoma-49"/>
       <path d="M 50.203125 0 
L 5.328125 0 
L 5.328125 10.203125 
Q 10.15625 14.796875 14.453125 18.984375 
Q 18.75 23.1875 22.859375 27.734375 
Q 31.15625 36.859375 34.171875 42.359375 
Q 37.203125 47.859375 37.203125 53.71875 
Q 37.203125 56.734375 36.25 59.03125 
Q 35.296875 61.328125 33.640625 62.84375 
Q 31.9375 64.3125 29.6875 65.03125 
Q 27.4375 65.765625 24.75 65.765625 
Q 22.171875 65.765625 19.5 65.109375 
Q 16.84375 64.453125 14.40625 63.484375 
Q 12.359375 62.640625 10.453125 61.46875 
Q 8.546875 60.296875 7.375 59.46875 
L 6.84375 59.46875 
L 6.84375 69.828125 
Q 9.859375 71.34375 15.25 72.78125 
Q 20.65625 74.21875 25.484375 74.21875 
Q 35.640625 74.21875 41.40625 68.8125 
Q 47.171875 63.421875 47.171875 54.203125 
Q 47.171875 49.953125 46.171875 46.328125 
Q 45.171875 42.71875 43.40625 39.65625 
Q 41.609375 36.46875 39.0625 33.34375 
Q 36.53125 30.21875 33.6875 27.203125 
Q 29.109375 22.21875 23.46875 16.84375 
Q 17.828125 11.46875 14.453125 8.34375 
L 50.203125 8.34375 
z
" id="Tahoma-50"/>
      </defs>
      <g transform="translate(52.140625 322.182437)scale(0.1 -0.1)">
       <use xlink:href="#Tahoma-49"/>
       <use x="54.589844" xlink:href="#Tahoma-50"/>
      </g>
     </g>
    </g>
    <g id="xtick_2">
     <g id="line2d_2">
      <g>
       <use style="stroke:#000000;stroke-width:0.8;" x="312.685714" xlink:href="#mdf9952acc2" y="307.584"/>
      </g>
     </g>
     <g id="text_2">
      <!--  -->
      <g transform="translate(312.685714 322.182437)scale(0.1 -0.1)"/>
      <!--  -->
      <g transform="translate(312.685714 333.313063)scale(0.1 -0.1)"/>
      <!-- Nov -->
      <defs>
       <path d="M 59.375 0 
L 48.53125 0 
L 16.40625 62.703125 
L 16.40625 0 
L 7.375 0 
L 7.375 72.703125 
L 21.09375 72.703125 
L 50.34375 15.140625 
L 50.34375 72.703125 
L 59.375 72.703125 
z
" id="Tahoma-78"/>
       <path d="M 51.515625 27.25 
Q 51.515625 13.484375 44.875 5.984375 
Q 38.234375 -1.515625 27.203125 -1.515625 
Q 15.828125 -1.515625 9.296875 6.21875 
Q 2.78125 13.96875 2.78125 27.25 
Q 2.78125 40.921875 9.5 48.484375 
Q 16.21875 56.0625 27.203125 56.0625 
Q 38.234375 56.0625 44.875 48.515625 
Q 51.515625 40.96875 51.515625 27.25 
z
M 42.046875 27.25 
Q 42.046875 37.84375 38.1875 42.984375 
Q 34.328125 48.140625 27.203125 48.140625 
Q 20.015625 48.140625 16.125 42.984375 
Q 12.25 37.84375 12.25 27.25 
Q 12.25 17 16.125 11.6875 
Q 20.015625 6.390625 27.203125 6.390625 
Q 34.28125 6.390625 38.15625 11.59375 
Q 42.046875 16.796875 42.046875 27.25 
z
" id="Tahoma-111"/>
       <path d="M 49.515625 54.546875 
L 28.953125 0 
L 20.703125 0 
L 0.296875 54.546875 
L 10.203125 54.546875 
L 25.140625 12.453125 
L 39.9375 54.546875 
z
" id="Tahoma-118"/>
      </defs>
      <g transform="translate(304.142746 344.443687)scale(0.1 -0.1)">
       <use xlink:href="#Tahoma-78"/>
       <use x="66.748047" xlink:href="#Tahoma-111"/>
       <use x="121.044922" xlink:href="#Tahoma-118"/>
      </g>
      <!-- 2020 -->
      <defs>
       <path d="M 50.53125 36.375 
Q 50.53125 16.796875 44.84375 7.640625 
Q 39.15625 -1.515625 27.296875 -1.515625 
Q 15.28125 -1.515625 9.65625 7.8125 
Q 4.046875 17.140625 4.046875 36.28125 
Q 4.046875 55.953125 9.734375 65.0625 
Q 15.4375 74.171875 27.296875 74.171875 
Q 39.3125 74.171875 44.921875 64.75 
Q 50.53125 55.328125 50.53125 36.375 
z
M 38.03125 14.203125 
Q 39.453125 17.828125 40.03125 23.34375 
Q 40.625 28.859375 40.625 36.375 
Q 40.625 43.84375 40.03125 49.359375 
Q 39.453125 54.890625 37.984375 58.546875 
Q 36.53125 62.25 33.953125 64.171875 
Q 31.390625 66.109375 27.296875 66.109375 
Q 23.25 66.109375 20.625 64.171875 
Q 18.015625 62.25 16.5 58.453125 
Q 15.046875 54.734375 14.5 49.0625 
Q 13.96875 43.40625 13.96875 36.28125 
Q 13.96875 28.65625 14.421875 23.53125 
Q 14.890625 18.40625 16.453125 14.359375 
Q 17.875 10.59375 20.484375 8.5625 
Q 23.09375 6.546875 27.296875 6.546875 
Q 31.34375 6.546875 33.953125 8.46875 
Q 36.578125 10.40625 38.03125 14.203125 
z
" id="Tahoma-48"/>
      </defs>
      <g transform="translate(301.766964 355.574312)scale(0.1 -0.1)">
       <use xlink:href="#Tahoma-50"/>
       <use x="54.589844" xlink:href="#Tahoma-48"/>
       <use x="109.179688" xlink:href="#Tahoma-50"/>
       <use x="163.769531" xlink:href="#Tahoma-48"/>
      </g>
     </g>
    </g>
    <g id="xtick_3">
     <g id="line2d_3">
      <g>
       <use style="stroke:#000000;stroke-width:0.8;" x="414.72" xlink:href="#mdf9952acc2" y="307.584"/>
      </g>
     </g>
    </g>
    <g id="xtick_4">
     <g id="line2d_4">
      <defs>
       <path d="M 0 0 
L 0 2 
" id="m759c9a851b" style="stroke:#000000;stroke-width:0.6;"/>
      </defs>
      <g>
       <use style="stroke:#000000;stroke-width:0.6;" x="57.6" xlink:href="#m759c9a851b" y="307.584"/>
      </g>
     </g>
    </g>
    <g id="xtick_5">
     <g id="line2d_5">
      <g>
       <use style="stroke:#000000;stroke-width:0.6;" x="74.605714" xlink:href="#m759c9a851b" y="307.584"/>
      </g>
     </g>
    </g>
    <g id="xtick_6">
     <g id="line2d_6">
      <g>
       <use style="stroke:#000000;stroke-width:0.6;" x="91.611429" xlink:href="#m759c9a851b" y="307.584"/>
      </g>
     </g>
    </g>
    <g id="xtick_7">
     <g id="line2d_7">
      <g>
       <use style="stroke:#000000;stroke-width:0.6;" x="108.617143" xlink:href="#m759c9a851b" y="307.584"/>
      </g>
     </g>
    </g>
    <g id="xtick_8">
     <g id="line2d_8">
      <g>
       <use style="stroke:#000000;stroke-width:0.6;" x="125.622857" xlink:href="#m759c9a851b" y="307.584"/>
      </g>
     </g>
    </g>
    <g id="xtick_9">
     <g id="line2d_9">
      <g>
       <use style="stroke:#000000;stroke-width:0.6;" x="142.628571" xlink:href="#m759c9a851b" y="307.584"/>
      </g>
     </g>
     <g id="text_3">
      <!-- 19 -->
      <defs>
       <path d="M 40.625 42.828125 
Q 40.625 50.25 39.25 54.90625 
Q 37.890625 59.578125 35.5 62.109375 
Q 33.34375 64.453125 31.140625 65.328125 
Q 28.953125 66.21875 26.3125 66.21875 
Q 20.3125 66.21875 16.75 61.921875 
Q 13.1875 57.625 13.1875 49.46875 
Q 13.1875 44.875 14.359375 41.890625 
Q 15.53125 38.921875 18.171875 36.765625 
Q 20.015625 35.25 22.359375 34.734375 
Q 24.703125 34.234375 27.390625 34.234375 
Q 30.515625 34.234375 34.125 35.328125 
Q 37.75 36.421875 40.4375 38.234375 
Q 40.484375 38.96875 40.546875 40.15625 
Q 40.625 41.359375 40.625 42.828125 
z
M 3.265625 49.078125 
Q 3.265625 54.6875 5.09375 59.328125 
Q 6.9375 63.96875 10.109375 67.328125 
Q 13.140625 70.5625 17.5 72.359375 
Q 21.875 74.171875 26.375 74.171875 
Q 31.390625 74.171875 35.46875 72.484375 
Q 39.546875 70.796875 42.53125 67.625 
Q 46.296875 63.625 48.359375 57.125 
Q 50.4375 50.640625 50.4375 40.71875 
Q 50.4375 31.6875 48.40625 23.609375 
Q 46.390625 15.53125 42.4375 10.203125 
Q 38.234375 4.546875 32.34375 1.5625 
Q 26.46875 -1.421875 17.828125 -1.421875 
Q 15.875 -1.421875 13.671875 -1.203125 
Q 11.46875 -0.984375 9.578125 -0.390625 
L 9.578125 8.9375 
L 10.0625 8.9375 
Q 11.28125 8.25 13.859375 7.609375 
Q 16.453125 6.984375 19.140625 6.984375 
Q 28.71875 6.984375 34.1875 13.28125 
Q 39.65625 19.578125 40.375 31.296875 
Q 36.46875 28.65625 32.921875 27.4375 
Q 29.390625 26.21875 25.25 26.21875 
Q 21.1875 26.21875 17.859375 27.09375 
Q 14.546875 27.984375 11.1875 30.515625 
Q 7.28125 33.5 5.265625 38.0625 
Q 3.265625 42.625 3.265625 49.078125 
z
" id="Tahoma-57"/>
      </defs>
      <g transform="translate(137.169196 320.582437)scale(0.1 -0.1)">
       <use xlink:href="#Tahoma-49"/>
       <use x="54.589844" xlink:href="#Tahoma-57"/>
      </g>
     </g>
    </g>
    <g id="xtick_10">
     <g id="line2d_10">
      <g>
       <use style="stroke:#000000;stroke-width:0.6;" x="159.634286" xlink:href="#m759c9a851b" y="307.584"/>
      </g>
     </g>
    </g>
    <g id="xtick_11">
     <g id="line2d_11">
      <g>
       <use style="stroke:#000000;stroke-width:0.6;" x="176.64" xlink:href="#m759c9a851b" y="307.584"/>
      </g>
     </g>
    </g>
    <g id="xtick_12">
     <g id="line2d_12">
      <g>
       <use style="stroke:#000000;stroke-width:0.6;" x="193.645714" xlink:href="#m759c9a851b" y="307.584"/>
      </g>
     </g>
    </g>
    <g id="xtick_13">
     <g id="line2d_13">
      <g>
       <use style="stroke:#000000;stroke-width:0.6;" x="210.651429" xlink:href="#m759c9a851b" y="307.584"/>
      </g>
     </g>
    </g>
    <g id="xtick_14">
     <g id="line2d_14">
      <g>
       <use style="stroke:#000000;stroke-width:0.6;" x="227.657143" xlink:href="#m759c9a851b" y="307.584"/>
      </g>
     </g>
     <g id="text_4">
      <!-- 26 -->
      <defs>
       <path d="M 51.3125 23.578125 
Q 51.3125 17.96875 49.453125 13.234375 
Q 47.609375 8.5 44.484375 5.328125 
Q 41.21875 1.953125 37.15625 0.21875 
Q 33.109375 -1.515625 28.21875 -1.515625 
Q 23.296875 -1.515625 19.265625 0.140625 
Q 15.234375 1.8125 12.15625 5.078125 
Q 8.40625 9.03125 6.28125 15.640625 
Q 4.15625 22.265625 4.15625 31.9375 
Q 4.15625 41.40625 6.109375 49.046875 
Q 8.0625 56.6875 12.109375 62.359375 
Q 16.0625 67.875 22.3125 70.96875 
Q 28.5625 74.078125 36.765625 74.078125 
Q 39.203125 74.078125 41.296875 73.828125 
Q 43.40625 73.578125 45.015625 73.046875 
L 45.015625 63.71875 
L 44.578125 63.71875 
Q 43.265625 64.453125 40.765625 65.0625 
Q 38.28125 65.671875 35.453125 65.671875 
Q 26.375 65.671875 20.78125 59.546875 
Q 15.1875 53.421875 14.15625 41.359375 
Q 17.625 43.796875 21.28125 45.109375 
Q 24.953125 46.4375 29.296875 46.4375 
Q 33.546875 46.4375 36.734375 45.578125 
Q 39.9375 44.734375 43.40625 42.140625 
Q 47.40625 39.109375 49.359375 34.46875 
Q 51.3125 29.828125 51.3125 23.578125 
z
M 41.40625 23.1875 
Q 41.40625 27.6875 40.234375 30.703125 
Q 39.0625 33.734375 36.421875 35.890625 
Q 34.515625 37.453125 32.09375 37.9375 
Q 29.6875 38.421875 27.15625 38.421875 
Q 23.734375 38.421875 20.5 37.390625 
Q 17.28125 36.375 14.15625 34.421875 
Q 14.0625 33.34375 14.015625 32.34375 
Q 13.96875 31.34375 13.96875 29.828125 
Q 13.96875 22.265625 15.453125 17.625 
Q 16.9375 12.984375 19.140625 10.59375 
Q 21.234375 8.296875 23.453125 7.375 
Q 25.6875 6.453125 28.265625 6.453125 
Q 34.125 6.453125 37.765625 10.640625 
Q 41.40625 14.84375 41.40625 23.1875 
z
" id="Tahoma-54"/>
      </defs>
      <g transform="translate(222.197768 320.582437)scale(0.1 -0.1)">
       <use xlink:href="#Tahoma-50"/>
       <use x="54.589844" xlink:href="#Tahoma-54"/>
      </g>
     </g>
    </g>
    <g id="xtick_15">
     <g id="line2d_15">
      <g>
       <use style="stroke:#000000;stroke-width:0.6;" x="244.662857" xlink:href="#m759c9a851b" y="307.584"/>
      </g>
     </g>
    </g>
    <g id="xtick_16">
     <g id="line2d_16">
      <g>
       <use style="stroke:#000000;stroke-width:0.6;" x="261.668571" xlink:href="#m759c9a851b" y="307.584"/>
      </g>
     </g>
    </g>
    <g id="xtick_17">
     <g id="line2d_17">
      <g>
       <use style="stroke:#000000;stroke-width:0.6;" x="278.674286" xlink:href="#m759c9a851b" y="307.584"/>
      </g>
     </g>
    </g>
    <g id="xtick_18">
     <g id="line2d_18">
      <g>
       <use style="stroke:#000000;stroke-width:0.6;" x="295.68" xlink:href="#m759c9a851b" y="307.584"/>
      </g>
     </g>
    </g>
    <g id="xtick_19">
     <g id="line2d_19">
      <g>
       <use style="stroke:#000000;stroke-width:0.6;" x="312.685714" xlink:href="#m759c9a851b" y="307.584"/>
      </g>
     </g>
    </g>
    <g id="xtick_20">
     <g id="line2d_20">
      <g>
       <use style="stroke:#000000;stroke-width:0.6;" x="329.691429" xlink:href="#m759c9a851b" y="307.584"/>
      </g>
     </g>
    </g>
    <g id="xtick_21">
     <g id="line2d_21">
      <g>
       <use style="stroke:#000000;stroke-width:0.6;" x="346.697143" xlink:href="#m759c9a851b" y="307.584"/>
      </g>
     </g>
    </g>
    <g id="xtick_22">
     <g id="line2d_22">
      <g>
       <use style="stroke:#000000;stroke-width:0.6;" x="363.702857" xlink:href="#m759c9a851b" y="307.584"/>
      </g>
     </g>
    </g>
    <g id="xtick_23">
     <g id="line2d_23">
      <g>
       <use style="stroke:#000000;stroke-width:0.6;" x="380.708571" xlink:href="#m759c9a851b" y="307.584"/>
      </g>
     </g>
    </g>
    <g id="xtick_24">
     <g id="line2d_24">
      <g>
       <use style="stroke:#000000;stroke-width:0.6;" x="397.714286" xlink:href="#m759c9a851b" y="307.584"/>
      </g>
     </g>
     <g id="text_5">
      <!-- 09 -->
      <g transform="translate(392.254911 320.582437)scale(0.1 -0.1)">
       <use xlink:href="#Tahoma-48"/>
       <use x="54.589844" xlink:href="#Tahoma-57"/>
      </g>
     </g>
    </g>
    <g id="xtick_25">
     <g id="line2d_25">
      <g>
       <use style="stroke:#000000;stroke-width:0.6;" x="414.72" xlink:href="#m759c9a851b" y="307.584"/>
      </g>
     </g>
    </g>
   </g>
   <g id="matplotlib.axis_2">
    <g id="ytick_1">
     <g id="line2d_26">
      <defs>
       <path d="M 0 0 
L -3.5 0 
" id="m21d1701b99" style="stroke:#000000;stroke-width:0.8;"/>
      </defs>
      <g>
       <use style="stroke:#000000;stroke-width:0.8;" x="57.6" xlink:href="#m21d1701b99" y="307.737114"/>
      </g>
     </g>
     <g id="text_6">
      <!-- 55000 -->
      <defs>
       <path d="M 49.359375 23.140625 
Q 49.359375 17.875 47.671875 13.375 
Q 46 8.890625 42.96875 5.609375 
Q 39.890625 2.296875 35.328125 0.390625 
Q 30.765625 -1.515625 25.09375 -1.515625 
Q 19.875 -1.515625 14.8125 -0.359375 
Q 9.765625 0.78125 6.0625 2.640625 
L 6.0625 12.9375 
L 6.734375 12.9375 
Q 7.859375 12.109375 9.953125 11.0625 
Q 12.0625 10.015625 14.59375 9.078125 
Q 17.484375 8.0625 19.875 7.5 
Q 22.265625 6.9375 25.25 6.9375 
Q 28.171875 6.9375 30.953125 7.984375 
Q 33.734375 9.03125 35.75 11.375 
Q 37.546875 13.53125 38.5 16.40625 
Q 39.453125 19.28125 39.453125 23.1875 
Q 39.453125 27.046875 38.40625 29.53125 
Q 37.359375 32.03125 35.359375 33.640625 
Q 33.25 35.5 30.203125 36.25 
Q 27.15625 37.015625 23.390625 37.015625 
Q 19.4375 37.015625 15.421875 36.40625 
Q 11.421875 35.796875 9.03125 35.25 
L 9.03125 72.703125 
L 48.921875 72.703125 
L 48.921875 64.15625 
L 18.453125 64.15625 
L 18.453125 44.828125 
Q 20.21875 45.015625 21.921875 45.109375 
Q 23.640625 45.21875 25.046875 45.21875 
Q 30.609375 45.21875 34.46875 44.28125 
Q 38.328125 43.359375 41.890625 40.671875 
Q 45.515625 37.9375 47.4375 33.828125 
Q 49.359375 29.734375 49.359375 23.140625 
z
" id="Tahoma-53"/>
      </defs>
      <g transform="translate(23.303125 311.536333)scale(0.1 -0.1)">
       <use xlink:href="#Tahoma-53"/>
       <use x="54.589844" xlink:href="#Tahoma-53"/>
       <use x="109.179688" xlink:href="#Tahoma-48"/>
       <use x="163.769531" xlink:href="#Tahoma-48"/>
       <use x="218.359375" xlink:href="#Tahoma-48"/>
      </g>
     </g>
    </g>
    <g id="ytick_2">
     <g id="line2d_27">
      <g>
       <use style="stroke:#000000;stroke-width:0.8;" x="57.6" xlink:href="#m21d1701b99" y="269.458633"/>
      </g>
     </g>
     <g id="text_7">
      <!-- 60000 -->
      <g transform="translate(23.303125 273.257852)scale(0.1 -0.1)">
       <use xlink:href="#Tahoma-54"/>
       <use x="54.589844" xlink:href="#Tahoma-48"/>
       <use x="109.179688" xlink:href="#Tahoma-48"/>
       <use x="163.769531" xlink:href="#Tahoma-48"/>
       <use x="218.359375" xlink:href="#Tahoma-48"/>
      </g>
     </g>
    </g>
    <g id="ytick_3">
     <g id="line2d_28">
      <g>
       <use style="stroke:#000000;stroke-width:0.8;" x="57.6" xlink:href="#m21d1701b99" y="231.180152"/>
      </g>
     </g>
     <g id="text_8">
      <!-- 65000 -->
      <g transform="translate(23.303125 234.979371)scale(0.1 -0.1)">
       <use xlink:href="#Tahoma-54"/>
       <use x="54.589844" xlink:href="#Tahoma-53"/>
       <use x="109.179688" xlink:href="#Tahoma-48"/>
       <use x="163.769531" xlink:href="#Tahoma-48"/>
       <use x="218.359375" xlink:href="#Tahoma-48"/>
      </g>
     </g>
    </g>
    <g id="ytick_4">
     <g id="line2d_29">
      <g>
       <use style="stroke:#000000;stroke-width:0.8;" x="57.6" xlink:href="#m21d1701b99" y="192.901671"/>
      </g>
     </g>
     <g id="text_9">
      <!-- 70000 -->
      <defs>
       <path d="M 50.984375 61.8125 
L 19.53125 0 
L 9.125 0 
L 42.4375 64.15625 
L 4.828125 64.15625 
L 4.828125 72.703125 
L 50.984375 72.703125 
z
" id="Tahoma-55"/>
      </defs>
      <g transform="translate(23.303125 196.70089)scale(0.1 -0.1)">
       <use xlink:href="#Tahoma-55"/>
       <use x="54.589844" xlink:href="#Tahoma-48"/>
       <use x="109.179688" xlink:href="#Tahoma-48"/>
       <use x="163.769531" xlink:href="#Tahoma-48"/>
       <use x="218.359375" xlink:href="#Tahoma-48"/>
      </g>
     </g>
    </g>
    <g id="ytick_5">
     <g id="line2d_30">
      <g>
       <use style="stroke:#000000;stroke-width:0.8;" x="57.6" xlink:href="#m21d1701b99" y="154.62319"/>
      </g>
     </g>
     <g id="text_10">
      <!-- 75000 -->
      <g transform="translate(23.303125 158.422409)scale(0.1 -0.1)">
       <use xlink:href="#Tahoma-55"/>
       <use x="54.589844" xlink:href="#Tahoma-53"/>
       <use x="109.179688" xlink:href="#Tahoma-48"/>
       <use x="163.769531" xlink:href="#Tahoma-48"/>
       <use x="218.359375" xlink:href="#Tahoma-48"/>
      </g>
     </g>
    </g>
    <g id="ytick_6">
     <g id="line2d_31">
      <g>
       <use style="stroke:#000000;stroke-width:0.8;" x="57.6" xlink:href="#m21d1701b99" y="116.344709"/>
      </g>
     </g>
     <g id="text_11">
      <!-- 80000 -->
      <defs>
       <path d="M 39.59375 55.765625 
Q 39.59375 60.640625 36.328125 63.90625 
Q 33.0625 67.1875 27.25 67.1875 
Q 21.921875 67.1875 18.53125 64.25 
Q 15.140625 61.328125 15.140625 56.34375 
Q 15.140625 52.734375 16.875 50.234375 
Q 18.609375 47.75 22.078125 45.75 
Q 23.578125 44.921875 26.671875 43.453125 
Q 29.78125 42 32.328125 41.15625 
Q 36.578125 44.4375 38.078125 47.875 
Q 39.59375 51.3125 39.59375 55.765625 
z
M 40.96875 19.34375 
Q 40.96875 23.828125 39.203125 26.46875 
Q 37.453125 29.109375 32.421875 31.84375 
Q 30.765625 32.765625 28 33.828125 
Q 25.25 34.90625 21.78125 36.375 
Q 17.71875 33.6875 15.5625 29.75 
Q 13.421875 25.828125 13.421875 20.796875 
Q 13.421875 14.203125 17.40625 9.90625 
Q 21.390625 5.609375 27.390625 5.609375 
Q 33.546875 5.609375 37.25 9.296875 
Q 40.96875 12.984375 40.96875 19.34375 
z
M 27.296875 -1.65625 
Q 21.875 -1.65625 17.421875 -0.046875 
Q 12.984375 1.5625 9.859375 4.59375 
Q 6.78125 7.515625 5.1875 11.546875 
Q 3.609375 15.578125 3.609375 20.0625 
Q 3.609375 25.984375 6.75 30.9375 
Q 9.90625 35.890625 15.921875 38.8125 
L 15.921875 39.109375 
Q 10.546875 42.234375 7.953125 45.9375 
Q 5.375 49.65625 5.375 55.21875 
Q 5.375 63.421875 11.578125 68.890625 
Q 17.78125 74.359375 27.296875 74.359375 
Q 37.203125 74.359375 43.1875 69.15625 
Q 49.171875 63.96875 49.171875 55.859375 
Q 49.171875 50.984375 46.3125 46.1875 
Q 43.453125 41.40625 38.09375 38.71875 
L 38.09375 38.421875 
Q 44.4375 35.453125 47.703125 31.203125 
Q 50.984375 26.953125 50.984375 20.265625 
Q 50.984375 10.9375 44.21875 4.640625 
Q 37.453125 -1.65625 27.296875 -1.65625 
z
" id="Tahoma-56"/>
      </defs>
      <g transform="translate(23.303125 120.143928)scale(0.1 -0.1)">
       <use xlink:href="#Tahoma-56"/>
       <use x="54.589844" xlink:href="#Tahoma-48"/>
       <use x="109.179688" xlink:href="#Tahoma-48"/>
       <use x="163.769531" xlink:href="#Tahoma-48"/>
       <use x="218.359375" xlink:href="#Tahoma-48"/>
      </g>
     </g>
    </g>
    <g id="ytick_7">
     <g id="line2d_32">
      <g>
       <use style="stroke:#000000;stroke-width:0.8;" x="57.6" xlink:href="#m21d1701b99" y="78.066228"/>
      </g>
     </g>
     <g id="text_12">
      <!-- 85000 -->
      <g transform="translate(23.303125 81.865447)scale(0.1 -0.1)">
       <use xlink:href="#Tahoma-56"/>
       <use x="54.589844" xlink:href="#Tahoma-53"/>
       <use x="109.179688" xlink:href="#Tahoma-48"/>
       <use x="163.769531" xlink:href="#Tahoma-48"/>
       <use x="218.359375" xlink:href="#Tahoma-48"/>
      </g>
     </g>
    </g>
   </g>
   <g id="line2d_33">
    <path clip-path="url(#paa91214bba)" d="M 57.6 266.396354 
L 74.605714 262.568506 
L 91.611429 262.568506 
L 108.617143 269.458633 
L 125.622857 273.286481 
L 142.628571 269.458633 
L 159.634286 262.568506 
L 176.64 262.568506 
L 193.645714 268.693063 
L 210.651429 267.927494 
L 227.657143 266.396354 
L 244.662857 270.989772 
L 261.668571 277.114329 
L 278.674286 284.004456 
L 295.68 295.488 
L 312.685714 289.363443 
L 329.691429 278.645468 
L 346.697143 280.942177 
L 363.702857 267.161924 
L 380.708571 268.693063 
L 397.714286 267.927494 
L 414.72 267.927494 
" style="fill:none;stroke:#1f77b4;stroke-linecap:square;stroke-width:1.5;"/>
   </g>
   <g id="line2d_34">
    <path clip-path="url(#paa91214bba)" d="M 57.6 74.23838 
L 74.605714 53.568 
L 91.611429 66.582684 
L 108.617143 61.989266 
L 125.622857 75.769519 
L 142.628571 65.051544 
L 159.634286 76.535089 
L 176.64 87.253063 
L 193.645714 91.080911 
L 210.651429 86.487494 
L 227.657143 91.846481 
L 244.662857 96.439899 
L 261.668571 94.14319 
L 278.674286 103.330025 
L 295.68 117.110278 
L 312.685714 119.406987 
L 329.691429 105.626734 
L 346.697143 91.846481 
L 363.702857 69.644962 
L 380.708571 68.113823 
L 397.714286 70.410532 
L 414.72 66.582684 
" style="fill:none;stroke:#ff7f0e;stroke-linecap:square;stroke-width:1.5;"/>
   </g>
   <g id="patch_3">
    <path d="M 57.6 307.584 
L 57.6 41.472 
" style="fill:none;stroke:#000000;stroke-linecap:square;stroke-linejoin:miter;stroke-width:0.8;"/>
   </g>
   <g id="patch_4">
    <path d="M 414.72 307.584 
L 414.72 41.472 
" style="fill:none;stroke:#000000;stroke-linecap:square;stroke-linejoin:miter;stroke-width:0.8;"/>
   </g>
   <g id="patch_5">
    <path d="M 57.6 307.584 
L 414.72 307.584 
" style="fill:none;stroke:#000000;stroke-linecap:square;stroke-linejoin:miter;stroke-width:0.8;"/>
   </g>
   <g id="patch_6">
    <path d="M 57.6 41.472 
L 414.72 41.472 
" style="fill:none;stroke:#000000;stroke-linecap:square;stroke-linejoin:miter;stroke-width:0.8;"/>
   </g>
   <g id="legend_1">
    <g id="patch_7">
     <path d="M 324.268438 190.638937 
L 407.72 190.638937 
Q 409.72 190.638937 409.72 188.638937 
L 409.72 160.417062 
Q 409.72 158.417062 407.72 158.417062 
L 324.268438 158.417062 
Q 322.268438 158.417062 322.268438 160.417062 
L 322.268438 188.638937 
Q 322.268438 190.638937 324.268438 190.638937 
z
" style="fill:#ffffff;opacity:0.8;stroke:#cccccc;stroke-linejoin:miter;"/>
    </g>
    <g id="line2d_35">
     <path d="M 326.268438 166.5155 
L 346.268438 166.5155 
" style="fill:none;stroke:#1f77b4;stroke-linecap:square;stroke-width:1.5;"/>
    </g>
    <g id="line2d_36"/>
    <g id="text_13">
     <!-- 삼성전자 -->
     <defs>
      <path d="M 12.5 0 
L 12.5 75 
L 87.5 75 
L 87.5 0 
z
M 18.75 6.25 
L 81.25 6.25 
L 81.25 68.75 
L 18.75 68.75 
z
" id="Tahoma-49340"/>
      <path d="M 12.5 0 
L 12.5 75 
L 87.5 75 
L 87.5 0 
z
M 18.75 6.25 
L 81.25 6.25 
L 81.25 68.75 
L 18.75 68.75 
z
" id="Tahoma-49457"/>
      <path d="M 12.5 0 
L 12.5 75 
L 87.5 75 
L 87.5 0 
z
M 18.75 6.25 
L 81.25 6.25 
L 81.25 68.75 
L 18.75 68.75 
z
" id="Tahoma-51204"/>
      <path d="M 12.5 0 
L 12.5 75 
L 87.5 75 
L 87.5 0 
z
M 18.75 6.25 
L 81.25 6.25 
L 81.25 68.75 
L 18.75 68.75 
z
" id="Tahoma-51088"/>
     </defs>
     <g transform="translate(354.268438 170.0155)scale(0.1 -0.1)">
      <use xlink:href="#Tahoma-49340"/>
      <use x="100" xlink:href="#Tahoma-49457"/>
      <use x="200" xlink:href="#Tahoma-51204"/>
      <use x="300" xlink:href="#Tahoma-51088"/>
     </g>
    </g>
    <g id="line2d_37">
     <path d="M 326.268438 181.126438 
L 346.268438 181.126438 
" style="fill:none;stroke:#ff7f0e;stroke-linecap:square;stroke-width:1.5;"/>
    </g>
    <g id="line2d_38"/>
    <g id="text_14">
     <!-- SK하이닉스 -->
     <defs>
      <path d="M 27.640625 -1.3125 
Q 19.734375 -1.3125 14.1875 0.3125 
Q 8.640625 1.953125 3.765625 4.34375 
L 3.765625 16.453125 
L 4.4375 16.453125 
Q 9.234375 11.96875 15.28125 9.5 
Q 21.34375 7.03125 26.953125 7.03125 
Q 34.96875 7.03125 39.0625 10.375 
Q 43.171875 13.71875 43.171875 19.1875 
Q 43.171875 23.53125 41.015625 26.265625 
Q 38.875 29 34.1875 30.328125 
Q 30.8125 31.296875 28.03125 31.921875 
Q 25.25 32.5625 21.046875 33.640625 
Q 17.28125 34.625 14.296875 36.125 
Q 11.328125 37.640625 9.03125 40.09375 
Q 6.78125 42.484375 5.53125 45.71875 
Q 4.296875 48.96875 4.296875 53.21875 
Q 4.296875 62.0625 11.171875 68.046875 
Q 18.0625 74.03125 28.765625 74.03125 
Q 34.859375 74.03125 40.296875 72.796875 
Q 45.75 71.578125 50.390625 69.34375 
L 50.390625 57.765625 
L 49.65625 57.765625 
Q 46.1875 60.9375 40.765625 63.296875 
Q 35.359375 65.671875 29.390625 65.671875 
Q 22.65625 65.671875 18.5 62.515625 
Q 14.359375 59.375 14.359375 54.25 
Q 14.359375 49.609375 16.796875 46.875 
Q 19.234375 44.140625 23.875 42.875 
Q 26.953125 42.046875 31.390625 40.984375 
Q 35.84375 39.9375 38.765625 39.0625 
Q 46.296875 36.765625 49.75 32.125 
Q 53.21875 27.484375 53.21875 20.703125 
Q 53.21875 16.453125 51.484375 12.296875 
Q 49.75 8.15625 46.625 5.28125 
Q 43.109375 2.09375 38.6875 0.390625 
Q 34.28125 -1.3125 27.640625 -1.3125 
z
" id="Tahoma-83"/>
      <path d="M 60.359375 0 
L 47.796875 0 
L 21.296875 33.84375 
L 17.046875 29.046875 
L 17.046875 0 
L 7.375 0 
L 7.375 72.703125 
L 17.046875 72.703125 
L 17.046875 39.265625 
L 46.828125 72.703125 
L 58.59375 72.703125 
L 28.515625 40.234375 
z
" id="Tahoma-75"/>
      <path d="M 12.5 0 
L 12.5 75 
L 87.5 75 
L 87.5 0 
z
M 18.75 6.25 
L 81.25 6.25 
L 81.25 68.75 
L 18.75 68.75 
z
" id="Tahoma-54616"/>
      <path d="M 12.5 0 
L 12.5 75 
L 87.5 75 
L 87.5 0 
z
M 18.75 6.25 
L 81.25 6.25 
L 81.25 68.75 
L 18.75 68.75 
z
" id="Tahoma-51060"/>
      <path d="M 12.5 0 
L 12.5 75 
L 87.5 75 
L 87.5 0 
z
M 18.75 6.25 
L 81.25 6.25 
L 81.25 68.75 
L 18.75 68.75 
z
" id="Tahoma-45769"/>
      <path d="M 12.5 0 
L 12.5 75 
L 87.5 75 
L 87.5 0 
z
M 18.75 6.25 
L 81.25 6.25 
L 81.25 68.75 
L 18.75 68.75 
z
" id="Tahoma-49828"/>
     </defs>
     <g transform="translate(354.268438 184.626438)scale(0.1 -0.1)">
      <use xlink:href="#Tahoma-83"/>
      <use x="55.712891" xlink:href="#Tahoma-75"/>
      <use x="114.501953" xlink:href="#Tahoma-54616"/>
      <use x="214.501953" xlink:href="#Tahoma-51060"/>
      <use x="314.501953" xlink:href="#Tahoma-45769"/>
      <use x="414.501953" xlink:href="#Tahoma-49828"/>
     </g>
    </g>
   </g>
  </g>
 </g>
 <defs>
  <clipPath id="paa91214bba">
   <rect height="266.112" width="357.12" x="57.6" y="41.472"/>
  </clipPath>
 </defs>
</svg>
