<?xml version="1.0" encoding="utf-8" standalone="no"?>
<!DOCTYPE svg PUBLIC "-//W3C//DTD SVG 1.1//EN"
  "http://www.w3.org/Graphics/SVG/1.1/DTD/svg11.dtd">
<!-- Created with matplotlib (https://matplotlib.org/) -->
<svg height="345.6pt" version="1.1" viewBox="0 0 460.8 345.6" width="460.8pt" xmlns="http://www.w3.org/2000/svg" xmlns:xlink="http://www.w3.org/1999/xlink">
 <defs>
  <style type="text/css">
*{stroke-linecap:butt;stroke-linejoin:round;}
  </style>
 </defs>
 <g id="figure_1">
  <g id="patch_1">
   <path d="M 0 345.6 
L 460.8 345.6 
L 460.8 0 
L 0 0 
z
" style="fill:#ffffff;"/>
  </g>
  <g id="axes_1">
   <g id="patch_2">
    <path d="M 57.6 307.584 
L 414.72 307.584 
L 414.72 41.472 
L 57.6 41.472 
z
" style="fill:#ffffff;"/>
   </g>
   <g id="matplotlib.axis_1">
    <g id="xtick_1">
     <g id="line2d_1">
      <defs>
       <path d="M 0 0 
L 0 3.5 
" id="m8dee711713" style="stroke:#000000;stroke-width:0.8;"/>
      </defs>
      <g>
       <use style="stroke:#000000;stroke-width:0.8;" x="57.6" xlink:href="#m8dee711713" y="307.584"/>
      </g>
     </g>
     <g id="text_1">
      <!-- 12 -->
      <defs>
       <path d="M 34.859375 0 
L 27.09375 0 
L 27.09375 62.0625 
Q 24.859375 59.8125 19.78125 57.203125 
Q 14.703125 54.59375 10.5 53.5625 
L 10.5 61.859375 
Q 15.875 63.375 22.015625 66.796875 
Q 28.171875 70.21875 31.734375 73.4375 
L 34.859375 73.4375 
z
" id="MalgunGothic-49"/>
       <path d="M 39.359375 52.6875 
Q 39.359375 59.125 35.546875 62.78125 
Q 31.734375 66.453125 25.4375 66.453125 
Q 20.953125 66.453125 16.453125 64.125 
Q 11.96875 61.8125 8.34375 57.765625 
L 8.34375 66.15625 
Q 15.328125 73.046875 26.421875 73.046875 
Q 35.640625 73.046875 41.28125 67.71875 
Q 46.921875 62.40625 46.921875 53.375 
Q 46.921875 45.609375 43.3125 39.765625 
Q 39.703125 33.9375 31 27.734375 
Q 22.796875 21.96875 19.59375 18.984375 
Q 16.40625 16.015625 15.109375 13.34375 
Q 13.8125 10.6875 13.8125 7.03125 
L 48.6875 7.03125 
L 48.6875 0 
L 5.5625 0 
L 5.5625 3.515625 
Q 5.5625 9.421875 7.203125 13.59375 
Q 8.84375 17.78125 12.671875 21.75 
Q 16.5 25.734375 24.953125 31.59375 
Q 32.671875 36.921875 36.015625 41.71875 
Q 39.359375 46.53125 39.359375 52.6875 
z
" id="MalgunGothic-50"/>
      </defs>
      <g transform="translate(52.092188 322.176187)scale(0.1 -0.1)">
       <use xlink:href="#MalgunGothic-49"/>
       <use x="55.078125" xlink:href="#MalgunGothic-50"/>
      </g>
     </g>
    </g>
    <g id="xtick_2">
     <g id="line2d_2">
      <g>
       <use style="stroke:#000000;stroke-width:0.8;" x="312.685714" xlink:href="#m8dee711713" y="307.584"/>
      </g>
     </g>
     <g id="text_2">
      <!--  -->
      <g transform="translate(312.685714 322.176187)scale(0.1 -0.1)"/>
      <!--  -->
      <g transform="translate(312.685714 333.650875)scale(0.1 -0.1)"/>
      <!-- Nov -->
      <defs>
       <path d="M 67 0 
L 57.078125 0 
L 19.578125 58.015625 
Q 18.40625 59.8125 17.328125 62.5 
L 17.09375 62.5 
Q 17.4375 59.71875 17.4375 52.6875 
L 17.4375 0 
L 9.515625 0 
L 9.515625 71.875 
L 19.96875 71.875 
L 56.453125 14.65625 
Q 58.984375 10.6875 59.328125 9.90625 
L 59.515625 9.90625 
Q 58.984375 13.484375 58.984375 20.5625 
L 58.984375 71.875 
L 67 71.875 
z
" id="MalgunGothic-78"/>
       <path d="M 4.9375 25 
Q 4.9375 37.796875 11.890625 45.140625 
Q 18.84375 52.484375 30.90625 52.484375 
Q 42.140625 52.484375 48.609375 45.421875 
Q 55.078125 38.375 55.078125 25.78125 
Q 55.078125 13.578125 48.09375 6.171875 
Q 41.109375 -1.21875 29.6875 -1.21875 
Q 18.5 -1.21875 11.71875 6 
Q 4.9375 13.234375 4.9375 25 
z
M 12.796875 25.34375 
Q 12.796875 16.265625 17.546875 10.8125 
Q 22.3125 5.375 30.21875 5.375 
Q 38.421875 5.375 42.796875 10.625 
Q 47.171875 15.875 47.171875 25.53125 
Q 47.171875 35.25 42.765625 40.59375 
Q 38.375 45.953125 30.21875 45.953125 
Q 22.265625 45.953125 17.53125 40.421875 
Q 12.796875 34.90625 12.796875 25.34375 
z
" id="MalgunGothic-111"/>
       <path d="M 48.1875 51.3125 
L 27.640625 0 
L 20.21875 0 
L 0.734375 51.3125 
L 9.28125 51.3125 
L 22.515625 13.625 
Q 23.921875 9.515625 24.3125 6.640625 
L 24.5625 6.640625 
Q 25.046875 10.453125 26.125 13.484375 
L 40.046875 51.3125 
z
" id="MalgunGothic-118"/>
      </defs>
      <g transform="translate(303.427902 345.125563)scale(0.1 -0.1)">
       <use xlink:href="#MalgunGothic-78"/>
       <use x="76.513672" xlink:href="#MalgunGothic-111"/>
       <use x="136.425781" xlink:href="#MalgunGothic-118"/>
      </g>
      <!-- 2020 -->
      <defs>
       <path d="M 4.34375 34.46875 
Q 4.34375 53.515625 10.546875 63.28125 
Q 16.75 73.046875 28.421875 73.046875 
Q 50.828125 73.046875 50.828125 36.234375 
Q 50.828125 18.0625 44.59375 8.421875 
Q 38.375 -1.21875 26.8125 -1.21875 
Q 15.875 -1.21875 10.109375 8.125 
Q 4.34375 17.484375 4.34375 34.46875 
z
M 12.25 34.859375 
Q 12.25 5.375 27.640625 5.375 
Q 42.921875 5.375 42.921875 35.296875 
Q 42.921875 66.40625 28.03125 66.40625 
Q 12.25 66.40625 12.25 34.859375 
z
" id="MalgunGothic-48"/>
      </defs>
      <g transform="translate(301.670089 356.60025)scale(0.1 -0.1)">
       <use xlink:href="#MalgunGothic-50"/>
       <use x="55.078125" xlink:href="#MalgunGothic-48"/>
       <use x="110.15625" xlink:href="#MalgunGothic-50"/>
       <use x="165.234375" xlink:href="#MalgunGothic-48"/>
      </g>
     </g>
    </g>
    <g id="xtick_3">
     <g id="line2d_3">
      <g>
       <use style="stroke:#000000;stroke-width:0.8;" x="414.72" xlink:href="#m8dee711713" y="307.584"/>
      </g>
     </g>
    </g>
    <g id="xtick_4">
     <g id="line2d_4">
      <defs>
       <path d="M 0 0 
L 0 2 
" id="m75b3e5d4d9" style="stroke:#000000;stroke-width:0.6;"/>
      </defs>
      <g>
       <use style="stroke:#000000;stroke-width:0.6;" x="57.6" xlink:href="#m75b3e5d4d9" y="307.584"/>
      </g>
     </g>
    </g>
    <g id="xtick_5">
     <g id="line2d_5">
      <g>
       <use style="stroke:#000000;stroke-width:0.6;" x="74.605714" xlink:href="#m75b3e5d4d9" y="307.584"/>
      </g>
     </g>
    </g>
    <g id="xtick_6">
     <g id="line2d_6">
      <g>
       <use style="stroke:#000000;stroke-width:0.6;" x="91.611429" xlink:href="#m75b3e5d4d9" y="307.584"/>
      </g>
     </g>
    </g>
    <g id="xtick_7">
     <g id="line2d_7">
      <g>
       <use style="stroke:#000000;stroke-width:0.6;" x="108.617143" xlink:href="#m75b3e5d4d9" y="307.584"/>
      </g>
     </g>
    </g>
    <g id="xtick_8">
     <g id="line2d_8">
      <g>
       <use style="stroke:#000000;stroke-width:0.6;" x="125.622857" xlink:href="#m75b3e5d4d9" y="307.584"/>
      </g>
     </g>
    </g>
    <g id="xtick_9">
     <g id="line2d_9">
      <g>
       <use style="stroke:#000000;stroke-width:0.6;" x="142.628571" xlink:href="#m75b3e5d4d9" y="307.584"/>
      </g>
     </g>
     <g id="text_3">
      <!-- 19 -->
      <defs>
       <path d="M 8.6875 8.796875 
Q 14.703125 5.375 21.34375 5.375 
Q 31.15625 5.375 36.671875 13.359375 
Q 42.1875 21.34375 42.1875 36.140625 
Q 42.09375 36.03125 42 36.140625 
Q 37.3125 26.765625 25.828125 26.765625 
Q 16.546875 26.765625 10.65625 33.125 
Q 4.78125 39.5 4.78125 49.125 
Q 4.78125 59.46875 11.109375 66.25 
Q 17.4375 73.046875 27.6875 73.046875 
Q 38.53125 73.046875 44.265625 64.546875 
Q 50 56.0625 50 40.28125 
Q 50 20.609375 42.453125 9.6875 
Q 34.90625 -1.21875 21 -1.21875 
Q 13.765625 -1.21875 8.6875 1.21875 
z
M 12.703125 50.296875 
Q 12.703125 42.828125 16.609375 38.28125 
Q 20.515625 33.734375 27.484375 33.734375 
Q 33.546875 33.734375 37.59375 37.765625 
Q 41.65625 41.796875 41.65625 47.609375 
Q 41.65625 55.5625 37.671875 60.984375 
Q 33.6875 66.40625 26.953125 66.40625 
Q 20.65625 66.40625 16.671875 61.6875 
Q 12.703125 56.984375 12.703125 50.296875 
z
" id="MalgunGothic-57"/>
      </defs>
      <g transform="translate(137.120759 320.576187)scale(0.1 -0.1)">
       <use xlink:href="#MalgunGothic-49"/>
       <use x="55.078125" xlink:href="#MalgunGothic-57"/>
      </g>
     </g>
    </g>
    <g id="xtick_10">
     <g id="line2d_10">
      <g>
       <use style="stroke:#000000;stroke-width:0.6;" x="159.634286" xlink:href="#m75b3e5d4d9" y="307.584"/>
      </g>
     </g>
    </g>
    <g id="xtick_11">
     <g id="line2d_11">
      <g>
       <use style="stroke:#000000;stroke-width:0.6;" x="176.64" xlink:href="#m75b3e5d4d9" y="307.584"/>
      </g>
     </g>
    </g>
    <g id="xtick_12">
     <g id="line2d_12">
      <g>
       <use style="stroke:#000000;stroke-width:0.6;" x="193.645714" xlink:href="#m75b3e5d4d9" y="307.584"/>
      </g>
     </g>
    </g>
    <g id="xtick_13">
     <g id="line2d_13">
      <g>
       <use style="stroke:#000000;stroke-width:0.6;" x="210.651429" xlink:href="#m75b3e5d4d9" y="307.584"/>
      </g>
     </g>
    </g>
    <g id="xtick_14">
     <g id="line2d_14">
      <g>
       <use style="stroke:#000000;stroke-width:0.6;" x="227.657143" xlink:href="#m75b3e5d4d9" y="307.584"/>
      </g>
     </g>
     <g id="text_4">
      <!-- 26 -->
      <defs>
       <path d="M 46.578125 63.578125 
Q 40.921875 66.40625 34.8125 66.40625 
Q 24.859375 66.40625 19.1875 57.640625 
Q 13.53125 48.875 13.578125 34.578125 
L 13.8125 34.578125 
Q 18.796875 44.875 30.28125 44.875 
Q 39.796875 44.875 45.359375 38.71875 
Q 50.921875 32.5625 50.921875 22.65625 
Q 50.921875 12.453125 44.640625 5.609375 
Q 38.375 -1.21875 28.515625 -1.21875 
Q 17.4375 -1.21875 11.5 7.46875 
Q 5.5625 16.15625 5.5625 31.546875 
Q 5.5625 49.703125 13.234375 61.375 
Q 20.90625 73.046875 34.71875 73.046875 
Q 42.1875 73.046875 46.578125 71 
z
M 14.15625 23.53125 
Q 14.15625 15.96875 18.203125 10.671875 
Q 22.265625 5.375 28.8125 5.375 
Q 35.109375 5.375 39.03125 10.078125 
Q 42.96875 14.796875 42.96875 21.6875 
Q 42.96875 29.5 39.203125 33.859375 
Q 35.453125 38.234375 28.71875 38.234375 
Q 22.5625 38.234375 18.359375 33.953125 
Q 14.15625 29.6875 14.15625 23.53125 
z
" id="MalgunGothic-54"/>
      </defs>
      <g transform="translate(222.14933 320.576187)scale(0.1 -0.1)">
       <use xlink:href="#MalgunGothic-50"/>
       <use x="55.078125" xlink:href="#MalgunGothic-54"/>
      </g>
     </g>
    </g>
    <g id="xtick_15">
     <g id="line2d_15">
      <g>
       <use style="stroke:#000000;stroke-width:0.6;" x="244.662857" xlink:href="#m75b3e5d4d9" y="307.584"/>
      </g>
     </g>
    </g>
    <g id="xtick_16">
     <g id="line2d_16">
      <g>
       <use style="stroke:#000000;stroke-width:0.6;" x="261.668571" xlink:href="#m75b3e5d4d9" y="307.584"/>
      </g>
     </g>
    </g>
    <g id="xtick_17">
     <g id="line2d_17">
      <g>
       <use style="stroke:#000000;stroke-width:0.6;" x="278.674286" xlink:href="#m75b3e5d4d9" y="307.584"/>
      </g>
     </g>
    </g>
    <g id="xtick_18">
     <g id="line2d_18">
      <g>
       <use style="stroke:#000000;stroke-width:0.6;" x="295.68" xlink:href="#m75b3e5d4d9" y="307.584"/>
      </g>
     </g>
    </g>
    <g id="xtick_19">
     <g id="line2d_19">
      <g>
       <use style="stroke:#000000;stroke-width:0.6;" x="312.685714" xlink:href="#m75b3e5d4d9" y="307.584"/>
      </g>
     </g>
    </g>
    <g id="xtick_20">
     <g id="line2d_20">
      <g>
       <use style="stroke:#000000;stroke-width:0.6;" x="329.691429" xlink:href="#m75b3e5d4d9" y="307.584"/>
      </g>
     </g>
    </g>
    <g id="xtick_21">
     <g id="line2d_21">
      <g>
       <use style="stroke:#000000;stroke-width:0.6;" x="346.697143" xlink:href="#m75b3e5d4d9" y="307.584"/>
      </g>
     </g>
    </g>
    <g id="xtick_22">
     <g id="line2d_22">
      <g>
       <use style="stroke:#000000;stroke-width:0.6;" x="363.702857" xlink:href="#m75b3e5d4d9" y="307.584"/>
      </g>
     </g>
    </g>
    <g id="xtick_23">
     <g id="line2d_23">
      <g>
       <use style="stroke:#000000;stroke-width:0.6;" x="380.708571" xlink:href="#m75b3e5d4d9" y="307.584"/>
      </g>
     </g>
    </g>
    <g id="xtick_24">
     <g id="line2d_24">
      <g>
       <use style="stroke:#000000;stroke-width:0.6;" x="397.714286" xlink:href="#m75b3e5d4d9" y="307.584"/>
      </g>
     </g>
     <g id="text_5">
      <!-- 09 -->
      <g transform="translate(392.206473 320.576187)scale(0.1 -0.1)">
       <use xlink:href="#MalgunGothic-48"/>
       <use x="55.078125" xlink:href="#MalgunGothic-57"/>
      </g>
     </g>
    </g>
    <g id="xtick_25">
     <g id="line2d_25">
      <g>
       <use style="stroke:#000000;stroke-width:0.6;" x="414.72" xlink:href="#m75b3e5d4d9" y="307.584"/>
      </g>
     </g>
    </g>
   </g>
   <g id="matplotlib.axis_2">
    <g id="ytick_1">
     <g id="line2d_26">
      <defs>
       <path d="M 0 0 
L -3.5 0 
" id="mde51926171" style="stroke:#000000;stroke-width:0.8;"/>
      </defs>
      <g>
       <use style="stroke:#000000;stroke-width:0.8;" x="57.6" xlink:href="#mde51926171" y="302.021028"/>
      </g>
     </g>
     <g id="text_6">
      <!-- 50000 -->
      <defs>
       <path d="M 48 21.921875 
Q 48 11.28125 41.1875 5.03125 
Q 34.375 -1.21875 22.953125 -1.21875 
Q 12.9375 -1.21875 8.0625 1.765625 
L 8.0625 10.15625 
Q 15.53125 5.375 23.046875 5.375 
Q 30.765625 5.375 35.46875 9.84375 
Q 40.1875 14.3125 40.1875 21.4375 
Q 40.1875 28.71875 35.390625 32.6875 
Q 30.609375 36.671875 21.578125 36.671875 
Q 15.53125 36.671875 9.421875 35.9375 
L 11.859375 71.875 
L 44.828125 71.875 
L 44.828125 64.796875 
L 18.84375 64.796875 
L 17.28125 43.171875 
Q 21.046875 43.5 24.171875 43.5 
Q 35.359375 43.5 41.671875 37.71875 
Q 48 31.9375 48 21.921875 
z
" id="MalgunGothic-53"/>
      </defs>
      <g transform="translate(23.060938 305.817122)scale(0.1 -0.1)">
       <use xlink:href="#MalgunGothic-53"/>
       <use x="55.078125" xlink:href="#MalgunGothic-48"/>
       <use x="110.15625" xlink:href="#MalgunGothic-48"/>
       <use x="165.234375" xlink:href="#MalgunGothic-48"/>
       <use x="220.3125" xlink:href="#MalgunGothic-48"/>
      </g>
     </g>
    </g>
    <g id="ytick_2">
     <g id="line2d_27">
      <g>
       <use style="stroke:#000000;stroke-width:0.8;" x="57.6" xlink:href="#mde51926171" y="252.528393"/>
      </g>
     </g>
     <g id="text_7">
      <!-- 100000 -->
      <g transform="translate(17.553125 256.324487)scale(0.1 -0.1)">
       <use xlink:href="#MalgunGothic-49"/>
       <use x="55.078125" xlink:href="#MalgunGothic-48"/>
       <use x="110.15625" xlink:href="#MalgunGothic-48"/>
       <use x="165.234375" xlink:href="#MalgunGothic-48"/>
       <use x="220.3125" xlink:href="#MalgunGothic-48"/>
       <use x="275.390625" xlink:href="#MalgunGothic-48"/>
      </g>
     </g>
    </g>
    <g id="ytick_3">
     <g id="line2d_28">
      <g>
       <use style="stroke:#000000;stroke-width:0.8;" x="57.6" xlink:href="#mde51926171" y="203.035758"/>
      </g>
     </g>
     <g id="text_8">
      <!-- 150000 -->
      <g transform="translate(17.553125 206.831852)scale(0.1 -0.1)">
       <use xlink:href="#MalgunGothic-49"/>
       <use x="55.078125" xlink:href="#MalgunGothic-53"/>
       <use x="110.15625" xlink:href="#MalgunGothic-48"/>
       <use x="165.234375" xlink:href="#MalgunGothic-48"/>
       <use x="220.3125" xlink:href="#MalgunGothic-48"/>
       <use x="275.390625" xlink:href="#MalgunGothic-48"/>
      </g>
     </g>
    </g>
    <g id="ytick_4">
     <g id="line2d_29">
      <g>
       <use style="stroke:#000000;stroke-width:0.8;" x="57.6" xlink:href="#mde51926171" y="153.543123"/>
      </g>
     </g>
     <g id="text_9">
      <!-- 200000 -->
      <g transform="translate(17.553125 157.339216)scale(0.1 -0.1)">
       <use xlink:href="#MalgunGothic-50"/>
       <use x="55.078125" xlink:href="#MalgunGothic-48"/>
       <use x="110.15625" xlink:href="#MalgunGothic-48"/>
       <use x="165.234375" xlink:href="#MalgunGothic-48"/>
       <use x="220.3125" xlink:href="#MalgunGothic-48"/>
       <use x="275.390625" xlink:href="#MalgunGothic-48"/>
      </g>
     </g>
    </g>
    <g id="ytick_5">
     <g id="line2d_30">
      <g>
       <use style="stroke:#000000;stroke-width:0.8;" x="57.6" xlink:href="#mde51926171" y="104.050488"/>
      </g>
     </g>
     <g id="text_10">
      <!-- 250000 -->
      <g transform="translate(17.553125 107.846581)scale(0.1 -0.1)">
       <use xlink:href="#MalgunGothic-50"/>
       <use x="55.078125" xlink:href="#MalgunGothic-53"/>
       <use x="110.15625" xlink:href="#MalgunGothic-48"/>
       <use x="165.234375" xlink:href="#MalgunGothic-48"/>
       <use x="220.3125" xlink:href="#MalgunGothic-48"/>
       <use x="275.390625" xlink:href="#MalgunGothic-48"/>
      </g>
     </g>
    </g>
    <g id="ytick_6">
     <g id="line2d_31">
      <g>
       <use style="stroke:#000000;stroke-width:0.8;" x="57.6" xlink:href="#mde51926171" y="54.557853"/>
      </g>
     </g>
     <g id="text_11">
      <!-- 300000 -->
      <defs>
       <path d="M 6.5 11.234375 
Q 13.921875 5.375 23.09375 5.375 
Q 30.609375 5.375 35.21875 9.171875 
Q 39.84375 12.984375 39.84375 19.484375 
Q 39.84375 33.890625 19.578125 33.890625 
L 13.625 33.890625 
L 13.625 40.484375 
L 19.28125 40.484375 
Q 37.3125 40.484375 37.3125 53.953125 
Q 37.3125 66.40625 23.578125 66.40625 
Q 15.96875 66.40625 9.28125 61.1875 
L 9.28125 68.953125 
Q 16.109375 73.046875 25.53125 73.046875 
Q 34.125 73.046875 39.671875 68.3125 
Q 45.21875 63.578125 45.21875 55.953125 
Q 45.21875 41.84375 30.8125 37.640625 
L 30.8125 37.5 
Q 38.578125 36.8125 43.1875 32.078125 
Q 47.796875 27.34375 47.796875 20.3125 
Q 47.796875 10.5 40.6875 4.640625 
Q 33.59375 -1.21875 22.65625 -1.21875 
Q 12.59375 -1.21875 6.5 2.640625 
z
" id="MalgunGothic-51"/>
      </defs>
      <g transform="translate(17.553125 58.353946)scale(0.1 -0.1)">
       <use xlink:href="#MalgunGothic-51"/>
       <use x="55.078125" xlink:href="#MalgunGothic-48"/>
       <use x="110.15625" xlink:href="#MalgunGothic-48"/>
       <use x="165.234375" xlink:href="#MalgunGothic-48"/>
       <use x="220.3125" xlink:href="#MalgunGothic-48"/>
       <use x="275.390625" xlink:href="#MalgunGothic-48"/>
      </g>
     </g>
    </g>
   </g>
   <g id="line2d_32">
    <path clip-path="url(#p8b9280e1ca)" d="M 57.6 62.476674 
L 74.605714 59.507116 
L 91.611429 56.042632 
L 108.617143 61.981748 
L 125.622857 60.991895 
L 142.628571 68.415791 
L 159.634286 64.45638 
L 176.64 57.032484 
L 193.645714 61.486822 
L 210.651429 67.920864 
L 227.657143 72.870128 
L 244.662857 70.890422 
L 261.668571 56.042632 
L 278.674286 56.042632 
L 295.68 64.45638 
L 312.685714 68.910717 
L 329.691429 71.385349 
L 346.697143 56.042632 
L 363.702857 55.547705 
L 380.708571 53.568 
L 397.714286 56.537558 
L 414.72 71.385349 
" style="fill:none;stroke:#1f77b4;stroke-linecap:square;stroke-width:1.5;"/>
   </g>
   <g id="line2d_33">
    <path clip-path="url(#p8b9280e1ca)" d="M 57.6 291.72656 
L 74.605714 291.231633 
L 91.611429 291.231633 
L 108.617143 292.122501 
L 125.622857 292.617427 
L 142.628571 292.122501 
L 159.634286 291.231633 
L 176.64 291.231633 
L 193.645714 292.023516 
L 210.651429 291.92453 
L 227.657143 291.72656 
L 244.662857 292.320471 
L 261.668571 293.112354 
L 278.674286 294.003221 
L 295.68 295.488 
L 312.685714 294.696118 
L 329.691429 293.310324 
L 346.697143 293.60728 
L 363.702857 291.825545 
L 380.708571 292.023516 
L 397.714286 291.92453 
L 414.72 291.92453 
" style="fill:none;stroke:#ff7f0e;stroke-linecap:square;stroke-width:1.5;"/>
   </g>
   <g id="line2d_34">
    <path clip-path="url(#p8b9280e1ca)" d="M 57.6 114.443941 
L 74.605714 111.474383 
L 91.611429 123.352615 
L 108.617143 119.393205 
L 125.622857 119.393205 
L 142.628571 121.37291 
L 159.634286 120.877984 
L 176.64 115.92872 
L 193.645714 115.433794 
L 210.651429 115.433794 
L 227.657143 119.888131 
L 244.662857 121.37291 
L 261.668571 124.342468 
L 278.674286 131.271437 
L 295.68 139.685185 
L 312.685714 138.695332 
L 329.691429 134.735921 
L 346.697143 135.230848 
L 363.702857 130.776511 
L 380.708571 126.8171 
L 397.714286 128.301879 
L 414.72 126.8171 
" style="fill:none;stroke:#2ca02c;stroke-linecap:square;stroke-width:1.5;"/>
   </g>
   <g id="patch_3">
    <path d="M 57.6 307.584 
L 57.6 41.472 
" style="fill:none;stroke:#000000;stroke-linecap:square;stroke-linejoin:miter;stroke-width:0.8;"/>
   </g>
   <g id="patch_4">
    <path d="M 414.72 307.584 
L 414.72 41.472 
" style="fill:none;stroke:#000000;stroke-linecap:square;stroke-linejoin:miter;stroke-width:0.8;"/>
   </g>
   <g id="patch_5">
    <path d="M 57.6 307.584 
L 414.72 307.584 
" style="fill:none;stroke:#000000;stroke-linecap:square;stroke-linejoin:miter;stroke-width:0.8;"/>
   </g>
   <g id="patch_6">
    <path d="M 57.6 41.472 
L 414.72 41.472 
" style="fill:none;stroke:#000000;stroke-linecap:square;stroke-linejoin:miter;stroke-width:0.8;"/>
   </g>
   <g id="legend_1">
    <g id="patch_7">
     <path d="M 334.387188 198.462375 
L 407.72 198.462375 
Q 409.72 198.462375 409.72 196.462375 
L 409.72 152.593625 
Q 409.72 150.593625 407.72 150.593625 
L 334.387188 150.593625 
Q 332.387188 150.593625 332.387188 152.593625 
L 332.387188 196.462375 
Q 332.387188 198.462375 334.387188 198.462375 
z
" style="fill:#ffffff;opacity:0.8;stroke:#cccccc;stroke-linejoin:miter;"/>
    </g>
    <g id="line2d_35">
     <path d="M 336.387188 158.685812 
L 356.387188 158.685812 
" style="fill:none;stroke:#1f77b4;stroke-linecap:square;stroke-width:1.5;"/>
    </g>
    <g id="line2d_36"/>
    <g id="text_12">
     <!-- NAVER -->
     <defs>
      <path d="M 64.59375 0 
L 55.859375 0 
L 48.046875 20.40625 
L 17.234375 20.40625 
L 9.96875 0 
L 1.171875 0 
L 28.8125 71.875 
L 36.8125 71.875 
z
M 45.359375 27.640625 
L 33.890625 58.6875 
Q 33.25 60.40625 32.8125 63.421875 
L 32.5625 63.421875 
Q 32.03125 60.0625 31.390625 58.6875 
L 20.015625 27.640625 
z
" id="MalgunGothic-65"/>
      <path d="M 62.5 71.875 
L 35.75 0 
L 27.09375 0 
L 0.921875 71.875 
L 9.765625 71.875 
L 29.984375 14.40625 
Q 30.90625 11.71875 31.390625 8.109375 
L 31.640625 8.109375 
Q 32.03125 11.140625 33.25 14.5 
L 53.953125 71.875 
z
" id="MalgunGothic-86"/>
      <path d="M 47.265625 0 
L 9.515625 0 
L 9.515625 71.875 
L 45.65625 71.875 
L 45.65625 64.59375 
L 17.390625 64.59375 
L 17.390625 40.1875 
L 43.5 40.1875 
L 43.5 32.953125 
L 17.390625 32.953125 
L 17.390625 7.234375 
L 47.265625 7.234375 
z
" id="MalgunGothic-69"/>
      <path d="M 60.40625 0 
L 50.921875 0 
L 38.875 20.21875 
Q 35.015625 26.65625 31.9375 28.703125 
Q 28.859375 30.765625 24.515625 30.765625 
L 17.390625 30.765625 
L 17.390625 0 
L 9.515625 0 
L 9.515625 71.875 
L 30.671875 71.875 
Q 40.578125 71.875 46.40625 66.75 
Q 52.25 61.625 52.25 52.734375 
Q 52.25 37.84375 36.328125 33.40625 
L 36.328125 33.203125 
Q 39.359375 31.890625 41.328125 29.71875 
Q 43.3125 27.546875 46.96875 21.578125 
z
M 17.390625 64.5 
L 17.390625 38.09375 
L 29.15625 38.09375 
Q 35.796875 38.09375 39.875 41.96875 
Q 43.953125 45.84375 43.953125 52.09375 
Q 43.953125 57.953125 40.15625 61.21875 
Q 36.375 64.5 29.25 64.5 
z
" id="MalgunGothic-82"/>
     </defs>
     <g transform="translate(364.387188 162.185812)scale(0.1 -0.1)">
      <use xlink:href="#MalgunGothic-78"/>
      <use x="76.513672" xlink:href="#MalgunGothic-65"/>
      <use x="142.240234" xlink:href="#MalgunGothic-86"/>
      <use x="205.667969" xlink:href="#MalgunGothic-69"/>
      <use x="257.376953" xlink:href="#MalgunGothic-82"/>
     </g>
    </g>
    <g id="line2d_37">
     <path d="M 336.387188 173.642063 
L 356.387188 173.642063 
" style="fill:none;stroke:#ff7f0e;stroke-linecap:square;stroke-width:1.5;"/>
    </g>
    <g id="line2d_38"/>
    <g id="text_13">
     <!-- 삼성전자 -->
     <defs>
      <path d="M 80.078125 53.71875 
L 80.078125 33.40625 
L 72.796875 33.40625 
L 72.796875 85.40625 
L 80.078125 85.40625 
L 80.078125 60.296875 
L 94.28125 60.296875 
L 94.28125 53.71875 
z
M 56.296875 36.71875 
Q 50.203125 39.984375 43.484375 46.28125 
Q 36.765625 52.59375 34.1875 58.015625 
Q 31.59375 51.90625 25.140625 45.046875 
Q 18.703125 38.1875 11.71875 34.28125 
L 6.390625 39.3125 
Q 16.796875 44.34375 23.65625 53.609375 
Q 30.515625 62.890625 30.515625 72.796875 
L 30.515625 82.71875 
L 37.5 82.71875 
L 37.5 72.796875 
Q 37.5 63.375 44.453125 54.734375 
Q 51.421875 46.09375 61.078125 42 
z
M 22.609375 -6.203125 
L 22.609375 28.21875 
L 80.078125 28.21875 
L 80.078125 -6.203125 
z
M 72.90625 21.78125 
L 29.78125 21.78125 
L 29.78125 0.203125 
L 72.90625 0.203125 
z
" id="MalgunGothic-49340"/>
      <path d="M 77.296875 31 
L 77.296875 59.078125 
L 55.328125 59.078125 
L 55.328125 65.625 
L 77.296875 65.625 
L 77.296875 85.40625 
L 84.625 85.40625 
L 84.625 31 
z
M 57.078125 36.375 
Q 50.6875 39.84375 44.234375 46.09375 
Q 37.796875 52.34375 35.203125 57.8125 
Q 32.421875 51.609375 25.921875 44.65625 
Q 19.4375 37.703125 12.796875 33.984375 
L 7.625 39.015625 
Q 17.71875 43.84375 24.546875 53.015625 
Q 31.390625 62.203125 31.390625 72.3125 
L 31.390625 82.328125 
L 38.484375 82.328125 
L 38.484375 72.3125 
Q 38.484375 62.890625 45.5625 54.25 
Q 52.640625 45.609375 62.015625 41.703125 
z
M 55.71875 -7.421875 
Q 40.96875 -7.421875 32.9375 -2.3125 
Q 24.90625 2.78125 24.90625 10.890625 
Q 24.90625 19 32.90625 24.046875 
Q 40.921875 29.109375 55.71875 29.109375 
Q 70.515625 29.109375 78.515625 24.046875 
Q 86.53125 19 86.53125 10.890625 
Q 86.53125 2.78125 78.484375 -2.3125 
Q 70.453125 -7.421875 55.71875 -7.421875 
z
M 55.71875 22.90625 
Q 44.53125 22.90625 38.625 19.5 
Q 32.71875 16.109375 32.71875 10.890625 
Q 32.71875 5.609375 38.640625 2.234375 
Q 44.578125 -1.125 55.71875 -1.125 
Q 66.796875 -1.125 72.75 2.21875 
Q 78.71875 5.5625 78.71875 10.890625 
Q 78.71875 16.15625 72.796875 19.53125 
Q 66.890625 22.90625 55.71875 22.90625 
z
" id="MalgunGothic-49457"/>
      <path d="M 76.21875 18.40625 
L 76.21875 55.078125 
L 54.203125 55.078125 
L 54.203125 61.625 
L 76.21875 61.625 
L 76.21875 85.40625 
L 83.5 85.40625 
L 83.5 18.40625 
z
M 57.421875 32.328125 
Q 50.4375 36.625 44.203125 43.375 
Q 37.984375 50.140625 35.40625 55.71875 
Q 32.671875 49.21875 25.96875 41.375 
Q 19.28125 33.546875 12.796875 29.890625 
L 7.515625 34.90625 
Q 17.578125 39.984375 24.578125 49.96875 
Q 31.59375 59.96875 31.59375 70.21875 
L 31.59375 73.6875 
L 10.6875 73.6875 
L 10.6875 80.328125 
L 59.1875 80.328125 
L 59.1875 73.6875 
L 38.71875 73.6875 
L 38.71875 70.21875 
Q 38.71875 60.84375 45.984375 51.34375 
Q 53.265625 41.84375 62.3125 37.59375 
z
M 25.484375 -5.71875 
L 25.484375 25.09375 
L 32.8125 25.09375 
L 32.8125 0.6875 
L 85.984375 0.6875 
L 85.984375 -5.71875 
z
" id="MalgunGothic-51204"/>
      <path d="M 79.59375 40.625 
L 79.59375 -8.796875 
L 72.3125 -8.796875 
L 72.3125 85.40625 
L 79.59375 85.40625 
L 79.59375 47.125 
L 95.90625 47.125 
L 95.90625 40.625 
z
M 57.421875 14.203125 
Q 50.4375 19.53125 43.875 28.3125 
Q 37.3125 37.109375 35.109375 44.09375 
Q 33.203125 37.40625 26.75 28.265625 
Q 20.3125 19.140625 12.5 12.890625 
L 6.890625 17.71875 
Q 17.1875 24.515625 24.234375 36.9375 
Q 31.296875 49.359375 31.296875 60.796875 
L 31.296875 70.703125 
L 10.40625 70.703125 
L 10.40625 77.203125 
L 58.984375 77.203125 
L 58.984375 70.703125 
L 38.484375 70.703125 
L 38.484375 61.28125 
Q 38.484375 49.8125 45.5625 38.03125 
Q 52.640625 26.265625 62.5 19.671875 
z
" id="MalgunGothic-51088"/>
     </defs>
     <g transform="translate(364.387188 177.142063)scale(0.1 -0.1)">
      <use xlink:href="#MalgunGothic-49340"/>
      <use x="100" xlink:href="#MalgunGothic-49457"/>
      <use x="200" xlink:href="#MalgunGothic-51204"/>
      <use x="300" xlink:href="#MalgunGothic-51088"/>
     </g>
    </g>
    <g id="line2d_39">
     <path d="M 336.387188 188.598312 
L 356.387188 188.598312 
" style="fill:none;stroke:#2ca02c;stroke-linecap:square;stroke-width:1.5;"/>
    </g>
    <g id="line2d_40"/>
    <g id="text_14">
     <!-- SK텔레콤 -->
     <defs>
      <path d="M 6.15625 12.453125 
Q 9.46875 9.578125 15.0625 7.8125 
Q 20.65625 6.0625 25.390625 6.0625 
Q 41.0625 6.0625 41.0625 17.4375 
Q 41.0625 20.703125 39.421875 23.1875 
Q 37.796875 25.6875 35.15625 27.4375 
Q 32.515625 29.203125 24.171875 33.5 
Q 14.109375 38.671875 10.171875 43.03125 
Q 6.25 47.40625 6.25 54 
Q 6.25 62.796875 13.40625 67.921875 
Q 20.5625 73.046875 31.0625 73.046875 
Q 41.703125 73.046875 46.296875 70.515625 
L 46.296875 61.375 
Q 40.046875 65.71875 30.03125 65.71875 
Q 23.1875 65.71875 18.859375 62.78125 
Q 14.546875 59.859375 14.546875 54.6875 
Q 14.546875 50 17.59375 47.046875 
Q 20.65625 44.09375 30.28125 39.40625 
Q 41.5 33.796875 45.40625 28.8125 
Q 49.3125 23.828125 49.3125 18.015625 
Q 49.3125 8.6875 42.578125 3.734375 
Q 35.84375 -1.21875 23.921875 -1.21875 
Q 20.171875 -1.21875 14.484375 -0.015625 
Q 8.796875 1.171875 6.15625 2.9375 
z
" id="MalgunGothic-83"/>
      <path d="M 58.890625 0 
L 47.703125 0 
L 19.53125 32.953125 
Q 17.96875 34.765625 17.625 35.359375 
L 17.390625 35.359375 
L 17.390625 0 
L 9.515625 0 
L 9.515625 71.875 
L 17.390625 71.875 
L 17.390625 38.09375 
L 17.625 38.09375 
Q 18.359375 39.203125 19.53125 40.4375 
L 46.875 71.875 
L 56.6875 71.875 
L 25.53125 37.40625 
z
" id="MalgunGothic-75"/>
      <path d="M 79 35.984375 
L 79 85.40625 
L 86.28125 85.40625 
L 86.28125 35.984375 
z
M 62.109375 35.984375 
L 62.109375 58.296875 
L 47.703125 58.296875 
L 47.703125 64.59375 
L 62.109375 64.59375 
L 62.109375 83.5 
L 69.28125 83.5 
L 69.28125 35.984375 
z
M 21.390625 57.078125 
L 21.390625 45.609375 
Q 43.015625 45.609375 52.09375 46.484375 
L 52.59375 40.09375 
Q 39.109375 39.3125 14.203125 39.3125 
L 14.203125 81.5 
L 50.203125 81.5 
L 50.203125 75.09375 
L 21.390625 75.09375 
L 21.390625 63.484375 
L 41.40625 63.484375 
L 41.40625 57.078125 
z
M 27.296875 -6.59375 
L 27.296875 15.71875 
L 79.109375 15.71875 
L 79.109375 24.421875 
L 27.296875 24.421875 
L 27.296875 30.8125 
L 86.28125 30.8125 
L 86.28125 9.421875 
L 34.515625 9.421875 
L 34.515625 -0.09375 
L 88.8125 -0.09375 
L 88.8125 -6.59375 
z
" id="MalgunGothic-53588"/>
      <path d="M 79.5 -8.796875 
L 79.5 85.40625 
L 86.921875 85.40625 
L 86.921875 -8.796875 
z
M 62.5 -6.296875 
L 62.5 39.203125 
L 49.125 39.203125 
L 49.125 45.703125 
L 62.5 45.703125 
L 62.5 83.5 
L 69.671875 83.5 
L 69.671875 -6.296875 
z
M 12.015625 11.28125 
L 12.015625 49.125 
L 38.09375 49.125 
L 38.09375 70.40625 
L 12.015625 70.40625 
L 12.015625 76.90625 
L 45.40625 76.90625 
L 45.40625 42.828125 
L 19.28125 42.828125 
L 19.28125 17.828125 
Q 44.09375 17.828125 51.3125 19.09375 
L 52.09375 12.890625 
Q 42.625 11.28125 12.015625 11.28125 
z
" id="MalgunGothic-47112"/>
      <path d="M 18.40625 58.015625 
L 16.890625 64.796875 
L 74.03125 66.796875 
L 74.125 76.3125 
L 21 76.3125 
L 21 82.71875 
L 81.390625 82.71875 
Q 81.390625 58.15625 80.171875 47.3125 
L 73.1875 47.703125 
Q 73.53125 50.734375 73.78125 60.796875 
z
M 6.296875 35.40625 
L 6.296875 42 
L 43.40625 42 
L 43.40625 55.8125 
L 50.59375 55.8125 
L 50.59375 42 
L 93.703125 42 
L 93.703125 35.40625 
z
M 20.703125 -6 
L 20.703125 26.125 
L 79.296875 26.125 
L 79.296875 -6 
z
M 72.125 19.671875 
L 27.875 19.671875 
L 27.875 0.390625 
L 72.125 0.390625 
z
" id="MalgunGothic-53092"/>
     </defs>
     <g transform="translate(364.387188 192.098312)scale(0.1 -0.1)">
      <use xlink:href="#MalgunGothic-83"/>
      <use x="54.296875" xlink:href="#MalgunGothic-75"/>
      <use x="113.330078" xlink:href="#MalgunGothic-53588"/>
      <use x="213.330078" xlink:href="#MalgunGothic-47112"/>
      <use x="313.330078" xlink:href="#MalgunGothic-53092"/>
     </g>
    </g>
   </g>
  </g>
 </g>
 <defs>
  <clipPath id="p8b9280e1ca">
   <rect height="266.112" width="357.12" x="57.6" y="41.472"/>
  </clipPath>
 </defs>
</svg>
